<svg width="64" height="65" viewBox="0 0 64 65" fill="none" xmlns="http://www.w3.org/2000/svg">
<g clip-path="url(#clip0_725_981)">
<path d="M62.934 3.56361C62.4006 3.03028 61.334 3.03027 60.534 3.03027L45.334 7.56361V61.1636L62.134 56.3636C63.2006 56.0969 64.0007 55.0303 64.0007 53.6969V5.69694C64.0007 4.89694 63.734 4.09694 62.934 3.56361Z" fill="url(#paint0_linear_725_981)"/>
<path opacity="0.3" d="M40 7.56323L27.3134 4.39159C25.6304 3.97082 24 5.24378 24 6.97864V57.1632L36.6866 60.3349C38.3696 60.7556 40 59.4827 40 57.7478V7.56323Z" fill="#6AEDAB"/>
<path d="M18.6667 3.56323L1.86667 8.36323C0.800002 8.89656 0 9.96323 0 11.0299V59.0299C0 59.8299 0.266666 60.6299 1.06667 61.1632C1.6 61.4299 2.13333 61.6966 2.66667 61.6966H3.46666L18.6667 57.1632V3.56323Z" fill="url(#paint1_linear_725_981)"/>
</g>
<defs>
<linearGradient id="paint0_linear_725_981" x1="45.334" y1="28.8673" x2="63.6831" y2="26.4535" gradientUnits="userSpaceOnUse">
<stop stop-color="#3FE6DC"/>
<stop offset="0.52863" stop-color="#76D742"/>
<stop offset="1" stop-color="#DBF53C"/>
</linearGradient>
<linearGradient id="paint1_linear_725_981" x1="-3.44782e-07" y1="29.4003" x2="18.3491" y2="26.9865" gradientUnits="userSpaceOnUse">
<stop stop-color="#3FE6DC"/>
<stop offset="0.52863" stop-color="#76D742"/>
<stop offset="1" stop-color="#DBF53C"/>
</linearGradient>
<clipPath id="clip0_725_981">
<rect width="64" height="64" fill="white" transform="translate(0 0.363525)"/>
</clipPath>
</defs>
</svg>
