<svg width="40" height="94" viewBox="0 0 40 94" fill="none" xmlns="http://www.w3.org/2000/svg">
<path fill-rule="evenodd" clip-rule="evenodd" d="M2.06945 48.1634C2.06194 47.9447 2.08466 47.6996 2.12 47.6186C2.15535 47.5375 2.11373 47.4581 2.02759 47.4419C1.82728 47.4043 1.71789 47.013 1.89457 46.9657C1.97568 46.9439 1.93886 46.842 1.80086 46.706C1.62296 46.5309 1.59918 46.4099 1.69151 46.1494C1.78001 45.8991 1.76572 45.8168 1.63423 45.8177C1.50073 45.8186 1.47921 45.7459 1.54394 45.5118C1.60176 45.3021 1.57777 45.1941 1.46794 45.1708C1.37953 45.1522 1.24448 44.9392 1.16787 44.6976C1.05835 44.3522 1.08369 44.2059 1.28682 44.0132C1.42881 43.8784 1.48083 43.7853 1.40259 43.8062C1.24557 43.8483 0.830456 42.6464 0.926071 42.4271C0.958524 42.3527 0.888355 41.9887 0.770324 41.6181C0.588089 41.0461 0.591314 40.8943 0.791637 40.6129C0.974965 40.3556 0.984015 40.2583 0.83208 40.1773C0.550415 40.0273 0.394972 39.1664 0.610843 38.9519C0.755897 38.8078 0.749139 38.7531 0.575301 38.6603C0.422377 38.5789 0.402005 38.5231 0.504069 38.4654C0.594532 38.4142 0.559755 38.0556 0.409224 37.4867C0.278536 36.9929 0.197889 36.3009 0.230167 35.949C0.262444 35.597 0.230918 35.156 0.160306 34.9689C0.0895568 34.7819 0.0794296 34.5524 0.137548 34.4591C0.195803 34.3658 0.220621 34.1957 0.192714 34.0812C0.0867494 33.6458 0.097545 32.969 0.21439 32.7191C0.281295 32.5761 0.279952 32.2647 0.211358 32.0273C0.142871 31.7897 0.124975 31.4881 0.17165 31.357C0.218434 31.2257 0.239768 30.8804 0.219152 30.5894C0.198537 30.2984 0.236075 30.0458 0.302705 30.0279C0.369199 30.0101 0.40098 29.9108 0.373259 29.8074C0.345511 29.7038 0.387624 29.4923 0.466873 29.3375C0.546093 29.1826 0.553679 28.9908 0.483641 28.9113C0.413739 28.8317 0.432927 28.5434 0.52637 28.2706C0.632549 27.9607 0.637675 27.7636 0.540152 27.7453C0.445234 27.7275 0.419502 27.655 0.474703 27.56C0.524569 27.4742 0.652207 26.9543 0.758402 26.4047C0.864462 25.8551 1.03907 25.2561 1.14615 25.0735C1.25339 24.891 1.28876 24.6822 1.22498 24.6097C1.14561 24.5194 1.20499 24.452 1.41335 24.3962C1.64109 24.3352 1.67339 24.2908 1.54132 24.2201C1.41846 24.1542 1.38825 23.9814 1.44192 23.6509C1.48423 23.3898 1.51665 23.164 1.51386 23.1492C1.51106 23.1344 1.64693 23.0844 1.8156 23.0383C2.03716 22.9777 2.06473 22.943 1.915 22.9134C1.74193 22.8792 1.72775 22.8268 1.82894 22.5977C1.89572 22.4466 1.98918 22.3126 2.03669 22.2998C2.08407 22.2871 2.10929 22.0634 2.09265 21.8025C2.04854 21.1125 2.22994 20.3187 2.44499 20.2611C2.5474 20.2336 2.61273 20.1421 2.59015 20.0578C2.56753 19.9734 2.66736 19.7359 2.81183 19.5302C2.95641 19.3242 3.0317 19.1241 2.97916 19.0853C2.92661 19.0465 2.9867 18.8977 3.11274 18.7547C3.23894 18.6119 3.31301 18.3864 3.27746 18.2537C3.23844 18.1081 3.29543 17.9903 3.42104 17.9567C3.53546 17.926 3.65565 17.7661 3.68804 17.6014C3.72044 17.4367 3.85572 17.272 3.98875 17.2354C4.16782 17.1861 4.1786 17.1585 4.03024 17.1292C3.87059 17.0975 3.86151 17.0085 3.98564 16.6897C4.07142 16.4696 4.21824 16.2688 4.31193 16.2432C4.40578 16.2178 4.4569 16.1016 4.42569 15.9851C4.39448 15.8686 4.4181 15.7602 4.47831 15.744C4.53839 15.7279 4.66444 15.4643 4.75847 15.1582C4.85237 14.8522 4.99153 14.5851 5.06758 14.5647C5.14363 14.5443 5.18674 14.4562 5.16333 14.3688C5.1397 14.2806 5.24216 14.1774 5.39385 14.1368C5.54554 14.0962 5.648 13.993 5.62437 13.9048C5.60096 13.8174 5.64325 13.7295 5.71835 13.7094C5.79344 13.6893 5.83907 13.6132 5.81969 13.5404C5.76726 13.3425 6.39412 12.416 6.45286 12.6046C6.47969 12.6911 6.53444 12.5743 6.57444 12.3451C6.61431 12.1159 6.77582 11.746 6.93311 11.5231C7.0904 11.3001 7.20815 11.0771 7.19482 11.0273C7.18148 10.9776 7.26111 10.9127 7.37184 10.883C7.48258 10.8533 7.62614 10.6725 7.69089 10.4811C7.75567 10.2897 8.04047 9.87148 8.32371 9.55169C8.60695 9.23191 8.82493 8.91871 8.80805 8.8557C8.7694 8.71148 9.41631 7.95207 9.62663 7.89481C9.71267 7.8713 9.84863 7.68347 9.92893 7.47742C10.0091 7.27129 10.2243 7.02966 10.407 6.94041C10.5897 6.85127 10.7253 6.72652 10.7084 6.6632C10.6585 6.47726 11.2315 5.76308 11.4851 5.69514C11.6132 5.66083 11.7342 5.55178 11.7541 5.45282C11.7738 5.3539 11.8923 5.24555 12.0172 5.21207C12.1423 5.17856 12.3222 5.04104 12.4171 4.90633C12.6528 4.57192 13.0746 4.2478 13.3806 4.16581C13.5204 4.12835 13.7472 3.96862 13.8847 3.81078C14.0223 3.65304 14.2224 3.52635 14.3293 3.52926C14.4475 3.53253 14.4968 3.46576 14.4547 3.3589C14.3488 3.08925 14.6321 2.99812 14.888 3.21964C15.0134 3.32824 15.0682 3.34807 15.01 3.26356C14.9186 3.13131 15.2024 2.65623 15.4052 2.6019C15.4434 2.59166 15.6969 2.38959 15.9683 2.15288C16.3775 1.79603 16.5121 1.73194 16.7546 1.77841C16.9644 1.81866 17.0886 1.7889 17.1936 1.67328C17.3503 1.50055 17.8029 1.46347 17.8448 1.61987C17.8587 1.67186 17.9259 1.6995 17.9939 1.68128C18.062 1.66303 18.0599 1.56143 17.9895 1.45545C17.9036 1.3263 17.9286 1.24481 18.0654 1.20815C18.1776 1.17808 18.3262 1.06235 18.3955 0.951031C18.506 0.7739 18.5716 0.763343 18.9227 0.866525C19.3602 0.995232 19.8519 0.918291 19.8013 0.729172C19.7783 0.643508 19.8277 0.62892 19.9778 0.677091C20.0925 0.713794 20.3119 0.681324 20.4654 0.604893C20.8368 0.420044 21.284 0.608351 21.2427 0.932089C21.224 1.07883 21.1289 1.17368 21.0039 1.17029C20.8881 1.16713 20.813 1.22801 20.8343 1.30775C20.8758 1.46256 21.2784 1.47464 21.5351 1.3287C21.6225 1.27907 21.6757 1.17094 21.6536 1.08845C21.6025 0.89753 21.8225 0.83346 21.9665 0.997342C22.0267 1.06566 21.9787 1.23173 21.86 1.36638C21.6243 1.63345 21.2533 1.77896 21.2109 1.62076C21.1788 1.50078 20.6004 1.67129 20.5229 1.82361C20.4925 1.88304 20.3277 1.99258 20.1564 2.06697C19.9851 2.14148 19.8121 2.28884 19.772 2.39434C19.7318 2.49988 19.5293 2.63176 19.322 2.6873C19.0827 2.75143 18.816 2.95453 18.5916 3.24359C18.3393 3.56848 18.104 3.7373 17.7708 3.83237C17.4203 3.93251 17.3158 4.01216 17.3528 4.15126C17.3977 4.32027 17.2798 4.41506 17.0352 4.40661C16.9835 4.4048 16.9201 4.51769 16.8942 4.65728C16.8581 4.85173 16.7614 4.92112 16.4812 4.95341C16.2098 4.98457 16.127 5.03979 16.161 5.16665C16.1863 5.26089 16.1455 5.35433 16.0704 5.37445C15.9953 5.39458 15.953 5.48251 15.9764 5.56987C15.9998 5.65723 15.9531 5.74634 15.8727 5.76789C15.7922 5.78948 15.6502 5.90741 15.5572 6.02994C15.4375 6.18752 15.3366 6.23125 15.2124 6.17907C14.9474 6.0677 14.7955 6.14574 14.8963 6.34163C14.9485 6.44328 14.9006 6.53909 14.7812 6.57106C14.6686 6.60125 14.5658 6.73094 14.5528 6.85927C14.5399 6.98756 14.4546 7.09983 14.3635 7.1086C14.2725 7.11743 14.2148 7.18782 14.2355 7.26501C14.2562 7.34221 14.154 7.55287 14.0084 7.73318C13.7613 8.03896 13.7357 8.04913 13.6266 7.88359C13.5453 7.76045 13.528 7.79382 13.5694 7.99279C13.6113 8.19344 13.4843 8.43154 13.146 8.78719C12.4204 9.54963 12.2627 9.788 12.3591 9.97633C12.4168 10.0889 12.3449 10.187 12.1487 10.2636C11.9689 10.3335 11.8703 10.4534 11.9003 10.5655C11.929 10.6723 11.7565 10.8982 11.4941 11.0975C11.2434 11.288 11.0419 11.4914 11.0467 11.5495C11.0773 11.9244 10.9387 12.2308 10.6559 12.4134C10.4766 12.5292 10.2817 12.6285 10.2229 12.6341C10.1642 12.6399 10.1225 12.7066 10.1307 12.7825C10.1387 12.8583 10.1438 12.9719 10.1419 13.0348C10.1401 13.0977 10.1554 13.24 10.1758 13.3511C10.2028 13.4975 10.134 13.5578 9.92508 13.5707C9.69605 13.5849 9.65116 13.6407 9.70546 13.8434C9.743 13.9835 9.70396 14.1168 9.61876 14.1397C9.41805 14.1934 8.99548 14.7972 8.84301 15.2478C8.7773 15.4417 8.63672 15.6538 8.53054 15.719C8.42438 15.7844 8.36261 15.9318 8.3934 16.0467C8.42416 16.1614 8.40818 16.2908 8.35797 16.3339C8.30761 16.377 8.2299 16.2093 8.18524 15.9613C8.11257 15.5584 8.09384 15.5404 8.00957 15.7928C7.94452 15.9875 7.83197 16.077 7.64741 16.0807C7.3198 16.0875 7.33406 16.2008 7.68343 16.3681C7.92285 16.4828 7.9212 16.5252 7.66344 16.8648C7.50844 17.0689 7.44598 17.2187 7.52449 17.1976C7.711 17.1477 7.78733 17.4369 7.61362 17.5352C7.53991 17.5769 7.48668 17.7103 7.49549 17.8317C7.50539 17.9696 7.40591 18.0806 7.23004 18.1277C6.83913 18.2325 6.75065 18.3894 7.0059 18.5255C7.1495 18.6021 7.17135 18.6542 7.07113 18.681C6.98839 18.7032 6.91394 18.8508 6.90585 19.009C6.89776 19.1673 6.80556 19.3196 6.70111 19.3476C6.58 19.3801 6.54266 19.5165 6.59815 19.7236C6.68268 20.0391 6.32343 20.9458 5.95171 21.3553C5.85398 21.463 5.81575 21.582 5.86667 21.6196C5.91773 21.6572 5.88185 21.8909 5.78713 22.1387C5.69244 22.3866 5.6462 22.5811 5.68443 22.5708C5.82588 22.5329 5.47338 23.3703 5.26329 23.571C5.14366 23.6854 5.09525 23.8155 5.15566 23.8601C5.21622 23.9049 5.22126 24.0149 5.16705 24.1047C5.11281 24.1945 5.08272 24.494 5.10024 24.7702C5.11762 25.0465 5.0314 25.4898 4.90868 25.7555C4.78579 26.0211 4.71147 26.3363 4.74354 26.4559C4.77557 26.5755 4.74767 26.8777 4.68144 27.1275C4.61522 27.3774 4.58457 27.6207 4.61344 27.6684C4.6423 27.716 4.56553 27.8959 4.44295 28.0682C4.28153 28.2948 4.26446 28.4501 4.38125 28.6304C4.48459 28.7899 4.48754 28.9872 4.3895 29.1789C4.30528 29.3436 4.29135 29.6837 4.35859 29.9347C4.43812 30.2315 4.41838 30.4293 4.30205 30.5008C4.20379 30.5612 4.10737 30.6902 4.08792 30.7875C4.06818 30.8858 4.10414 30.9201 4.16875 30.8646C4.23469 30.8082 4.26885 30.8455 4.24781 30.9511C4.22725 31.0535 4.11058 31.1681 3.98837 31.2057C3.86616 31.2433 3.83484 31.2777 3.91854 31.282C4.09918 31.2915 4.24654 32.149 4.07532 32.1948C4.01047 32.2122 4.01474 32.2915 4.08484 32.3713C4.19199 32.4932 4.17652 32.9144 4.02396 34.0245C3.99058 34.2674 4.02848 34.635 4.17065 35.4474C4.23739 35.8281 4.24034 36.1848 4.17729 36.2401C4.06841 36.3356 4.10323 36.612 4.37953 37.8447C4.44554 38.1391 4.45091 38.4273 4.39147 38.4851C4.33204 38.5429 4.32242 38.8008 4.37017 39.0582C4.4178 39.3157 4.46114 39.5556 4.4663 39.5912C4.47148 39.6269 4.36315 39.83 4.22555 40.0423C4.01612 40.3656 4.01155 40.4435 4.19724 40.5215C4.31911 40.5728 4.48114 40.598 4.55719 40.5776C4.7523 40.5253 4.9784 42.0546 4.82208 42.3685C4.73155 42.55 4.75159 42.6636 4.89568 42.7863C5.00938 42.8829 5.09594 43.1301 5.09908 43.3668C5.10217 43.5935 5.39816 44.9515 5.757 46.3847C6.1157 47.8179 6.43375 49.0993 6.46369 49.2324C6.49353 49.3656 6.40898 49.618 6.27583 49.7934L6.03354 50.1126L6.36623 50.0615C6.66322 50.0158 6.70124 50.0528 6.72096 50.4061C6.73303 50.6237 6.66263 50.9191 6.56439 51.0626C6.39536 51.3094 6.40052 51.3194 6.66213 51.2493C6.88687 51.1891 6.96236 51.2485 7.06577 51.5667C7.36447 52.486 7.45752 53.0091 7.35229 53.1778C7.26884 53.3115 7.30535 53.3855 7.49384 53.4647C7.80882 53.5971 8.37341 55.5616 8.15249 55.7568C8.06574 55.8334 8.10303 55.854 8.25637 55.8141C8.51297 55.7471 8.64458 56.0384 8.55439 56.4735C8.52218 56.6291 8.5792 56.7338 8.7161 56.7707C8.83236 56.802 9.03903 57.1042 9.17539 57.4421C9.31176 57.7801 9.48349 58.1933 9.55709 58.3604C9.63069 58.5275 9.6378 58.7097 9.57295 58.7653C9.49965 58.8282 9.53839 58.9039 9.67539 58.9657C9.93336 59.0819 10.2369 59.8248 10.0471 59.8756C9.97597 59.8947 10.0591 60.0602 10.2319 60.2436C10.4047 60.4269 10.5717 60.759 10.6029 60.9816C10.644 61.2742 10.7038 61.3591 10.8186 61.2885C10.9599 61.2018 11.1087 61.3914 11.1188 61.6708C11.1207 61.7233 11.3028 62.032 11.5234 62.3568C11.7441 62.6818 12.0046 63.1815 12.1022 63.4674C12.1999 63.7533 12.3458 64.0717 12.4267 64.1749C12.5431 64.3236 12.4831 64.4323 12.1372 64.6988C11.785 64.9704 11.7467 65.0421 11.9381 65.0704C12.0685 65.0898 12.2283 65.0602 12.2933 65.0045C12.3583 64.9489 12.4264 64.9597 12.4449 65.0284C12.4701 65.1227 12.5168 65.1113 12.6341 64.982C12.7571 64.8464 12.8206 64.8562 12.9372 65.0288C13.1663 65.3677 13.1556 65.4187 12.8534 65.4249C12.6155 65.4297 12.5871 65.4802 12.6701 65.75C12.7509 66.0128 12.8252 66.0542 13.0889 65.9836C13.5616 65.8569 14.0775 66.1117 14.0595 66.4629C14.0514 66.6225 14.1865 66.9047 14.3655 67.1014C14.6041 67.3637 14.6548 67.4951 14.5637 67.615C14.4727 67.735 14.533 67.8112 14.7997 67.9127C15.0722 68.0165 15.1674 68.1405 15.1974 68.4303C15.2202 68.6505 15.3134 68.8269 15.4186 68.8484C15.5186 68.8688 15.7225 69.0317 15.8718 69.2101C16.1007 69.4838 16.1165 69.5611 15.9724 69.7035C15.8425 69.8321 15.8477 69.8916 15.9939 69.9531C16.0996 69.9975 16.2591 70.0143 16.3485 69.9903C16.5815 69.9279 17.3136 70.6694 17.5706 71.2282C17.6909 71.4898 17.8976 71.7756 18.0298 71.8634C18.162 71.951 18.2889 72.0924 18.3117 72.1775C18.3345 72.2627 18.5491 72.513 18.7885 72.7338C19.0651 72.9887 19.2772 73.3321 19.3698 73.6744C19.4816 74.087 19.5632 74.1982 19.7179 74.1486C19.8424 74.1086 19.9667 74.1912 20.0412 74.3634C20.1079 74.5172 20.2131 74.6294 20.2751 74.6128C20.4293 74.5715 21.0396 75.2584 21.122 75.566C21.1588 75.7032 21.297 75.8501 21.429 75.8925C21.6909 75.9763 21.8523 76.3465 21.6505 76.4006C21.5817 76.419 21.4785 76.3829 21.421 76.3202C21.3569 76.2501 21.331 76.2765 21.354 76.3885C21.3746 76.4887 21.5996 76.606 21.8542 76.6492C22.1089 76.6923 22.3034 76.7962 22.2865 76.8802C22.2698 76.9641 22.3094 77.0185 22.3747 77.001C22.4401 76.9835 22.534 77.1464 22.5837 77.3629C22.6343 77.5838 22.7511 77.756 22.8496 77.7551C22.9461 77.7542 23.0418 77.8152 23.062 77.8906C23.0822 77.966 23.2068 78.0622 23.3388 78.1046C23.4709 78.1469 23.6029 78.271 23.6322 78.3803C23.6615 78.4897 23.8412 78.6446 24.0315 78.7245C24.2545 78.8182 24.3794 78.9649 24.3828 79.1371C24.3857 79.2841 24.462 79.4081 24.552 79.4125C24.6617 79.418 24.6634 79.4705 24.5569 79.5717C24.4226 79.6992 24.4296 79.7252 24.6016 79.7386C24.7581 79.7508 24.7699 79.7792 24.6523 79.8613C24.5347 79.9434 24.5548 79.9914 24.7382 80.0686C24.8696 80.1238 24.9652 80.26 24.9506 80.3714C24.9303 80.5266 24.946 80.532 25.018 80.3947C25.097 80.2439 25.1367 80.2333 25.2698 80.3272C25.3566 80.3886 25.4532 80.5087 25.4842 80.594C25.5153 80.6793 25.5722 80.8301 25.6106 80.929C25.6489 81.0279 25.7726 81.0842 25.8852 81.054C26.0278 81.0158 26.1198 81.1103 26.1879 81.3644C26.2472 81.5856 26.3799 81.7438 26.5241 81.7652C26.655 81.7847 26.7966 81.8719 26.8385 81.9589C26.8804 82.046 27.0137 82.1699 27.1346 82.2345C27.2556 82.299 27.3419 82.4526 27.3262 82.5758C27.3094 82.7081 27.3975 82.8318 27.5413 82.8779C27.6755 82.9209 27.8063 83.0335 27.8323 83.1281C27.8581 83.2229 28.0396 83.4105 28.2357 83.5452C28.4317 83.68 28.6149 83.8735 28.6426 83.9753C28.6704 84.077 28.7415 84.1474 28.8005 84.1316C28.9075 84.1029 29.0294 84.3357 29.1609 84.8202C29.1992 84.9608 29.3514 85.1339 29.4991 85.2047C29.647 85.2755 29.7457 85.3844 29.7186 85.4467C29.6914 85.5089 29.8067 85.5947 29.9749 85.6372C30.1428 85.6797 30.2951 85.7696 30.3132 85.837C30.3312 85.9044 30.4541 85.9941 30.5861 86.0365C30.8957 86.1357 30.9637 86.3893 30.6996 86.46C30.587 86.4902 30.482 86.4672 30.4664 86.409C30.4508 86.3508 30.3824 86.318 30.3144 86.3363C30.2464 86.3545 30.2919 86.4661 30.4157 86.5843C30.5824 86.7435 30.6777 86.7585 30.7832 86.6421C30.8617 86.5557 30.9433 86.525 30.9647 86.5738C30.9861 86.6224 31.0717 86.8382 31.1549 87.0533C31.3189 87.4775 31.607 87.6923 31.9044 87.6126C32.0079 87.5849 32.1057 87.6115 32.1219 87.6718C32.138 87.7321 32.2899 87.8778 32.4593 87.9956C32.6289 88.1135 32.8002 88.2777 32.8401 88.3606C32.8801 88.4435 32.9969 88.5271 33.0995 88.5463C33.2022 88.5656 33.2688 88.6683 33.2477 88.7744C33.2235 88.8946 33.3237 88.9895 33.5132 89.0258C33.6805 89.0578 33.8384 89.1626 33.8642 89.2588C33.8905 89.357 34.0685 89.4226 34.2702 89.4087C34.4677 89.3949 34.6492 89.4576 34.6734 89.5479C34.7125 89.6941 34.7355 89.6886 34.8797 89.4987C34.9689 89.3811 35.0282 89.2339 35.0115 89.1714C34.9948 89.1091 35.0442 89.0411 35.1212 89.0205C35.2008 88.9992 35.1327 88.8702 34.9633 88.7213C34.7493 88.5333 34.6889 88.394 34.7486 88.2262C34.7944 88.098 34.7809 87.9715 34.7187 87.9454C34.6565 87.9193 34.6828 87.8317 34.7773 87.7506C34.9263 87.6229 34.9203 87.6027 34.7321 87.5977C34.5502 87.593 34.4608 87.3451 34.1793 86.0657C33.9947 85.2263 33.8801 84.4601 33.9248 84.3631C33.9771 84.2497 33.9301 84.1718 33.7931 84.1448C33.6235 84.1113 33.6167 84.0927 33.7601 84.0528C33.8591 84.0253 34.0035 83.9195 34.0808 83.8176C34.1961 83.6657 34.1676 83.6029 33.9219 83.4681C33.681 83.3358 33.6208 83.2088 33.6141 82.8185C33.6093 82.5517 33.5986 82.297 33.5901 82.2524C33.5817 82.2078 33.667 82.1466 33.7797 82.1165C33.8923 82.0863 33.9713 82.0125 33.9552 81.9524C33.9391 81.8923 33.8264 81.8404 33.7048 81.8371C33.4422 81.8299 33.3679 81.6416 33.5389 81.4165C33.682 81.228 34.1188 81.3549 34.1411 81.5915C34.1719 81.9193 34.2787 81.9979 34.5637 81.902C35.2649 81.6661 35.4789 81.6563 35.4376 81.8622C35.4071 82.0143 35.4483 82.0316 35.6077 81.9337C35.7332 81.8566 35.8328 81.8562 35.8545 81.9329C35.8745 82.0037 35.9567 82.1588 36.037 82.2777C36.1446 82.4366 36.1247 82.5095 35.9625 82.553C35.7109 82.6204 35.7192 82.7671 35.9872 82.9952C36.1336 83.1199 36.1191 83.1792 35.9171 83.2797C35.7768 83.3496 35.6768 83.462 35.6949 83.5297C35.7149 83.6042 35.8278 83.5976 35.9822 83.5126C36.1824 83.4025 36.2279 83.4151 36.1964 83.5726C36.1743 83.6825 36.2425 83.7885 36.3478 83.8083C36.453 83.828 36.596 84.0143 36.6655 84.2224C36.7653 84.5212 36.7412 84.6142 36.5505 84.6653C36.2211 84.7535 36.3192 85.0271 36.6725 85.0053C36.9303 84.9893 36.9711 85.0615 37.107 85.773C37.2089 86.3067 37.3414 86.6325 37.5204 86.7899C37.7444 86.9866 37.767 87.0715 37.6709 87.3541C37.6087 87.5369 37.605 87.674 37.6626 87.6586C37.7202 87.6431 37.7786 87.7807 37.7924 87.9643C37.8062 88.1478 37.7388 88.3191 37.6427 88.3449C37.3813 88.4149 37.3661 88.7306 37.6238 88.7377C37.9395 88.7464 37.9946 88.7212 37.8665 88.6266C37.8014 88.5786 37.8553 88.5471 37.9963 88.551C38.1896 88.5563 38.2061 88.5853 38.0797 88.6975C37.9506 88.8121 37.9643 88.8467 38.1552 88.8885C38.3486 88.9308 38.3609 88.9638 38.2279 89.0818C38.1199 89.1777 38.1215 89.2341 38.2331 89.2551C38.3242 89.2722 38.4344 89.4405 38.4778 89.6293C38.5213 89.818 38.5844 90.0162 38.6179 90.0697C38.7442 90.2714 38.6884 90.3579 38.4758 90.2898C38.2992 90.2332 38.2694 90.2703 38.3247 90.477C38.3684 90.6401 38.493 90.7287 38.6637 90.7181C39.0352 90.6952 39.055 90.8909 38.6969 91.0466L38.402 91.1748L38.713 91.1069C39.1358 91.0146 39.3092 91.5301 38.8929 91.6416C38.7427 91.6819 38.6314 91.758 38.6455 91.8107C38.6597 91.8636 38.777 91.8541 38.9063 91.7898C39.191 91.648 39.5706 91.8266 39.5772 92.1054C39.5799 92.2169 39.4573 92.3917 39.3048 92.494C39.1523 92.5962 39.0472 92.7266 39.0713 92.7835C39.1817 93.0454 39.1187 93.1464 38.7415 93.313C38.4203 93.4547 38.2721 93.4563 38.0247 93.3206C37.7445 93.167 37.6723 93.1741 37.3162 93.3905C36.9646 93.6042 36.8793 93.6143 36.5615 93.4808C36.3644 93.398 36.083 93.3767 35.9361 93.4336C35.7368 93.5108 35.7095 93.4997 35.8283 93.39C35.9393 93.2874 35.936 93.2333 35.8169 93.211C35.7231 93.1935 35.6229 93.0917 35.5943 92.9849C35.5345 92.7617 35.2492 92.7314 34.6693 92.8868C34.4458 92.9467 34.2835 92.9482 34.3089 92.8901C34.3604 92.772 33.7992 92.5525 33.5894 92.6087C33.5152 92.6286 33.437 92.58 33.4158 92.5008C33.39 92.4045 33.2694 92.4032 33.0532 92.497C32.805 92.6046 32.6183 92.579 32.2556 92.3876C31.3651 91.918 30.8656 91.7383 30.7432 91.8433C30.5776 91.9854 29.8689 91.8252 29.8177 91.6341C29.7929 91.5416 29.7022 91.5269 29.5882 91.5969C29.463 91.6739 29.3806 91.6472 29.3427 91.5173C29.2524 91.2076 28.8554 91.0399 28.462 91.1453C28.1338 91.2332 28.111 91.2182 28.2151 90.9829C28.3157 90.755 28.2713 90.7044 27.8481 90.5647C27.5834 90.4773 27.1482 90.3896 26.8814 90.3699C26.337 90.3295 26.2432 90.2147 26.5532 89.9686C26.8571 89.7271 26.5791 89.6661 25.974 89.8415C25.5726 89.9579 25.4587 89.9532 25.485 89.8218C25.5064 89.715 25.4038 89.6576 25.2127 89.6694C25.044 89.6797 24.8896 89.6268 24.8695 89.5517C24.8458 89.4634 24.947 89.4067 25.1558 89.3913L25.4786 89.3673L25.0952 89.23C24.5725 89.0428 24.1488 89.0641 24.0349 89.2835C23.967 89.4145 23.9429 89.3961 23.9451 89.2147C23.9472 89.0371 23.8987 88.9973 23.7738 89.0741C23.6779 89.1331 23.5844 89.1248 23.5659 89.0557C23.5474 88.9867 23.2336 88.8114 22.8687 88.6662C22.5038 88.5211 22.1993 88.3386 22.1921 88.2607C22.1439 87.7451 22.02 87.6508 21.5537 87.7757C21.1627 87.8805 21.0908 87.8652 21.1026 87.6793C21.1122 87.5286 20.9869 87.4308 20.7093 87.372C20.4853 87.3247 20.2752 87.3214 20.2423 87.3646C20.167 87.4637 19.6519 87.251 19.3332 86.9891C19.0928 86.7913 19.0465 86.736 18.9593 86.5415C18.9343 86.4858 18.791 86.4732 18.6408 86.5134C18.4854 86.555 18.3488 86.5159 18.3238 86.4228C18.2997 86.3328 18.0743 86.2271 17.8228 86.1882C17.2651 86.1018 17.1915 85.9287 17.6228 85.7181C17.8007 85.6313 17.9266 85.4864 17.9024 85.3963C17.8714 85.2807 17.7835 85.2736 17.6042 85.3723C17.4147 85.4766 17.3589 85.4674 17.3851 85.3363C17.4427 85.0497 17.9027 84.8866 18.1481 85.0658C18.2679 85.1535 18.4536 85.2016 18.5607 85.173C18.6679 85.1442 18.7239 85.1622 18.6854 85.213C18.6076 85.3155 19.7104 85.6512 19.9397 85.5947C20.0874 85.5583 20.7375 86.1463 20.7977 86.3708C20.8158 86.4386 20.731 86.5208 20.6092 86.5534C20.4278 86.602 20.4261 86.6333 20.6002 86.7261C20.7171 86.7884 20.9129 86.8133 21.0353 86.7814C21.2257 86.7319 21.2328 86.7455 21.0836 86.8759C20.9877 86.9597 20.9667 87.0523 21.037 87.082C21.1957 87.1486 21.3626 86.7982 21.2218 86.6941C21.1267 86.6239 21.335 86.3646 21.532 86.3079C21.5794 86.2942 21.6756 86.3696 21.7459 86.4753C21.8162 86.5809 21.9961 86.6707 22.1457 86.6747C22.5684 86.686 23.0127 86.9627 23.0271 87.2235C23.0372 87.406 23.0941 87.433 23.2772 87.342C23.4074 87.2771 23.5025 87.1808 23.4884 87.128C23.4742 87.0752 23.6414 87.0698 23.8598 87.1159C24.1055 87.1679 24.2073 87.2424 24.1267 87.3115C23.8882 87.516 24.249 87.7209 24.6979 87.6361C25.0978 87.5605 25.1526 87.5887 25.2877 87.9388C25.4251 88.2954 25.4559 88.3099 25.6903 88.1298C25.909 87.9618 25.9383 87.9637 25.9024 88.1431C25.8705 88.3023 25.9153 88.3242 26.0924 88.2361C26.3778 88.0939 26.7732 88.2583 26.7249 88.4991C26.7018 88.6149 26.8212 88.68 27.0673 88.6861C27.5415 88.698 27.75 88.5388 27.4617 88.3851C27.3445 88.3227 27.1996 88.1235 27.1395 87.9425C26.9623 87.4086 26.925 87.3579 26.7448 87.4062C26.5802 87.4503 26.0523 86.8661 25.9661 86.5441C25.9432 86.4587 25.8249 86.3741 25.7035 86.356C25.5753 86.3369 25.402 86.1174 25.2913 85.8335C25.1862 85.5643 25.0553 85.3252 25.0004 85.3021C24.9456 85.279 24.9353 85.163 24.9776 85.0442C25.0425 84.862 25.0043 84.8499 24.7325 84.9678C24.5382 85.052 24.3971 85.058 24.377 84.983C24.3587 84.9144 24.413 84.8714 24.4977 84.8873C24.9056 84.9637 24.5176 84.6218 23.8202 84.29C23.6155 84.1927 23.1147 83.5165 23.0741 83.2826C22.9813 82.7479 22.803 82.4473 22.6094 82.4992C22.4943 82.5301 22.3398 82.482 22.2659 82.3926C22.1919 82.3033 22.0352 82.1793 21.9174 82.1172C21.7998 82.0551 21.6453 81.8666 21.5742 81.6984C21.503 81.5302 21.2912 81.2629 21.1034 81.1044C20.9156 80.9458 20.7747 80.7154 20.7903 80.5924C20.8063 80.4678 20.7543 80.386 20.6731 80.4077C20.593 80.4292 20.4955 80.3277 20.4565 80.1821C20.4175 80.0365 20.3204 79.9348 20.241 79.9561C20.1615 79.9774 20.1217 79.9366 20.1527 79.8654C20.1837 79.7943 20.0454 79.6319 19.8452 79.5048C19.645 79.3775 19.4673 79.2212 19.4502 79.1574C19.4331 79.0936 19.3577 79.0578 19.2826 79.0779C19.2075 79.0981 19.1167 79.0049 19.0808 78.871C19.0449 78.737 18.9486 78.5968 18.8668 78.5595C18.785 78.522 18.453 78.1306 18.1289 77.6894C17.6617 77.0535 17.5649 76.8456 17.6614 76.6863C17.7584 76.5261 17.7509 76.5124 17.6245 76.6184C17.4368 76.7761 16.8711 76.5555 16.9028 76.3369C16.9143 76.2574 16.7528 76.0658 16.5439 75.9115C16.3348 75.7571 16.1284 75.4988 16.0852 75.3374C16.0419 75.176 15.9013 75.0154 15.7728 74.9805C15.6442 74.9457 15.4909 74.8279 15.432 74.7188C15.3731 74.6098 15.2712 74.4583 15.2056 74.3823C14.8031 73.9159 14.6311 73.6148 14.6447 73.4001C14.6546 73.2463 14.5621 73.1306 14.3946 73.0871C14.2477 73.049 14.0825 72.8671 14.0251 72.6806C13.968 72.495 13.8626 72.3588 13.7909 72.378C13.7192 72.3972 13.6755 72.3379 13.694 72.2462C13.7123 72.1545 13.5743 72.0089 13.3873 71.9226C13.1438 71.8101 13.0463 71.6746 13.0442 71.4448C13.0422 71.2308 12.9744 71.1222 12.8406 71.1186C12.7301 71.1155 12.4446 70.7916 12.206 70.3987C11.9676 70.0058 11.6523 69.6002 11.5054 69.4974C11.3586 69.3945 11.2599 69.2611 11.2861 69.201C11.3123 69.141 11.2 68.9702 11.0364 68.8216C10.7451 68.557 10.5864 67.9512 10.6916 67.5055C10.7317 67.3352 10.6716 67.3123 10.3857 67.3889C10.1603 67.4493 10.0141 67.426 9.98717 67.3254C9.96376 67.238 9.89313 67.1804 9.83019 67.1972C9.76725 67.2141 9.66128 67.0578 9.5946 66.85C9.52793 66.6421 9.38977 66.4274 9.28733 66.3728C9.07426 66.2592 8.80026 65.7544 8.70264 65.295C8.66589 65.1224 8.55584 64.9662 8.45815 64.9479C8.36033 64.9296 8.1847 64.6662 8.06782 64.3628C7.75815 63.5588 7.72441 63.4203 7.76502 63.1191C7.79375 62.9052 7.74103 62.851 7.51774 62.8647C7.22695 62.8827 7.22278 62.8753 6.75852 61.5512C6.57074 61.0154 6.42918 60.7716 6.26576 60.7029C6.20263 60.6765 6.09185 60.434 6.01953 60.1641C5.94723 59.8943 5.81807 59.6438 5.73237 59.6074C5.60455 59.5532 5.36806 58.8966 5.15651 58.0083C5.13556 57.9203 4.99478 57.6516 4.84372 57.4111C4.43562 56.7619 4.2309 56.1749 4.34637 55.9854C4.40369 55.8912 4.37858 55.7484 4.28911 55.6602C4.07581 55.4497 3.49261 53.4605 3.63311 53.4228C3.69401 53.4065 3.62295 53.2833 3.4752 53.1492C3.30906 52.9983 3.14978 52.6403 3.05758 52.2111C2.90357 51.4932 2.9469 51.1726 3.19203 51.2185C3.26983 51.2331 3.27722 51.1809 3.20835 51.1025C3.13933 51.024 3.02054 50.9767 2.94435 50.9971C2.86434 51.0185 2.85956 50.9477 2.93306 50.8299C3.03651 50.6638 3.02253 50.6356 2.85786 50.6798C2.69142 50.7244 2.62256 50.5777 2.47176 49.8576C2.37083 49.3755 2.31142 48.9506 2.33962 48.9133C2.36799 48.8761 2.32174 48.7816 2.23709 48.7033C2.15241 48.6248 2.07695 48.382 2.06945 48.1634ZM15.5277 84.8791C15.5418 84.7973 15.7493 84.6837 15.9889 84.6268C16.2818 84.5572 16.3396 84.5643 16.1655 84.6485C16.0229 84.7173 15.8413 84.844 15.7617 84.9299C15.5928 85.1122 15.4915 85.0902 15.5277 84.8791ZM8.00101 55.5437C8.0761 55.5236 8.12401 55.4566 8.1075 55.395C8.09098 55.3334 8.0239 55.3288 7.95845 55.3849C7.893 55.441 7.84506 55.5079 7.85196 55.5336C7.85885 55.5593 7.92591 55.5638 8.00101 55.5437ZM16.3448 85.1992C16.6121 85.1276 16.9798 85.2299 17.022 85.3876C17.0354 85.4376 16.9597 85.4619 16.8535 85.4414C16.7475 85.421 16.5735 85.4263 16.4668 85.4532C16.1696 85.5283 16.0495 85.2784 16.3448 85.1992ZM3.62829 36.7101C3.6642 36.6627 3.64463 36.57 3.58472 36.5043C3.51852 36.4314 3.49289 36.4652 3.51939 36.5903C3.54342 36.7035 3.59238 36.7574 3.62829 36.7101ZM16.7221 84.8144C16.7876 84.7583 16.861 84.7867 16.8853 84.8775C16.9097 84.9682 16.8681 85.059 16.793 85.0791C16.7179 85.0993 16.6445 85.0709 16.6298 85.0161C16.6151 84.9612 16.6567 84.8705 16.7221 84.8144ZM3.76192 34.7756C3.83265 34.7567 3.87763 34.6936 3.86203 34.6353C3.84642 34.5771 3.73781 34.5551 3.62079 34.5865C3.50378 34.6178 3.45866 34.681 3.52068 34.7268C3.58271 34.7726 3.69119 34.7946 3.76192 34.7756ZM2.36706 29.3613C2.40023 29.3524 2.45246 29.2873 2.48328 29.2167C2.51409 29.146 2.47415 29.1056 2.39469 29.1269C2.31522 29.1482 2.26286 29.2133 2.27847 29.2715C2.29407 29.3298 2.33388 29.3702 2.36706 29.3613ZM3.64002 28.7549C3.7261 28.7004 3.64279 28.6969 3.45505 28.7472C3.26731 28.7975 3.19702 28.8421 3.29868 28.8463C3.4005 28.8506 3.55411 28.8094 3.64002 28.7549ZM4.36731 27.2364C4.44241 27.2163 4.48053 27.1167 4.45215 27.0151C4.40793 26.8572 4.38724 26.8586 4.31056 27.0247C4.19753 27.2691 4.20073 27.2811 4.36731 27.2364ZM18.2451 75.0579C18.421 74.8262 18.1868 74.7835 17.9979 75.0129C17.9087 75.1214 17.9011 75.2107 17.9812 75.2118C18.0611 75.2131 18.1799 75.1438 18.2451 75.0579ZM4.66164 25.058C4.74638 25.0739 4.80218 25.0363 4.78566 24.9747C4.76915 24.9131 4.69417 24.879 4.61908 24.8991C4.54398 24.9193 4.48816 24.9567 4.49505 24.9824C4.50195 25.0082 4.5769 25.0421 4.66164 25.058ZM22.3832 87.0995C22.4958 87.0693 22.5752 86.997 22.5596 86.9387C22.544 86.8805 22.4391 86.8576 22.3264 86.8877C22.2138 86.9179 22.1344 86.9903 22.15 87.0485C22.1656 87.1067 22.2705 87.1297 22.3832 87.0995ZM28.3315 89.3644C28.4066 89.3443 28.4624 89.3068 28.4555 89.2811C28.4486 89.2554 28.3737 89.2214 28.2889 89.2056C28.2042 89.1897 28.1484 89.2272 28.1649 89.2888C28.1814 89.3505 28.2564 89.3845 28.3315 89.3644ZM35.0848 86.9874C35.1975 86.9572 35.2769 86.8849 35.2613 86.8266C35.2457 86.7684 35.1407 86.7454 35.0281 86.7756C34.9154 86.8058 34.836 86.8781 34.8516 86.9364C34.8673 86.9946 34.9722 87.0176 35.0848 86.9874ZM13.7296 6.22864C13.7628 6.21974 13.815 6.15468 13.8459 6.084C13.8767 6.01332 13.8367 5.97295 13.7573 5.99425C13.6778 6.01554 13.6254 6.08064 13.641 6.13888C13.6567 6.19712 13.6965 6.23752 13.7296 6.22864ZM35.6647 87.513C35.7773 87.4828 35.8567 87.4104 35.8411 87.3522C35.8255 87.294 35.9151 87.2189 36.0404 87.1853C36.1654 87.1518 36.2218 87.105 36.1656 87.0814C36.0172 87.019 35.3992 87.3413 35.432 87.464C35.4474 87.5211 35.552 87.5431 35.6647 87.513ZM35.2555 83.5413C35.3681 83.283 35.1908 83.1861 35.0077 83.4058C34.9108 83.522 34.9137 83.6121 35.0156 83.657C35.12 83.7029 35.2024 83.6631 35.2555 83.5413ZM35.2879 84.5377C35.5199 84.6121 35.9343 84.423 35.8912 84.2623C35.8773 84.2103 35.7737 84.1925 35.6611 84.2227C35.5485 84.2528 35.4356 84.2002 35.4103 84.1058C35.3726 83.9651 35.3336 83.9677 35.1947 84.1206C34.9847 84.352 35.006 84.4473 35.2879 84.5377ZM37.2607 91.4121C37.3665 91.2716 37.3476 91.2637 37.1684 91.3733C37.0444 91.4492 36.9845 91.5286 37.0353 91.55C37.0859 91.5714 37.1874 91.5093 37.2607 91.4121ZM35.0755 82.4468C35.3969 82.3577 35.4119 82.3367 35.181 82.2988C35.033 82.2746 34.8589 82.3003 34.7939 82.356C34.5948 82.5267 34.6837 82.5553 35.0755 82.4468ZM36.2996 85.754C36.4541 85.7126 36.53 85.6412 36.4679 85.5954C36.4059 85.5496 36.2667 85.5358 36.1584 85.5648C36.0502 85.5938 35.9744 85.6652 35.99 85.7234C36.0057 85.7816 36.145 85.7954 36.2996 85.754ZM37.1489 88.1367C37.2615 88.1065 37.3349 88.0118 37.312 87.9263C37.2866 87.8316 37.1967 87.8161 37.0819 87.8866C36.9782 87.9503 36.9048 88.045 36.9187 88.097C36.9327 88.149 37.0362 88.1669 37.1489 88.1367ZM15.2778 3.76869C15.3724 3.66433 15.416 3.56471 15.3746 3.54721C15.2601 3.49922 15.0411 3.71782 15.0754 3.84573C15.0942 3.91604 15.1704 3.88699 15.2778 3.76869ZM16.6147 4.43417C16.6478 4.42528 16.7001 4.36021 16.7309 4.28953C16.7617 4.21886 16.7218 4.17849 16.6423 4.19978C16.5628 4.22107 16.5105 4.28617 16.5261 4.34441C16.5417 4.40265 16.5815 4.44306 16.6147 4.43417Z" fill="#6AEDAB"/>
</svg>
