<svg width="41" height="94" viewBox="0 0 41 94" fill="none" xmlns="http://www.w3.org/2000/svg">
<path fill-rule="evenodd" clip-rule="evenodd" d="M38.3544 48.1634C38.3619 47.9447 38.3392 47.6996 38.3038 47.6186C38.2685 47.5375 38.3101 47.4581 38.3962 47.4419C38.5966 47.4043 38.7059 47.013 38.5293 46.9657C38.4482 46.9439 38.485 46.842 38.623 46.706C38.8009 46.5309 38.8246 46.4099 38.7323 46.1494C38.6438 45.8991 38.6581 45.8168 38.7896 45.8177C38.9231 45.8186 38.9446 45.7459 38.8799 45.5118C38.8221 45.3021 38.8461 45.1941 38.9559 45.1708C39.0443 45.1522 39.1794 44.9392 39.256 44.6976C39.3655 44.3522 39.3401 44.2059 39.137 44.0132C38.995 43.8784 38.943 43.7853 39.0212 43.8062C39.1783 43.8483 39.5934 42.6464 39.4978 42.4271C39.4653 42.3527 39.5355 41.9887 39.6535 41.6181C39.8357 41.0461 39.8325 40.8943 39.6322 40.6129C39.4489 40.3556 39.4398 40.2583 39.5917 40.1773C39.8734 40.0273 40.0289 39.1664 39.813 38.9519C39.6679 38.8078 39.6747 38.7531 39.8485 38.6603C40.0015 38.5789 40.0218 38.5231 39.9198 38.4654C39.8293 38.4142 39.8641 38.0556 40.0146 37.4867C40.1453 36.9929 40.2259 36.3009 40.1937 35.949C40.1614 35.597 40.1929 35.156 40.2635 34.9689C40.3343 34.7819 40.3444 34.5524 40.2863 34.4591C40.228 34.3658 40.2032 34.1957 40.2311 34.0812C40.3371 33.6458 40.3263 32.969 40.2094 32.7191C40.1425 32.5761 40.1439 32.2647 40.2125 32.0273C40.281 31.7897 40.2989 31.4881 40.2522 31.357C40.2054 31.2257 40.1841 30.8804 40.2047 30.5894C40.2253 30.2984 40.1878 30.0458 40.1211 30.0279C40.0546 30.0101 40.0228 29.9108 40.0506 29.8074C40.0783 29.7038 40.0362 29.4923 39.957 29.3375C39.8777 29.1826 39.8701 28.9908 39.9402 28.9113C40.0101 28.8317 39.9909 28.5434 39.8975 28.2706C39.7913 27.9607 39.7862 27.7636 39.8837 27.7453C39.9786 27.7275 40.0043 27.655 39.9491 27.56C39.8993 27.4742 39.7716 26.9543 39.6654 26.4047C39.5594 25.8551 39.3848 25.2561 39.2777 25.0735C39.1704 24.891 39.1351 24.6822 39.1988 24.6097C39.2782 24.5194 39.2188 24.452 39.0105 24.3962C38.7827 24.3352 38.7504 24.2908 38.8825 24.2201C39.0054 24.1542 39.0356 23.9814 38.9819 23.6509C38.9396 23.3898 38.9072 23.164 38.91 23.1492C38.9128 23.1344 38.7769 23.0844 38.6082 23.0383C38.3867 22.9777 38.3591 22.943 38.5088 22.9134C38.6819 22.8792 38.6961 22.8268 38.5949 22.5977C38.5281 22.4466 38.4347 22.3126 38.3871 22.2998C38.3398 22.2871 38.3145 22.0634 38.3312 21.8025C38.3753 21.1125 38.1939 20.3187 37.9788 20.2611C37.8764 20.2336 37.8111 20.1421 37.8337 20.0578C37.8563 19.9734 37.7565 19.7359 37.612 19.5302C37.4674 19.3242 37.3921 19.1241 37.4447 19.0853C37.4972 19.0465 37.4371 18.8977 37.3111 18.7547C37.1849 18.6119 37.1108 18.3864 37.1464 18.2537C37.1854 18.1081 37.1284 17.9903 37.0028 17.9567C36.8884 17.926 36.7682 17.7661 36.7358 17.6014C36.7034 17.4367 36.5681 17.272 36.4351 17.2354C36.256 17.1861 36.2452 17.1585 36.3936 17.1292C36.5532 17.0975 36.5623 17.0085 36.4382 16.6897C36.3524 16.4696 36.2056 16.2688 36.1119 16.2432C36.018 16.2178 35.9669 16.1016 35.9981 15.9851C36.0293 15.8686 36.0057 15.7602 35.9455 15.744C35.8854 15.7279 35.7594 15.4643 35.6654 15.1582C35.5715 14.8522 35.4323 14.5851 35.3562 14.5647C35.2802 14.5443 35.2371 14.4562 35.2605 14.3688C35.2841 14.2806 35.1817 14.1774 35.03 14.1368C34.8783 14.0962 34.7758 13.993 34.7995 13.9048C34.8229 13.8174 34.7806 13.7295 34.7055 13.7094C34.6304 13.6893 34.5848 13.6132 34.6041 13.5404C34.6566 13.3425 34.0297 12.416 33.971 12.6046C33.9441 12.6911 33.8894 12.5743 33.8494 12.3451C33.8095 12.1159 33.648 11.746 33.4907 11.5231C33.3334 11.3001 33.2157 11.0771 33.229 11.0273C33.2423 10.9776 33.1627 10.9127 33.052 10.883C32.9413 10.8533 32.7977 10.6725 32.7329 10.4811C32.6682 10.2897 32.3834 9.87148 32.1001 9.55169C31.8169 9.23191 31.5989 8.91871 31.6158 8.8557C31.6544 8.71148 31.0075 7.95207 30.7972 7.89481C30.7112 7.8713 30.5752 7.68347 30.4949 7.47742C30.4148 7.27129 30.1996 7.02966 30.0168 6.94041C29.8341 6.85127 29.6985 6.72652 29.7155 6.6632C29.7653 6.47726 29.1923 5.76308 28.9388 5.69514C28.8107 5.66083 28.6896 5.55178 28.6697 5.45282C28.65 5.3539 28.5315 5.24555 28.4066 5.21207C28.2815 5.17856 28.1016 5.04104 28.0067 4.90633C27.771 4.57192 27.3492 4.2478 27.0432 4.16581C26.9034 4.12835 26.6766 3.96862 26.5391 3.81078C26.4015 3.65304 26.2014 3.52635 26.0946 3.52926C25.9763 3.53253 25.927 3.46576 25.9691 3.3589C26.0751 3.08925 25.7917 2.99812 25.5358 3.21964C25.4104 3.32824 25.3557 3.34807 25.4139 3.26356C25.5052 3.13131 25.2214 2.65623 25.0187 2.6019C24.9804 2.59166 24.727 2.38959 24.4556 2.15288C24.0463 1.79603 23.9117 1.73194 23.6692 1.77841C23.4594 1.81866 23.3352 1.7889 23.2303 1.67328C23.0736 1.50055 22.6209 1.46347 22.579 1.61987C22.5651 1.67186 22.498 1.6995 22.43 1.68128C22.3618 1.66303 22.3639 1.56143 22.4343 1.45545C22.5203 1.3263 22.4953 1.24481 22.3585 1.20815C22.2462 1.17808 22.0977 1.06235 22.0283 0.951031C21.9178 0.7739 21.8522 0.763343 21.5011 0.866525C21.0636 0.995232 20.5719 0.918291 20.6226 0.729172C20.6455 0.643508 20.5962 0.62892 20.446 0.677091C20.3314 0.713794 20.1119 0.681324 19.9584 0.604893C19.5871 0.420044 19.1399 0.608351 19.1812 0.932089C19.1998 1.07883 19.295 1.17368 19.42 1.17029C19.5357 1.16713 19.6108 1.22801 19.5895 1.30775C19.548 1.46256 19.1454 1.47464 18.8887 1.3287C18.8014 1.27907 18.7481 1.17094 18.7702 1.08845C18.8214 0.89753 18.6013 0.83346 18.4573 0.997342C18.3971 1.06566 18.4451 1.23173 18.5639 1.36638C18.7995 1.63345 19.1705 1.77896 19.2129 1.62076C19.2451 1.50078 19.8234 1.67129 19.901 1.82361C19.9313 1.88304 20.0961 1.99258 20.2675 2.06697C20.4388 2.14148 20.6118 2.28884 20.6518 2.39434C20.692 2.49988 20.8945 2.63176 21.1018 2.6873C21.3411 2.75143 21.6078 2.95453 21.8322 3.24359C22.0845 3.56848 22.3198 3.7373 22.6531 3.83237C23.0035 3.93251 23.108 4.01216 23.071 4.15126C23.0262 4.32027 23.144 4.41506 23.3887 4.40661C23.4404 4.4048 23.5038 4.51769 23.5296 4.65728C23.5657 4.85173 23.6624 4.92112 23.9427 4.95341C24.214 4.98457 24.2968 5.03979 24.2628 5.16665C24.2376 5.26089 24.2784 5.35433 24.3535 5.37445C24.4286 5.39458 24.4709 5.48251 24.4474 5.56987C24.424 5.65723 24.4707 5.74634 24.5511 5.76789C24.6317 5.78948 24.7736 5.90741 24.8667 6.02994C24.9863 6.18752 25.0872 6.23125 25.2114 6.17907C25.4764 6.0677 25.6284 6.14574 25.5276 6.34163C25.4753 6.44328 25.5233 6.53909 25.6426 6.57106C25.7552 6.60125 25.858 6.73094 25.8711 6.85927C25.884 6.98756 25.9692 7.09983 26.0604 7.1086C26.1514 7.11743 26.209 7.18782 26.1884 7.26501C26.1677 7.34221 26.2699 7.55287 26.4154 7.73318C26.6625 8.03896 26.6881 8.04913 26.7972 7.88359C26.8785 7.76045 26.8959 7.79382 26.8544 7.99279C26.8125 8.19344 26.9395 8.43154 27.2778 8.78719C28.0034 9.54963 28.1611 9.788 28.0647 9.97633C28.007 10.0889 28.0789 10.187 28.2751 10.2636C28.455 10.3335 28.5535 10.4534 28.5235 10.5655C28.4949 10.6723 28.6673 10.8982 28.9297 11.0975C29.1804 11.288 29.3819 11.4914 29.3771 11.5495C29.3465 11.9244 29.4851 12.2308 29.7679 12.4134C29.9472 12.5292 30.1421 12.6285 30.2009 12.6341C30.2597 12.6399 30.3014 12.7066 30.2932 12.7825C30.2851 12.8583 30.28 12.9719 30.2819 13.0348C30.2838 13.0977 30.2685 13.24 30.2481 13.3511C30.221 13.4975 30.2898 13.5578 30.4987 13.5707C30.7278 13.5849 30.7727 13.6407 30.7184 13.8434C30.6808 13.9835 30.7199 14.1168 30.8051 14.1397C31.0058 14.1934 31.4284 14.7972 31.5808 15.2478C31.6465 15.4417 31.7871 15.6538 31.8933 15.719C31.9994 15.7844 32.0612 15.9318 32.0304 16.0467C31.9997 16.1614 32.0156 16.2908 32.0659 16.3339C32.1162 16.377 32.1939 16.2093 32.2386 15.9613C32.3113 15.5584 32.33 15.5404 32.4143 15.7928C32.4793 15.9875 32.5919 16.077 32.7764 16.0807C33.104 16.0875 33.0898 16.2008 32.7404 16.3681C32.501 16.4828 32.5026 16.5252 32.7604 16.8648C32.9154 17.0689 32.9779 17.2187 32.8993 17.1976C32.7128 17.1477 32.6365 17.4369 32.8102 17.5352C32.8839 17.5769 32.9371 17.7103 32.9283 17.8317C32.9184 17.9696 33.0179 18.0806 33.1938 18.1277C33.5847 18.2325 33.6732 18.3894 33.4179 18.5255C33.2743 18.6021 33.2525 18.6542 33.3527 18.681C33.4354 18.7032 33.5099 18.8508 33.518 19.009C33.5261 19.1673 33.6183 19.3196 33.7227 19.3476C33.8438 19.3801 33.8812 19.5165 33.8257 19.7236C33.7412 20.0391 34.1004 20.9458 34.4721 21.3553C34.5699 21.463 34.6081 21.582 34.5572 21.6196C34.5061 21.6572 34.542 21.8909 34.6367 22.1387C34.7314 22.3866 34.7776 22.5811 34.7394 22.5708C34.5979 22.5329 34.9505 23.3703 35.1605 23.571C35.2802 23.6854 35.3286 23.8155 35.2682 23.8601C35.2076 23.9049 35.2026 24.0149 35.2568 24.1047C35.311 24.1945 35.3411 24.494 35.3236 24.7702C35.3062 25.0465 35.3924 25.4898 35.5151 25.7555C35.638 26.0211 35.7124 26.3363 35.6803 26.4559C35.6483 26.5755 35.6762 26.8777 35.7424 27.1275C35.8086 27.3774 35.8393 27.6207 35.8104 27.6684C35.7815 27.716 35.8583 27.8959 35.9809 28.0682C36.1423 28.2948 36.1594 28.4501 36.0426 28.6304C35.9392 28.7899 35.9363 28.9872 36.0343 29.1789C36.1185 29.3436 36.1325 29.6837 36.0652 29.9347C35.9857 30.2315 36.0054 30.4293 36.1218 30.5008C36.22 30.5612 36.3165 30.6902 36.3359 30.7875C36.3557 30.8858 36.3197 30.9201 36.2551 30.8646C36.1891 30.8082 36.155 30.8455 36.176 30.9511C36.1966 31.0535 36.3132 31.1681 36.4355 31.2057C36.5577 31.2433 36.589 31.2777 36.5053 31.282C36.3246 31.2915 36.1773 32.149 36.3485 32.1948C36.4134 32.2122 36.4091 32.2915 36.339 32.3713C36.2318 32.4932 36.2473 32.9144 36.3999 34.0245C36.4333 34.2674 36.3954 34.635 36.2532 35.4474C36.1864 35.8281 36.1835 36.1848 36.2465 36.2401C36.3554 36.3356 36.3206 36.612 36.0443 37.8447C35.9783 38.1391 35.9729 38.4273 36.0324 38.4851C36.0918 38.5429 36.1014 38.8008 36.0537 39.0582C36.006 39.3157 35.9627 39.5556 35.9575 39.5912C35.9523 39.6269 36.0607 39.83 36.1983 40.0423C36.4077 40.3656 36.4123 40.4435 36.2266 40.5215C36.1047 40.5728 35.9427 40.598 35.8666 40.5776C35.6715 40.5253 35.4454 42.0546 35.6018 42.3685C35.6923 42.55 35.6722 42.6636 35.5281 42.7863C35.4144 42.8829 35.3279 43.1301 35.3248 43.3668C35.3217 43.5935 35.0257 44.9515 34.6668 46.3847C34.3081 47.8179 33.9901 49.0993 33.9601 49.2324C33.9303 49.3656 34.0148 49.618 34.148 49.7934L34.3903 50.1126L34.0576 50.0615C33.7606 50.0158 33.7226 50.0528 33.7029 50.4061C33.6908 50.6237 33.7612 50.9191 33.8594 51.0626C34.0285 51.3094 34.0233 51.3194 33.7617 51.2493C33.537 51.1891 33.4615 51.2485 33.3581 51.5667C33.0594 52.486 32.9663 53.0091 33.0715 53.1778C33.155 53.3115 33.1185 53.3855 32.93 53.4647C32.615 53.5971 32.0504 55.5616 32.2713 55.7568C32.3581 55.8334 32.3208 55.854 32.1675 55.8141C31.9109 55.7471 31.7793 56.0384 31.8694 56.4735C31.9017 56.6291 31.8446 56.7338 31.7077 56.7707C31.5915 56.802 31.3848 57.1042 31.2484 57.4421C31.1121 57.7801 30.9403 58.1933 30.8667 58.3604C30.7931 58.5275 30.786 58.7097 30.8509 58.7653C30.9242 58.8282 30.8854 58.9039 30.7484 58.9657C30.4905 59.0819 30.1869 59.8248 30.3767 59.8756C30.4479 59.8947 30.3647 60.0602 30.1919 60.2436C30.0191 60.4269 29.8522 60.759 29.8209 60.9816C29.7798 61.2742 29.72 61.3591 29.6052 61.2885C29.464 61.2018 29.3151 61.3914 29.3051 61.6708C29.3032 61.7233 29.1211 62.032 28.9004 62.3568C28.6798 62.6818 28.4193 63.1815 28.3216 63.4674C28.2239 63.7533 28.078 64.0717 27.9971 64.1749C27.8807 64.3236 27.9407 64.4323 28.2866 64.6988C28.6389 64.9704 28.6772 65.0421 28.4858 65.0704C28.3553 65.0898 28.1955 65.0602 28.1305 65.0045C28.0655 64.9489 27.9974 64.9597 27.979 65.0284C27.9537 65.1227 27.907 65.1113 27.7897 64.982C27.6667 64.8464 27.6032 64.8562 27.4866 65.0288C27.2575 65.3677 27.2683 65.4187 27.5704 65.4249C27.8084 65.4297 27.8367 65.4802 27.7537 65.75C27.6729 66.0128 27.5986 66.0542 27.3349 65.9836C26.8622 65.8569 26.3463 66.1117 26.3643 66.4629C26.3725 66.6225 26.2373 66.9047 26.0583 67.1014C25.8197 67.3637 25.769 67.4951 25.8601 67.615C25.9512 67.735 25.8908 67.8112 25.6242 67.9127C25.3517 68.0165 25.2564 68.1405 25.2265 68.4303C25.2036 68.6505 25.1104 68.8269 25.0053 68.8484C24.9052 68.8688 24.7014 69.0317 24.552 69.2101C24.3231 69.4838 24.3074 69.5611 24.4514 69.7035C24.5813 69.8321 24.5762 69.8916 24.4299 69.9531C24.3242 69.9975 24.1647 70.0143 24.0753 69.9903C23.8424 69.9279 23.1103 70.6694 22.8533 71.2282C22.733 71.4898 22.5263 71.7756 22.394 71.8634C22.2618 71.951 22.135 72.0924 22.1121 72.1775C22.0893 72.2627 21.8748 72.513 21.6353 72.7338C21.3587 72.9887 21.1466 73.3321 21.054 73.6744C20.9423 74.087 20.8607 74.1982 20.706 74.1486C20.5815 74.1086 20.4572 74.1912 20.3827 74.3634C20.316 74.5172 20.2107 74.6294 20.1487 74.6128C19.9945 74.5715 19.3842 75.2584 19.3018 75.566C19.265 75.7032 19.1269 75.8501 18.9948 75.8925C18.7329 75.9763 18.5715 76.3465 18.7733 76.4006C18.8421 76.419 18.9453 76.3829 19.0028 76.3202C19.067 76.2501 19.0928 76.2765 19.0698 76.3885C19.0493 76.4887 18.8242 76.606 18.5696 76.6492C18.315 76.6923 18.1204 76.7962 18.1373 76.8802C18.154 76.9641 18.1144 77.0185 18.0492 77.001C17.9838 76.9835 17.8898 77.1464 17.8401 77.3629C17.7895 77.5838 17.6727 77.756 17.5742 77.7551C17.4777 77.7542 17.382 77.8152 17.3618 77.8906C17.3416 77.966 17.2171 78.0622 17.085 78.1046C16.9529 78.1469 16.8209 78.271 16.7916 78.3803C16.7623 78.4897 16.5826 78.6446 16.3923 78.7245C16.1694 78.8182 16.0445 78.9649 16.041 79.1371C16.0381 79.2841 15.9619 79.4081 15.8718 79.4125C15.7621 79.418 15.7604 79.4705 15.8669 79.5717C16.0012 79.6992 15.9942 79.7252 15.8222 79.7386C15.6657 79.7508 15.6539 79.7792 15.7715 79.8613C15.8891 79.9434 15.8691 79.9914 15.6857 80.0686C15.5542 80.1238 15.4586 80.26 15.4732 80.3714C15.4936 80.5266 15.4778 80.532 15.4058 80.3947C15.3268 80.2439 15.2871 80.2333 15.1541 80.3272C15.0672 80.3886 14.9707 80.5087 14.9396 80.594C14.9086 80.6793 14.8516 80.8301 14.8133 80.929C14.7749 81.0279 14.6512 81.0842 14.5386 81.054C14.396 81.0158 14.304 81.1103 14.2359 81.3644C14.1766 81.5856 14.0439 81.7438 13.8998 81.7652C13.7688 81.7847 13.6273 81.8719 13.5853 81.9589C13.5434 82.046 13.4101 82.1699 13.2892 82.2345C13.1682 82.299 13.082 82.4526 13.0977 82.5758C13.1145 82.7081 13.0263 82.8318 12.8825 82.8779C12.7484 82.9209 12.6175 83.0335 12.5916 83.1281C12.5657 83.2229 12.3842 83.4105 12.1881 83.5452C11.9921 83.68 11.809 83.8735 11.7813 83.9753C11.7534 84.077 11.6823 84.1474 11.6233 84.1316C11.5163 84.1029 11.3945 84.3357 11.2629 84.8202C11.2246 84.9608 11.0725 85.1339 10.9247 85.2047C10.7768 85.2755 10.6781 85.3844 10.7052 85.4467C10.7324 85.5089 10.6171 85.5947 10.449 85.6372C10.281 85.6797 10.1287 85.7696 10.1107 85.837C10.0926 85.9044 9.96978 85.9941 9.8377 86.0365C9.52809 86.1357 9.46014 86.3893 9.72421 86.46C9.83685 86.4902 9.94178 86.4672 9.95739 86.409C9.97299 86.3508 10.0415 86.318 10.1095 86.3363C10.1775 86.3545 10.1319 86.4661 10.0082 86.5843C9.84142 86.7435 9.74609 86.7585 9.64058 86.6421C9.56216 86.5557 9.48054 86.525 9.45914 86.5738C9.43777 86.6224 9.35213 86.8382 9.26888 87.0533C9.1049 87.4775 8.81685 87.6923 8.51947 87.6126C8.41597 87.5849 8.3181 87.6115 8.30195 87.6718C8.28578 87.7321 8.13392 87.8778 7.9645 87.9956C7.79492 88.1135 7.62361 88.2777 7.58368 88.3606C7.54375 88.4435 7.42697 88.5271 7.32435 88.5463C7.22159 88.5656 7.155 88.6683 7.17618 88.7744C7.20031 88.8946 7.1001 88.9895 6.91067 89.0258C6.74331 89.0578 6.5854 89.1626 6.55964 89.2588C6.53334 89.357 6.35535 89.4226 6.15363 89.4087C5.9561 89.3949 5.77466 89.4576 5.75046 89.5479C5.71131 89.6941 5.68834 89.6886 5.54415 89.4987C5.45492 89.3811 5.39558 89.2339 5.41232 89.1714C5.42903 89.1091 5.37963 89.0411 5.30262 89.0205C5.22302 88.9992 5.29109 88.8702 5.46049 88.7213C5.67449 88.5333 5.73493 88.394 5.67524 88.2262C5.62942 88.098 5.64295 87.9715 5.70512 87.9454C5.76729 87.9193 5.74102 87.8317 5.64654 87.7506C5.49755 87.6229 5.50355 87.6027 5.69175 87.5977C5.8736 87.593 5.96299 87.3451 6.2445 86.0657C6.42917 85.2263 6.54375 84.4601 6.49905 84.3631C6.44676 84.2497 6.49368 84.1718 6.63071 84.1448C6.80037 84.1113 6.80712 84.0927 6.66371 84.0528C6.56468 84.0253 6.42036 83.9195 6.34302 83.8176C6.22772 83.6657 6.25626 83.6029 6.50195 83.4681C6.74285 83.3358 6.80307 83.2088 6.80975 82.8185C6.8145 82.5517 6.82525 82.297 6.83369 82.2524C6.84213 82.2078 6.7568 82.1466 6.64416 82.1165C6.53151 82.0863 6.45252 82.0125 6.4686 81.9524C6.48472 81.8923 6.5974 81.8404 6.719 81.8371C6.98159 81.8299 7.05588 81.6416 6.88498 81.4165C6.74188 81.228 6.30501 81.3549 6.28272 81.5915C6.25195 81.9193 6.14516 81.9979 5.86017 81.902C5.15889 81.6661 4.94493 81.6563 4.98619 81.8622C5.01671 82.0143 4.97548 82.0316 4.81617 81.9337C4.69063 81.8566 4.59107 81.8562 4.56935 81.9329C4.54935 82.0037 4.46711 82.1588 4.38681 82.2777C4.27926 82.4366 4.29908 82.5095 4.46129 82.553C4.71293 82.6204 4.70465 82.7671 4.43659 82.9952C4.29022 83.1199 4.30477 83.1792 4.50671 83.2797C4.64707 83.3496 4.74703 83.462 4.7289 83.5297C4.70893 83.6042 4.59598 83.5976 4.44166 83.5126C4.24143 83.4025 4.19589 83.4151 4.22745 83.5726C4.24952 83.6825 4.18132 83.7885 4.07606 83.8083C3.97083 83.828 3.82784 84.0143 3.75832 84.2224C3.65848 84.5212 3.6826 84.6142 3.87335 84.6653C4.20268 84.7535 4.10464 85.0271 3.75136 85.0053C3.49354 84.9893 3.4527 85.0615 3.31679 85.773C3.21491 86.3067 3.08238 86.6325 2.90339 86.7899C2.67946 86.9866 2.65684 87.0715 2.75293 87.3541C2.81516 87.5369 2.81883 87.674 2.76121 87.6586C2.70359 87.6431 2.64521 87.7807 2.63144 87.9643C2.61767 88.1478 2.68504 88.3191 2.78117 88.3449C3.0425 88.4149 3.05771 88.7306 2.8 88.7377C2.48435 88.7464 2.4292 88.7212 2.55729 88.6266C2.6224 88.5786 2.56849 88.5471 2.42755 88.551C2.23427 88.5563 2.21771 88.5853 2.3441 88.6975C2.47319 88.8121 2.45953 88.8467 2.26863 88.8885C2.07525 88.9308 2.0629 88.9638 2.1959 89.0818C2.30396 89.1777 2.30231 89.2341 2.19074 89.2551C2.09966 89.2722 1.98945 89.4405 1.94603 89.6293C1.90248 89.818 1.83943 90.0162 1.80594 90.0697C1.67959 90.2714 1.73544 90.3579 1.94803 90.2898C2.12459 90.2332 2.15447 90.2703 2.09908 90.477C2.05539 90.6401 1.93081 90.7287 1.76008 90.7181C1.38866 90.6952 1.36886 90.8909 1.72696 91.0466L2.02186 91.1748L1.71079 91.1069C1.28801 91.0146 1.11462 91.5301 1.53093 91.6416C1.68112 91.6819 1.79243 91.758 1.7783 91.8107C1.76414 91.8636 1.64681 91.8541 1.51757 91.7898C1.23288 91.648 0.853263 91.8266 0.846613 92.1054C0.843951 92.2169 0.966568 92.3917 1.11902 92.494C1.27148 92.5962 1.37661 92.7266 1.35256 92.7835C1.24215 93.0454 1.30509 93.1464 1.68236 93.313C2.0035 93.4547 2.15175 93.4563 2.39914 93.3206C2.67928 93.167 2.75157 93.1741 3.10759 93.3905C3.4592 93.6042 3.54458 93.6143 3.86236 93.4808C4.05943 93.398 4.34084 93.3767 4.48773 93.4336C4.68702 93.5108 4.71428 93.4997 4.59557 93.39C4.48448 93.2874 4.48784 93.2333 4.60694 93.211C4.70076 93.1935 4.80091 93.0917 4.82953 92.9849C4.88934 92.7617 5.17462 92.7314 5.7545 92.8868C5.97801 92.9467 6.14034 92.9482 6.11493 92.8901C6.06345 92.772 6.62466 92.5525 6.83438 92.6087C6.90866 92.6286 6.98681 92.58 7.00803 92.5008C7.03382 92.4045 7.15445 92.4032 7.37064 92.497C7.61883 92.6046 7.80556 92.579 8.16824 92.3876C9.0587 91.918 9.55818 91.7383 9.68064 91.8433C9.84627 91.9854 10.5549 91.8252 10.6061 91.6341C10.6309 91.5416 10.7216 91.5269 10.8356 91.5969C10.9609 91.6739 11.0432 91.6472 11.0811 91.5173C11.1714 91.2076 11.5684 91.0399 11.9618 91.1453C12.29 91.2332 12.3128 91.2182 12.2087 90.9829C12.1081 90.755 12.1525 90.7044 12.5757 90.5647C12.8405 90.4773 13.2756 90.3896 13.5424 90.3699C14.0868 90.3295 14.1806 90.2147 13.8706 89.9686C13.5667 89.7271 13.8447 89.6661 14.4498 89.8415C14.8512 89.9579 14.9651 89.9532 14.9389 89.8218C14.9175 89.715 15.0201 89.6576 15.2111 89.6694C15.3798 89.6797 15.5342 89.6268 15.5543 89.5517C15.578 89.4634 15.4768 89.4067 15.268 89.3913L14.9452 89.3673L15.3287 89.23C15.8514 89.0428 16.275 89.0641 16.3889 89.2835C16.4568 89.4145 16.4809 89.3961 16.4788 89.2147C16.4766 89.0371 16.5252 88.9973 16.65 89.0741C16.7459 89.1331 16.8394 89.1248 16.8579 89.0557C16.8764 88.9867 17.1902 88.8114 17.5551 88.6662C17.9201 88.5211 18.2245 88.3386 18.2318 88.2607C18.2799 87.7451 18.4038 87.6508 18.8701 87.7757C19.2611 87.8805 19.333 87.8652 19.3212 87.6793C19.3117 87.5286 19.437 87.4308 19.7145 87.372C19.9385 87.3247 20.1487 87.3214 20.1816 87.3646C20.2569 87.4637 20.7719 87.251 21.0906 86.9891C21.331 86.7913 21.3773 86.736 21.4645 86.5415C21.4896 86.4858 21.6329 86.4732 21.7831 86.5134C21.9384 86.555 22.0751 86.5159 22.1 86.4228C22.1241 86.3328 22.3496 86.2271 22.601 86.1882C23.1588 86.1018 23.2324 85.9287 22.801 85.7181C22.6231 85.6313 22.4973 85.4864 22.5214 85.3963C22.5524 85.2807 22.6403 85.2736 22.8197 85.3723C23.0092 85.4766 23.0649 85.4674 23.0387 85.3363C22.9812 85.0497 22.5212 84.8866 22.2757 85.0658C22.1559 85.1535 21.9702 85.2016 21.8632 85.173C21.756 85.1442 21.6999 85.1622 21.7384 85.213C21.8162 85.3155 20.7134 85.6512 20.4841 85.5947C20.3364 85.5583 19.6863 86.1463 19.6261 86.3708C19.608 86.4386 19.6928 86.5208 19.8146 86.5534C19.996 86.602 19.9978 86.6333 19.8236 86.7261C19.7067 86.7884 19.5109 86.8133 19.3885 86.7814C19.1981 86.7319 19.1911 86.7455 19.3402 86.8759C19.4362 86.9597 19.4571 87.0523 19.3869 87.082C19.2281 87.1486 19.0612 86.7982 19.2021 86.6941C19.2971 86.6239 19.0888 86.3646 18.8918 86.3079C18.8444 86.2942 18.7483 86.3696 18.678 86.4753C18.6077 86.5809 18.4277 86.6707 18.2781 86.6747C17.8554 86.686 17.4112 86.9627 17.3967 87.2235C17.3866 87.406 17.3298 87.433 17.1467 87.342C17.0164 87.2771 16.9213 87.1808 16.9355 87.128C16.9496 87.0752 16.7825 87.0698 16.5641 87.1159C16.3183 87.1679 16.2165 87.2424 16.2971 87.3115C16.5356 87.516 16.1748 87.7209 15.7259 87.6361C15.326 87.5605 15.2712 87.5887 15.1361 87.9388C14.9987 88.2954 14.9679 88.3099 14.7336 88.1298C14.5149 87.9618 14.4855 87.9637 14.5215 88.1431C14.5533 88.3023 14.5085 88.3242 14.3315 88.2361C14.046 88.0939 13.6506 88.2583 13.6989 88.4991C13.722 88.6149 13.6026 88.68 13.3565 88.6861C12.8823 88.698 12.6738 88.5388 12.9622 88.3851C13.0793 88.3227 13.2243 88.1235 13.2843 87.9425C13.4615 87.4086 13.4988 87.3579 13.679 87.4062C13.8437 87.4503 14.3715 86.8661 14.4578 86.5441C14.4806 86.4587 14.5989 86.3741 14.7204 86.356C14.8485 86.3369 15.0218 86.1174 15.1326 85.8335C15.2376 85.5643 15.3686 85.3252 15.4235 85.3021C15.4783 85.279 15.4886 85.163 15.4462 85.0442C15.3813 84.862 15.4195 84.8499 15.6913 84.9678C15.8856 85.052 16.0267 85.058 16.0468 84.983C16.0652 84.9144 16.0108 84.8714 15.9261 84.8873C15.5183 84.9637 15.9062 84.6218 16.6036 84.29C16.8084 84.1927 17.3092 83.5165 17.3497 83.2826C17.4425 82.7479 17.6208 82.4473 17.8144 82.4992C17.9295 82.5301 18.084 82.482 18.1579 82.3926C18.2319 82.3033 18.3886 82.1793 18.5064 82.1172C18.624 82.0551 18.7785 81.8666 18.8497 81.6984C18.9208 81.5302 19.1326 81.2629 19.3204 81.1044C19.5082 80.9458 19.6491 80.7154 19.6335 80.5924C19.6176 80.4678 19.6695 80.386 19.7507 80.4077C19.8309 80.4292 19.9283 80.3277 19.9673 80.1821C20.0064 80.0365 20.1034 79.9348 20.1829 79.9561C20.2623 79.9774 20.3021 79.9366 20.2711 79.8654C20.2401 79.7943 20.3785 79.6319 20.5786 79.5048C20.7788 79.3775 20.9565 79.2212 20.9736 79.1574C20.9907 79.0936 21.0661 79.0578 21.1412 79.0779C21.2163 79.0981 21.3071 79.0049 21.343 78.871C21.3789 78.737 21.4752 78.5968 21.557 78.5595C21.6388 78.522 21.9708 78.1306 22.2949 77.6894C22.7621 77.0535 22.8589 76.8456 22.7624 76.6863C22.6654 76.5261 22.6729 76.5124 22.7993 76.6184C22.987 76.7761 23.5527 76.5555 23.521 76.3369C23.5095 76.2574 23.6711 76.0658 23.88 75.9115C24.0891 75.7571 24.2954 75.4988 24.3386 75.3374C24.3819 75.176 24.5225 75.0154 24.651 74.9805C24.7796 74.9457 24.9329 74.8279 24.9918 74.7188C25.0508 74.6098 25.1527 74.4583 25.2183 74.3823C25.6207 73.9159 25.7927 73.6148 25.7791 73.4001C25.7692 73.2463 25.8617 73.1306 26.0292 73.0871C26.1761 73.049 26.3413 72.8671 26.3988 72.6806C26.4558 72.495 26.5612 72.3588 26.6329 72.378C26.7046 72.3972 26.7483 72.3379 26.7298 72.2462C26.7115 72.1545 26.8495 72.0089 27.0365 71.9226C27.28 71.8101 27.3775 71.6746 27.3797 71.4448C27.3817 71.2308 27.4494 71.1222 27.5833 71.1186C27.6937 71.1155 27.9792 70.7916 28.2178 70.3987C28.4563 70.0058 28.7716 69.6002 28.9184 69.4974C29.0652 69.3945 29.1639 69.2611 29.1377 69.201C29.1115 69.141 29.2238 68.9702 29.3875 68.8216C29.6788 68.557 29.8374 67.9512 29.7322 67.5055C29.6921 67.3352 29.7522 67.3123 30.0381 67.3889C30.2636 67.4493 30.4097 67.426 30.4367 67.3254C30.4601 67.238 30.5307 67.1804 30.5936 67.1972C30.6566 67.2141 30.7625 67.0578 30.8292 66.85C30.8959 66.6421 31.0341 66.4274 31.1365 66.3728C31.3496 66.2592 31.6236 65.7544 31.7212 65.295C31.7579 65.1224 31.868 64.9662 31.9657 64.9479C32.0635 64.9296 32.2391 64.6662 32.356 64.3628C32.6657 63.5588 32.6994 63.4203 32.6588 63.1191C32.6301 62.9052 32.6828 62.851 32.9061 62.8647C33.1969 62.8827 33.201 62.8753 33.6653 61.5512C33.8531 61.0154 33.9946 60.7716 34.1581 60.7029C34.2212 60.6765 34.332 60.434 34.4043 60.1641C34.4766 59.8943 34.6058 59.6438 34.6915 59.6074C34.8193 59.5532 35.0558 58.8966 35.2673 58.0083C35.2883 57.9203 35.4291 57.6516 35.5801 57.4111C35.9882 56.7619 36.1929 56.1749 36.0775 55.9854C36.0201 55.8912 36.0452 55.7484 36.1347 55.6602C36.348 55.4497 36.9312 53.4605 36.7907 53.4228C36.7298 53.4065 36.8009 53.2833 36.9486 53.1492C37.1148 52.9983 37.2741 52.6403 37.3662 52.2111C37.5203 51.4932 37.4769 51.1726 37.2318 51.2185C37.154 51.2331 37.1466 51.1809 37.2155 51.1025C37.2845 51.024 37.4033 50.9767 37.4795 50.9971C37.5595 51.0185 37.5643 50.9477 37.4908 50.8299C37.3873 50.6638 37.4013 50.6356 37.566 50.6798C37.7324 50.7244 37.8013 50.5777 37.9521 49.8576C38.053 49.3755 38.1124 48.9506 38.0842 48.9133C38.0558 48.8761 38.1021 48.7816 38.1867 48.7033C38.2714 48.6248 38.3469 48.382 38.3544 48.1634ZM24.8961 84.8791C24.882 84.7973 24.6745 84.6837 24.435 84.6268C24.142 84.5572 24.0842 84.5643 24.2584 84.6485C24.4009 84.7173 24.5825 84.844 24.6621 84.9299C24.831 85.1122 24.9323 85.0902 24.8961 84.8791ZM32.4228 55.5437C32.3477 55.5236 32.2998 55.4566 32.3163 55.395C32.3328 55.3334 32.3999 55.3288 32.4654 55.3849C32.5308 55.441 32.5788 55.5079 32.5719 55.5336C32.565 55.5593 32.4979 55.5638 32.4228 55.5437ZM24.079 85.1992C23.8117 85.1276 23.4441 85.2299 23.4018 85.3876C23.3884 85.4376 23.4641 85.4619 23.5703 85.4414C23.6763 85.421 23.8503 85.4263 23.957 85.4532C24.2543 85.5283 24.3744 85.2784 24.079 85.1992ZM36.7955 36.7101C36.7596 36.6627 36.7792 36.57 36.8391 36.5043C36.9053 36.4314 36.9309 36.4652 36.9044 36.5903C36.8804 36.7035 36.8314 36.7574 36.7955 36.7101ZM23.7017 84.8144C23.6363 84.7583 23.5628 84.7867 23.5385 84.8775C23.5142 84.9682 23.5557 85.059 23.6308 85.0791C23.7059 85.0993 23.7793 85.0709 23.794 85.0161C23.8087 84.9612 23.7672 84.8705 23.7017 84.8144ZM36.6619 34.7756C36.5912 34.7567 36.5462 34.6936 36.5618 34.6353C36.5774 34.5771 36.686 34.5551 36.803 34.5865C36.92 34.6178 36.9652 34.681 36.9031 34.7268C36.8411 34.7726 36.7326 34.7946 36.6619 34.7756ZM38.0568 29.3613C38.0236 29.3524 37.9714 29.2873 37.9406 29.2167C37.9097 29.146 37.9497 29.1056 38.0291 29.1269C38.1086 29.1482 38.161 29.2133 38.1454 29.2715C38.1298 29.3298 38.09 29.3702 38.0568 29.3613ZM36.7838 28.7549C36.6977 28.7004 36.781 28.6969 36.9688 28.7472C37.1565 28.7975 37.2268 28.8421 37.1252 28.8463C37.0233 28.8506 36.8697 28.8094 36.7838 28.7549ZM36.0565 27.2364C35.9814 27.2163 35.9433 27.1167 35.9717 27.0151C36.0159 26.8572 36.0366 26.8586 36.1133 27.0247C36.2263 27.2691 36.2231 27.2811 36.0565 27.2364ZM22.1788 75.0579C22.0029 74.8262 22.237 74.7835 22.426 75.0129C22.5152 75.1214 22.5227 75.2107 22.4426 75.2118C22.3627 75.2131 22.244 75.1438 22.1788 75.0579ZM35.7622 25.058C35.6774 25.0739 35.6217 25.0363 35.6382 24.9747C35.6547 24.9131 35.7297 24.879 35.8047 24.8991C35.8798 24.9193 35.9357 24.9567 35.9288 24.9824C35.9219 25.0082 35.8469 25.0421 35.7622 25.058ZM18.0406 87.0995C17.928 87.0693 17.8486 86.997 17.8642 86.9387C17.8798 86.8805 17.9847 86.8576 18.0974 86.8877C18.21 86.9179 18.2894 86.9903 18.2738 87.0485C18.2582 87.1067 18.1533 87.1297 18.0406 87.0995ZM12.0923 89.3644C12.0172 89.3443 11.9614 89.3068 11.9683 89.2811C11.9752 89.2554 12.0501 89.2214 12.1349 89.2056C12.2196 89.1897 12.2754 89.2272 12.2589 89.2888C12.2424 89.3505 12.1674 89.3845 12.0923 89.3644ZM5.339 86.9874C5.22636 86.9572 5.14696 86.8849 5.16256 86.8266C5.17817 86.7684 5.2831 86.7454 5.39575 86.7756C5.50839 86.8058 5.58779 86.8781 5.57218 86.9364C5.55657 86.9946 5.45164 87.0176 5.339 86.9874ZM26.6942 6.22864C26.661 6.21974 26.6088 6.15468 26.578 6.084C26.5472 6.01332 26.5871 5.97295 26.6666 5.99425C26.746 6.01554 26.7984 6.08064 26.7828 6.13888C26.7672 6.19712 26.7274 6.23752 26.6942 6.22864ZM4.75915 87.513C4.6465 87.4828 4.56711 87.4104 4.58271 87.3522C4.59832 87.294 4.50868 87.2189 4.38347 87.1853C4.25841 87.1518 4.20201 87.105 4.25825 87.0814C4.40667 87.019 5.02464 87.3413 4.99179 87.464C4.97647 87.5211 4.87179 87.5431 4.75915 87.513ZM5.16832 83.5413C5.05577 83.283 5.23307 83.1861 5.41609 83.4058C5.51301 83.522 5.51008 83.6121 5.4082 83.657C5.30385 83.7029 5.22144 83.6631 5.16832 83.5413ZM5.13592 84.5377C4.90395 84.6121 4.48955 84.423 4.53259 84.2623C4.54652 84.2103 4.65009 84.1925 4.76273 84.2227C4.87538 84.2528 4.98825 84.2002 5.01356 84.1058C5.05127 83.9651 5.09023 83.9677 5.22909 84.1206C5.43914 84.352 5.41785 84.4473 5.13592 84.5377ZM3.16311 91.4121C3.05734 91.2716 3.07627 91.2637 3.25546 91.3733C3.37942 91.4492 3.43934 91.5286 3.38855 91.55C3.33789 91.5714 3.23642 91.5093 3.16311 91.4121ZM5.34833 82.4468C5.02697 82.3577 5.01198 82.3367 5.24282 82.2988C5.39082 82.2746 5.56494 82.3003 5.62993 82.356C5.82902 82.5267 5.74013 82.5553 5.34833 82.4468ZM4.12427 85.754C3.96971 85.7126 3.89387 85.6412 3.9559 85.5954C4.01793 85.5496 4.15713 85.5358 4.2654 85.5648C4.37368 85.5938 4.44939 85.6652 4.43378 85.7234C4.41817 85.7816 4.27883 85.7954 4.12427 85.754ZM3.27494 88.1367C3.1623 88.1065 3.08889 88.0118 3.11182 87.9263C3.13718 87.8316 3.2271 87.8161 3.34196 87.8866C3.44561 87.9503 3.51902 88.045 3.50509 88.097C3.49116 88.149 3.38759 88.1669 3.27494 88.1367ZM25.1461 3.76869C25.0514 3.66433 25.0078 3.56471 25.0493 3.54721C25.1637 3.49922 25.3827 3.71782 25.3485 3.84573C25.3296 3.91604 25.2534 3.88699 25.1461 3.76869ZM23.8092 4.43417C23.776 4.42528 23.7238 4.36021 23.6929 4.28953C23.6621 4.21886 23.7021 4.17849 23.7815 4.19978C23.861 4.22107 23.9134 4.28617 23.8978 4.34441C23.8822 4.40265 23.8423 4.44306 23.8092 4.43417Z" fill="#6AEDAB"/>
</svg>
