<svg width="80" height="81" viewBox="0 0 80 81" fill="none" xmlns="http://www.w3.org/2000/svg">
<g clip-path="url(#clip0_725_977)">
<path fill-rule="evenodd" clip-rule="evenodd" d="M11.1612 35.128C9.95236 35.4567 9.20236 36.6629 9.44232 37.8924L16.5932 74.5318C16.8592 75.8946 18.2265 76.7448 19.5664 76.3805L50.8625 67.871C52.0714 67.5423 52.8214 66.3361 52.5814 65.1066L51.623 60.1959C51.357 58.833 49.9897 57.9829 48.6498 58.3472L24.6625 64.8694L20.3466 42.7559L42.0879 36.8445L43.2191 42.6403L34.9387 44.8917C33.7298 45.2204 32.9798 46.4266 33.2198 47.6562L34.1782 52.5669C34.4442 53.9297 35.8115 54.7799 37.1514 54.4156L68.4475 45.9061C69.6564 45.5774 70.4064 44.3712 70.1664 43.1417L63.0155 6.50231C62.7495 5.13949 61.3822 4.28933 60.0423 4.65365L24.0195 14.4483C22.8107 14.777 22.0607 15.9832 22.3006 17.2127L25.0596 31.349L11.1612 35.128ZM34.513 28.7786L47.184 25.3333C48.5239 24.969 49.8912 25.8192 50.1572 27.182L52.6725 40.0699L59.2621 38.2782L54.9462 16.1648L33.2049 22.0762L34.513 28.7786Z" fill="url(#paint0_linear_725_977)"/>
</g>
<defs>
<linearGradient id="paint0_linear_725_977" x1="14.3792" y1="75.3721" x2="14.7644" y2="2.05954" gradientUnits="userSpaceOnUse">
<stop stop-color="#3FE6DC"/>
<stop offset="0.52863" stop-color="#76D742"/>
<stop offset="1" stop-color="#DBF53C"/>
</linearGradient>
<clipPath id="clip0_725_977">
<rect width="80" height="80" fill="white" transform="translate(0 0.818115)"/>
</clipPath>
</defs>
</svg>
