<svg width="66" height="60" viewBox="0 0 66 60" fill="none" xmlns="http://www.w3.org/2000/svg">
<path d="M55.1204 59.0389H24.9148C21.2037 59.0389 18.1973 56.0324 18.1973 52.3213C18.1973 48.6102 21.2037 45.6038 24.9148 45.6038H55.1204C58.8315 45.6038 61.8379 48.6102 61.8379 52.3213C61.8379 56.0324 58.8315 59.0389 55.1204 59.0389Z" fill="url(#paint0_linear_725_968)"/>
<path opacity="0.3" d="M63.9103 32.7273C63.3044 34.948 61.5327 36.8019 59.1594 37.4691L29.9929 45.1424C26.4289 46.0691 22.7252 43.9387 21.7984 40.3748C20.8717 36.8109 23.0021 33.1071 26.566 32.1804L55.7326 24.5071C59.2966 23.5803 63.0003 25.7108 63.927 29.2747C64.2318 30.4778 64.207 31.6396 63.9103 32.7273Z" fill="#6AEDAB"/>
<path d="M6.39662 39.0502C5.37454 38.5744 4.42884 37.8232 3.74969 36.8334C1.62706 33.8242 2.34976 29.6007 5.40148 27.4979L30.0957 10.1843C33.1048 8.06165 37.3283 8.78437 39.4311 11.8361C41.5538 14.8452 40.831 19.0687 37.7793 21.1715L13.0851 38.4852C11.0856 39.886 8.52595 40.0416 6.39662 39.0502Z" fill="url(#paint1_linear_725_968)"/>
<defs>
<linearGradient id="paint0_linear_725_968" x1="18.1973" y1="51.5749" x2="33.947" y2="30.6161" gradientUnits="userSpaceOnUse">
<stop stop-color="#3FE6DC"/>
<stop offset="0.52863" stop-color="#76D742"/>
<stop offset="1" stop-color="#DBF53C"/>
</linearGradient>
<linearGradient id="paint1_linear_725_968" x1="9.60007" y1="16.3195" x2="36.6371" y2="20.3627" gradientUnits="userSpaceOnUse">
<stop stop-color="#3FE6DC"/>
<stop offset="0.52863" stop-color="#76D742"/>
<stop offset="1" stop-color="#DBF53C"/>
</linearGradient>
</defs>
</svg>
