<svg width="63" height="65" viewBox="0 0 63 65" fill="none" xmlns="http://www.w3.org/2000/svg">
<path d="M62.5637 45.37L53.4629 26.4718C52.9985 25.4967 53.8808 24.4288 54.9023 24.6609L59.3598 25.6825C60.0563 25.8218 60.7528 25.4039 60.8921 24.7074L62.2387 18.9033C62.378 18.2068 61.9601 17.5103 61.2636 17.371L40.7867 12.6813C39.7188 12.4491 39.4402 11.1026 40.2759 10.4061L43.8513 7.57367C44.4085 7.10934 44.5013 6.31998 44.037 5.76279L40.3224 1.1195C39.8581 0.562311 39.0687 0.469446 38.5115 0.933774L22.1207 14.0278C21.2849 14.7243 20.0312 14.1207 20.0312 13.0063V8.40946C20.0312 7.71296 19.4741 7.10934 18.7311 7.10934H12.7877C12.0912 7.10934 11.4876 7.66653 11.4876 8.40946V29.3971C11.4876 30.465 10.2339 31.0687 9.39813 30.4186L5.82281 27.5862C5.26561 27.1219 4.47625 27.2147 4.01192 27.7719L0.297297 32.4152C-0.167031 32.9724 -0.0741609 33.7618 0.483033 34.2261L16.8738 47.3201C17.7096 48.0166 17.431 49.3632 16.3631 49.5954L11.9055 50.6169C11.209 50.7562 10.7911 51.4527 10.9304 52.1492L12.277 57.9533C12.4163 58.6497 13.1128 59.0676 13.8092 58.9283L34.2861 54.2386C35.3541 54.0065 36.1899 55.0744 35.7255 56.0495L33.7289 60.182C33.4039 60.8321 33.6825 61.575 34.3326 61.9001L39.7188 64.5003C40.3688 64.8253 41.1117 64.5467 41.4368 63.8967L50.5376 44.9985C51.0019 44.0234 52.3949 44.0234 52.8592 44.9985L54.8558 49.131C55.1809 49.7811 55.9238 50.0597 56.5739 49.7347L61.9601 47.1344C62.6101 46.763 62.8423 46.02 62.5637 45.37ZM43.4798 39.8909L38.5579 50.1526C38.0472 51.2669 36.422 51.0812 36.1434 49.874L35.3541 46.5308C35.2148 45.8343 34.5183 45.4164 33.8218 45.5557L22.7244 48.1095C21.5171 48.3881 20.6813 46.9951 21.4242 46.0665L23.5601 43.3734C24.0245 42.8162 23.9316 42.0268 23.3744 41.5625L14.4593 34.4583C13.4842 33.7153 14.0414 32.1366 15.2487 32.1366H18.6847C19.3812 32.1366 19.9848 31.5794 19.9848 30.8365V19.4605C19.9848 18.2532 21.5171 17.696 22.3064 18.6711L24.4888 21.3178C24.9531 21.875 25.7425 21.9678 26.2997 21.5035L35.1683 14.4457C36.1434 13.7028 37.49 14.5386 37.2114 15.7458L36.422 19.089C36.2827 19.7855 36.7006 20.482 37.3971 20.6213L48.4946 23.1751C49.7018 23.4537 49.8875 25.0788 48.7731 25.5896L45.6622 27.0754C45.0121 27.4005 44.7335 28.1434 45.0585 28.7935L49.9804 39.0551C50.4912 40.1695 49.3768 41.3303 48.2624 40.7731L45.1514 39.2873C44.5478 39.0087 43.8048 39.2408 43.4798 39.8909Z" fill="url(#paint0_linear_725_962)"/>
<defs>
<linearGradient id="paint0_linear_725_962" x1="-1.15772e-06" y1="29.0809" x2="53.9883" y2="7.41923" gradientUnits="userSpaceOnUse">
<stop stop-color="#3FE6DC"/>
<stop offset="0.52863" stop-color="#76D742"/>
<stop offset="1" stop-color="#DBF53C"/>
</linearGradient>
</defs>
</svg>
