<svg width="37" height="37" viewBox="0 0 37 37" fill="none" xmlns="http://www.w3.org/2000/svg">
<path d="M17.5932 0.368092L1.06267 8.09101C0.950882 8.14227 0.856181 8.22458 0.789841 8.32813C0.7235 8.43169 0.688316 8.55213 0.688477 8.67511C0.688638 8.79809 0.724136 8.91844 0.790747 9.02182C0.857358 9.1252 0.952275 9.20726 1.0642 9.25823L17.7246 16.9246C18.2166 17.1507 18.7849 17.1507 19.2768 16.9246L35.9372 9.25823C36.0492 9.20741 36.1443 9.12547 36.211 9.02217C36.2778 8.91888 36.3134 8.79858 36.3137 8.6756C36.3141 8.55262 36.279 8.43213 36.2128 8.32849C36.1466 8.22485 36.052 8.14242 35.9403 8.09101L19.4082 0.368092C19.1241 0.235318 18.8143 0.166504 18.5007 0.166504C18.1871 0.166504 17.8773 0.235318 17.5932 0.368092Z" fill="url(#paint0_linear_229_344)"/>
<path opacity="0.3" d="M35.9401 18.005L32.5255 16.41C32.281 16.2957 32.0145 16.2362 31.7446 16.2354C31.4747 16.2346 31.2078 16.2926 30.9626 16.4054L19.2766 21.7832C19.0332 21.8951 18.7684 21.9531 18.5005 21.9531C18.2326 21.9531 17.9678 21.8951 17.7244 21.7832L6.0369 16.4054C5.7919 16.2928 5.52534 16.2349 5.25571 16.2357C4.98608 16.2365 4.71985 16.296 4.47552 16.41L1.06093 18.005C0.94921 18.0564 0.854617 18.1388 0.788411 18.2425C0.722206 18.3461 0.68718 18.4666 0.687502 18.5896C0.687824 18.7126 0.72348 18.8329 0.790227 18.9362C0.856974 19.0395 0.951999 19.1214 1.06399 19.1722L17.7244 26.8371C17.9677 26.9496 18.2325 27.0079 18.5005 27.0079C18.7685 27.0079 19.0334 26.9496 19.2766 26.8371L35.937 19.1722C36.049 19.1214 36.1441 19.0395 36.2108 18.9362C36.2776 18.8329 36.3132 18.7126 36.3135 18.5896C36.3139 18.4666 36.2788 18.3461 36.2126 18.2425C36.1464 18.1388 36.0518 18.0564 35.9401 18.005Z" fill="#6AEDAB"/>
<path d="M35.9394 27.8314L32.5248 26.2364C32.2803 26.1221 32.0138 26.0625 31.7439 26.0617C31.474 26.0609 31.2071 26.119 30.9619 26.2318L19.2759 31.608C19.0325 31.72 18.7678 31.7779 18.4998 31.7779C18.2319 31.7779 17.9671 31.72 17.7237 31.608L6.03622 26.2303C5.79122 26.1177 5.52465 26.0598 5.25502 26.0606C4.98539 26.0613 4.71916 26.1208 4.47483 26.2348L1.06024 27.8314C0.948953 27.883 0.854785 27.9654 0.788895 28.0689C0.723006 28.1723 0.688157 28.2925 0.688479 28.4152C0.6888 28.5379 0.72428 28.6579 0.790711 28.761C0.857142 28.8641 0.951741 28.9461 1.0633 28.9971L17.7237 36.6635C18.2157 36.8896 18.784 36.8896 19.2759 36.6635L35.9364 28.9971C36.0479 28.9461 36.1425 28.8641 36.209 28.761C36.2754 28.6579 36.3109 28.5379 36.3112 28.4152C36.3115 28.2925 36.2766 28.1723 36.2108 28.0689C36.1449 27.9654 36.0507 27.883 35.9394 27.8314Z" fill="url(#paint1_linear_229_344)"/>
<defs>
<linearGradient id="paint0_linear_229_344" x1="0.688476" y1="7.68993" x2="21.123" y2="-9.92868" gradientUnits="userSpaceOnUse">
<stop stop-color="#3FE6DC"/>
<stop offset="0.52863" stop-color="#76D742"/>
<stop offset="1" stop-color="#DBF53C"/>
</linearGradient>
<linearGradient id="paint1_linear_229_344" x1="0.688476" y1="30.8483" x2="13.2524" y2="13.8275" gradientUnits="userSpaceOnUse">
<stop stop-color="#3FE6DC"/>
<stop offset="0.52863" stop-color="#76D742"/>
<stop offset="1" stop-color="#DBF53C"/>
</linearGradient>
</defs>
</svg>
