<svg width="45" height="41" viewBox="0 0 45 41" fill="none" xmlns="http://www.w3.org/2000/svg">
<path d="M43.767 0.69992C43.4003 0.333253 42.667 0.333252 42.117 0.333252L31.667 3.44992V40.2999L43.217 36.9999C43.9503 36.8166 44.5003 36.0833 44.5003 35.1666V2.16659C44.5003 1.61659 44.317 1.06659 43.767 0.69992Z" fill="url(#paint0_linear_243_365)"/>
<path opacity="0.3" d="M28 3.44971L19.278 1.2692C18.1209 0.979927 17 1.85508 17 3.0478V37.5497L25.722 39.7302C26.8791 40.0195 28 39.1443 28 37.9516V3.44971Z" fill="#6AEDAB"/>
<path d="M13.3333 0.699707L1.78333 3.99971C1.05 4.36637 0.5 5.09971 0.5 5.83304V38.833C0.5 39.383 0.683333 39.933 1.23333 40.2997C1.6 40.483 1.96667 40.6664 2.33333 40.6664H2.88333L13.3333 37.5497V0.699707Z" fill="url(#paint1_linear_243_365)"/>
<defs>
<linearGradient id="paint0_linear_243_365" x1="31.667" y1="18.0962" x2="44.282" y2="16.4367" gradientUnits="userSpaceOnUse">
<stop stop-color="#3FE6DC"/>
<stop offset="0.52863" stop-color="#76D742"/>
<stop offset="1" stop-color="#DBF53C"/>
</linearGradient>
<linearGradient id="paint1_linear_243_365" x1="0.5" y1="18.4627" x2="13.115" y2="16.8032" gradientUnits="userSpaceOnUse">
<stop stop-color="#3FE6DC"/>
<stop offset="0.52863" stop-color="#76D742"/>
<stop offset="1" stop-color="#DBF53C"/>
</linearGradient>
</defs>
</svg>
