<svg width="46" height="45" viewBox="0 0 46 45" fill="none" xmlns="http://www.w3.org/2000/svg">
<path d="M37.57 12.2911L27.111 1.80369C26.5573 1.23301 25.8946 0.779304 25.1623 0.469476C24.43 0.159647 23.643 0 22.8478 0C22.0527 0 21.2656 0.159647 20.5333 0.469476C19.801 0.779304 19.1383 1.23301 18.5846 1.80369L8.09726 12.2911L22.791 19.6237L37.57 12.2911ZM41.583 16.5258L43.6578 18.6006C44.232 19.1522 44.6889 19.8142 45.001 20.5468C45.3131 21.2794 45.4739 22.0674 45.4739 22.8637C45.4739 23.66 45.3131 24.4481 45.001 25.1807C44.6889 25.9133 44.232 26.5753 43.6578 27.1269L26.9442 44.0053C26.5481 44.4105 26.087 44.7467 25.58 45V24.5406L41.583 16.5258ZM3.89093 16.5258L1.81619 18.6006C1.24194 19.1522 0.785061 19.8142 0.472968 20.5468C0.160874 21.2794 0 22.0674 0 22.8637C0 23.66 0.160874 24.4481 0.472968 25.1807C0.785061 25.9133 1.24194 26.5753 1.81619 27.1269L18.5316 44.0053C18.9295 44.4107 19.3899 44.748 19.8958 45V24.5406L3.89093 16.5258Z" fill="url(#paint0_linear_262_180)"/>
<defs>
<linearGradient id="paint0_linear_262_180" x1="-8.39925e-07" y1="20" x2="38.8204" y2="3.9285" gradientUnits="userSpaceOnUse">
<stop stop-color="#3FE6DC"/>
<stop offset="0.52863" stop-color="#76D742"/>
<stop offset="1" stop-color="#DBF53C"/>
</linearGradient>
</defs>
</svg>
