<svg width="120" height="40" viewBox="0 0 120 40" fill="none" xmlns="http://www.w3.org/2000/svg">
<path fill-rule="evenodd" clip-rule="evenodd" d="M52.6122 39.8762C52.3418 39.8136 52.049 39.7053 51.9612 39.6354C51.8735 39.5655 51.7625 39.5904 51.7144 39.6906C51.6026 39.9237 51.0873 39.9293 51.0873 39.6973C51.0873 39.5908 50.9503 39.6024 50.7384 39.7268C50.4654 39.8873 50.3094 39.8767 50.0204 39.6781C49.7429 39.4875 49.6373 39.478 49.5952 39.6393C49.5525 39.8032 49.4564 39.8057 49.1908 39.6496C48.9529 39.5099 48.8126 39.5038 48.7481 39.6307C48.6962 39.7329 48.391 39.8285 48.0697 39.843C47.6106 39.8638 47.4397 39.7848 47.2702 39.4726C47.1517 39.2544 47.0546 39.1601 47.0546 39.2628C47.0546 39.469 45.4457 39.583 45.2084 39.3939C45.1279 39.3297 44.6588 39.2962 44.166 39.3191C43.4054 39.3546 43.2204 39.3008 42.9415 38.963C42.6863 38.6539 42.5701 38.6109 42.421 38.7704C42.1447 39.0663 41.0389 38.9741 40.8469 38.6392C40.718 38.4142 40.6487 38.4045 40.478 38.587C40.328 38.7477 40.253 38.7543 40.2158 38.6103C40.1827 38.4827 39.7319 38.4075 38.9855 38.4052C38.3376 38.4032 37.4632 38.2748 37.0426 38.1197C36.6219 37.9646 36.0713 37.8585 35.8189 37.8836C35.5665 37.9089 35.282 37.8459 35.1867 37.7441C35.0915 37.6421 34.8912 37.5558 34.7417 37.5524C34.1735 37.5393 33.3478 37.3039 33.08 37.0787C32.9268 36.9498 32.5448 36.8492 32.2313 36.8553C31.9178 36.8612 31.5423 36.7841 31.397 36.6839C31.2516 36.5834 30.8355 36.4439 30.4721 36.3737C30.1088 36.3034 29.8116 36.1745 29.8116 36.087C29.8116 35.9996 29.7004 35.9281 29.5645 35.9281C29.4285 35.9281 29.1832 35.8071 29.0196 35.6591C28.8557 35.5112 28.6233 35.4389 28.5028 35.4987C28.3824 35.5582 28.0355 35.44 27.7319 35.236C27.387 35.0041 27.1472 34.9331 27.0928 35.0466C27.0398 35.1571 26.9425 35.1648 26.8443 35.066C26.7554 34.9767 26.1604 34.6496 25.5219 34.3391C24.8833 34.0287 24.2067 33.6181 24.0181 33.427C23.8297 33.2356 23.5855 33.1238 23.4757 33.1781C23.339 33.2457 23.276 33.1508 23.276 32.8772C23.276 32.5781 23.2322 32.524 23.1021 32.6626C22.9812 32.7915 22.7595 32.7718 22.3721 32.5975C22.0662 32.46 21.8002 32.3461 21.7811 32.3447C21.7621 32.3432 21.7454 32.1603 21.7443 31.9385C21.7427 31.6472 21.7092 31.602 21.6238 31.7757C21.5251 31.9766 21.4563 31.9767 21.2088 31.7775C21.0455 31.6461 20.912 31.4876 20.912 31.4252C20.912 31.363 20.6461 31.2586 20.321 31.1934C19.4611 31.0209 18.5481 30.538 18.5481 30.2556C18.5481 30.1211 18.4574 30.011 18.3467 30.011C18.2359 30.011 17.9776 29.8107 17.7729 29.5662C17.5681 29.3214 17.3476 29.1634 17.2828 29.2151C17.218 29.2667 17.0554 29.1443 16.9216 28.9429C16.788 28.7414 16.536 28.5766 16.3618 28.5766C16.1706 28.5766 16.045 28.4681 16.045 28.3031C16.045 28.1529 15.8886 27.9531 15.6974 27.8593C15.5062 27.7656 15.3488 27.5457 15.3477 27.3707C15.346 27.1351 15.3158 27.1129 15.2311 27.285C15.1399 27.4703 15.0278 27.4521 14.678 27.1954C14.4366 27.018 14.2387 26.7722 14.2381 26.649C14.2377 26.5257 14.1122 26.4249 13.9592 26.4249C13.8062 26.4249 13.6811 26.3604 13.6811 26.2813C13.6811 26.2024 13.3995 25.9614 13.0553 25.7457C12.7112 25.5302 12.4296 25.272 12.4296 25.1721C12.4296 25.0722 12.3357 24.9905 12.221 24.9905C12.1051 24.9905 12.0124 24.8311 12.0124 24.6319C12.0124 24.4326 11.9196 24.2732 11.8038 24.2732C11.6891 24.2732 11.5952 24.1926 11.5952 24.0939C11.5952 23.9953 11.5171 23.9145 11.4214 23.9143C11.1618 23.9136 10.2323 22.8413 10.4828 22.8313C10.5975 22.8268 10.4723 22.7214 10.2047 22.5971C9.93698 22.473 9.53678 22.1537 9.31526 21.8878C9.09374 21.6219 8.85915 21.4044 8.7938 21.4044C8.72844 21.4044 8.67504 21.2855 8.67504 21.1401C8.67504 20.9946 8.50067 20.7594 8.28735 20.6172C8.07418 20.475 7.6552 19.9887 7.35637 19.5367C7.05754 19.0847 6.74536 18.7148 6.66262 18.7148C6.47322 18.7148 5.75513 17.6728 5.75402 17.3963C5.75347 17.2832 5.56796 17.055 5.34186 16.8889C5.11561 16.7231 4.8902 16.38 4.84084 16.1269C4.79161 15.8737 4.68329 15.6666 4.60013 15.6666C4.35595 15.6666 3.66901 14.7301 3.66901 14.3971C3.66901 14.2289 3.57515 14.0448 3.46042 13.9879C3.3457 13.9313 3.25184 13.7505 3.25184 13.5865C3.25184 13.4222 3.1424 13.1567 3.00849 12.9962C2.67615 12.5976 2.4175 11.9743 2.4175 11.5725C2.4175 11.3889 2.29624 11.0586 2.14801 10.8383C1.99991 10.6179 1.91036 10.3312 1.94902 10.2012C1.99185 10.0574 1.92621 9.97508 1.78146 9.99158C1.41629 10.0328 1.39766 9.65574 1.75309 9.41493C1.92733 9.29695 1.9696 9.23634 1.84695 9.27991C1.65492 9.34841 1.16599 8.84474 1.16599 8.57847C1.16599 8.52826 1.00163 8.15137 0.800691 7.74112C0.497826 7.12251 0.463479 6.93657 0.600033 6.65471C0.718231 6.41085 0.722541 6.24894 0.615329 6.08236C0.455136 5.83367 0.558316 5.26688 0.763702 5.26688C0.831979 5.26688 0.887879 5.19372 0.887879 5.10443C0.887879 5.01496 0.762729 4.98412 0.609767 5.03558C0.423292 5.09851 0.331654 5.04114 0.331654 4.86147C0.331654 4.71408 0.238625 4.49408 0.125016 4.37251C-0.0557578 4.17904 -0.0471363 4.09512 0.194544 3.69886C0.495879 3.20505 0.563043 2.5773 0.314688 2.5773C0.202192 2.5773 0.200523 2.51204 0.308848 2.34385C0.391448 2.21546 0.423709 1.93593 0.380462 1.72273C0.275892 1.20705 0.65343 0.720955 1.03653 0.877846C1.21021 0.948853 1.29518 1.0966 1.24998 1.24865C1.20813 1.3894 1.25805 1.50147 1.36276 1.50147C1.56606 1.50147 1.71304 1.01215 1.61848 0.649769C1.58636 0.526409 1.47136 0.425636 1.36304 0.425636C1.11232 0.425636 1.10606 0.134987 1.35414 0.0123405C1.45759 -0.0389404 1.64532 0.074379 1.7713 0.264084C2.02119 0.640446 2.07765 1.14286 1.8699 1.14286C1.71234 1.14286 1.7314 1.90742 1.89256 2.05247C1.95542 2.10913 2.03551 2.34708 2.07042 2.58143C2.10546 2.81578 2.22922 3.07613 2.34533 3.15986C2.46144 3.24378 2.55656 3.53515 2.55656 3.80733C2.55656 4.12165 2.71786 4.51505 2.99834 4.88496C3.31358 5.30077 3.44318 5.6445 3.45027 6.08398C3.45792 6.54623 3.52119 6.70042 3.70377 6.70079C3.92557 6.70132 4.00302 6.87686 3.91236 7.17379C3.89317 7.23655 4.01067 7.35131 4.17323 7.42877C4.39961 7.53689 4.45287 7.67818 4.40045 8.03213C4.34955 8.37478 4.39002 8.49438 4.55661 8.49438C4.68037 8.49438 4.78146 8.57506 4.78146 8.67368C4.78146 8.7723 4.87532 8.85299 4.99005 8.85299C5.10477 8.85299 5.19863 8.93941 5.19863 9.04502C5.19863 9.15081 5.29653 9.36347 5.41611 9.51767C5.56991 9.71598 5.59035 9.85405 5.48564 9.98907C5.26218 10.2772 5.30793 10.489 5.58104 10.4298C5.72273 10.3991 5.82438 10.4893 5.82438 10.646C5.82438 10.794 5.94954 10.9625 6.1025 11.0206C6.25546 11.0785 6.36504 11.2198 6.34585 11.3344C6.3268 11.4488 6.3941 11.5426 6.49547 11.5426C6.59684 11.5426 6.82142 11.7369 6.99454 11.9745C7.28809 12.3776 7.29213 12.4124 7.05351 12.4916C6.87593 12.5508 6.91111 12.5831 7.1685 12.5976C7.42812 12.6121 7.67815 12.8459 8.00284 13.3772C8.69882 14.5165 8.93911 14.788 9.20151 14.7317C9.35836 14.698 9.45501 14.8183 9.48435 15.0838C9.51105 15.3272 9.62549 15.4873 9.77275 15.4873C9.91306 15.4873 10.1332 15.7727 10.2913 16.1597C10.4423 16.5294 10.6254 16.843 10.6982 16.8563C11.1676 16.9418 11.4975 17.2122 11.6283 17.6187C11.7113 17.8763 11.769 18.1478 11.7567 18.2217C11.7444 18.2956 11.8124 18.3685 11.9081 18.3834C12.0036 18.3985 12.1445 18.4295 12.221 18.4525C12.2975 18.4754 12.4768 18.5034 12.6197 18.5149C12.8079 18.5297 12.8593 18.6339 12.8064 18.8941C12.7486 19.1794 12.8022 19.2527 13.0684 19.2527C13.2524 19.2527 13.403 19.3443 13.403 19.4562C13.403 19.7198 14.004 20.4358 14.5061 20.7705C14.7221 20.9147 14.9358 21.1566 14.9808 21.3081C15.026 21.4596 15.1864 21.5837 15.3372 21.5837C15.488 21.5837 15.6412 21.6457 15.6775 21.7214C15.7138 21.7972 15.4828 21.8374 15.1643 21.8107C14.6468 21.7675 14.6186 21.7845 14.9002 21.9706C15.1174 22.1142 15.1901 22.2815 15.1341 22.5089C15.0348 22.9125 15.1783 22.9322 15.498 22.5591C15.7171 22.3034 15.7686 22.3194 16.1 22.7466C16.2992 23.0036 16.4622 23.1293 16.4622 23.0262C16.4622 22.7812 16.8417 22.7827 16.9051 23.0278C16.9319 23.1318 17.0779 23.2408 17.2295 23.2699C17.4018 23.303 17.5051 23.4613 17.5051 23.6923C17.5051 24.2056 17.6684 24.3656 17.919 24.0975C18.06 23.9467 18.1309 23.937 18.1309 24.0687C18.1309 24.1773 18.2873 24.317 18.4785 24.3789C18.6697 24.4407 18.8262 24.6037 18.8262 24.7409C18.8262 24.8999 18.9811 24.9905 19.2531 24.9905C19.6673 24.9905 20.6603 25.7283 21.0401 26.3182C21.1399 26.4733 21.2731 26.5592 21.336 26.5092C21.3988 26.459 21.6733 26.5796 21.9459 26.7771C22.2186 26.9745 22.4416 27.095 22.4416 27.0448C22.4416 26.859 23.3519 27.5658 23.5288 27.8891C23.6297 28.0733 23.7732 28.1753 23.8478 28.1159C23.9224 28.0564 24.0589 28.0863 24.1512 28.1823C24.2434 28.2782 24.6005 28.4134 24.9446 28.4826C25.2888 28.552 25.8037 28.8032 26.0889 29.0408C26.374 29.2786 26.7358 29.4731 26.893 29.4731C27.05 29.4731 27.4111 29.6065 27.6955 29.7697C27.9798 29.9328 28.268 30.0503 28.3358 30.0306C28.4037 30.0108 28.5989 30.164 28.7697 30.3707C28.9944 30.6429 29.1791 30.7148 29.4383 30.6309C29.6677 30.5566 29.9104 30.6178 30.1131 30.8009C30.2872 30.9581 30.6994 31.0868 31.0289 31.0868C31.4187 31.0868 31.6545 31.176 31.704 31.342C31.7458 31.4822 31.8722 31.6427 31.9849 31.6985C32.099 31.7549 32.1528 31.7221 32.1061 31.6248C32.0585 31.5254 32.1155 31.4958 32.2379 31.5563C32.3566 31.6151 32.4587 31.7956 32.4647 31.9577C32.4707 32.1198 32.5025 32.1695 32.5353 32.0684C32.6062 31.8501 33.7052 31.9511 33.7052 32.1759C33.7052 32.2611 33.8038 32.2819 33.9245 32.2222C34.109 32.1309 34.6201 32.2882 35.9301 32.8396C36.2168 32.9602 36.6796 33.0345 37.7217 33.127C38.2101 33.1702 38.6481 33.2837 38.6951 33.3791C38.7765 33.5439 39.1265 33.5919 40.7276 33.6581C41.11 33.6739 41.4648 33.7619 41.5161 33.8537C41.5675 33.9455 41.8803 34.042 42.2114 34.068C42.5425 34.0942 42.8507 34.1198 42.896 34.1252C42.9415 34.1306 43.1547 34.3299 43.3696 34.5682C43.697 34.931 43.791 34.9622 43.9476 34.7603C44.0503 34.6278 44.1344 34.4375 44.1344 34.3376C44.1344 34.0814 46.0823 34.3065 46.4157 34.601C46.6084 34.7716 46.7541 34.7843 46.9517 34.648C47.1075 34.5404 47.4387 34.5155 47.7298 34.5894C48.0086 34.66 49.7697 34.7432 51.6435 34.7741C53.5173 34.8051 55.1918 34.8361 55.3646 34.8431C55.5376 34.8503 55.8192 35.0368 55.9904 35.2575L56.3019 35.6591L56.3485 35.2347C56.39 34.8558 56.4479 34.8214 56.8872 34.9132C57.1578 34.9699 57.4967 35.1531 57.6402 35.3206C57.8871 35.6087 57.901 35.6057 57.901 35.2621C57.901 34.967 57.9987 34.894 58.4225 34.8718C59.6469 34.8076 60.3184 34.8653 60.4905 35.0497C60.627 35.1958 60.7296 35.1754 60.8885 34.9704C61.1541 34.6279 63.7466 34.5811 63.9131 34.9159C63.9785 35.0473 64.016 35.0084 64.0174 34.8074C64.0197 34.4711 64.4197 34.4054 64.9232 34.6588C65.1033 34.7493 65.2503 34.7138 65.3404 34.5582C65.417 34.426 65.8551 34.272 66.3139 34.2159C66.7728 34.1598 67.3355 34.085 67.5643 34.0497C67.7932 34.0144 68.0188 34.0655 68.0656 34.1632C68.1186 34.2736 68.2242 34.251 68.3449 34.1035C68.5719 33.8256 69.5818 33.6975 69.5818 33.9468C69.5818 34.0402 69.8119 33.9927 70.0934 33.8412C70.3747 33.6896 70.8363 33.5941 71.1193 33.6289C71.4913 33.6746 71.6151 33.6292 71.5662 33.4653C71.5063 33.2638 71.7875 33.1437 72.1332 33.2231C72.1981 33.238 72.6362 33.1162 73.1066 32.9525C73.5771 32.7888 74.2749 32.6337 74.6573 32.6079C75.0397 32.5821 75.4778 32.5078 75.6307 32.4426C75.8511 32.3488 75.9646 32.458 76.1776 32.9694C76.3947 33.4901 76.4699 33.5605 76.5676 33.3353C76.6342 33.1818 76.6503 32.9764 76.6034 32.8785C76.5566 32.7806 76.5922 32.7006 76.6824 32.7006C76.8063 32.7006 76.8076 32.6396 76.6877 32.4535C76.562 32.2582 76.5948 32.1837 76.8446 32.0974C77.335 31.928 77.394 31.9579 77.3023 32.3301C77.2302 32.6233 77.2827 32.6746 77.6405 32.6615C77.989 32.6488 78.0642 32.5713 78.0642 32.2251C78.0642 31.6043 78.5458 31.0558 78.9702 31.1932C79.163 31.2556 79.5532 31.1826 79.8529 31.0279C80.2527 30.8217 80.4303 30.8026 80.5473 30.9536C80.6644 31.1046 80.7776 31.0556 80.9895 30.7623C81.2062 30.4625 81.3893 30.3865 81.7542 30.4449C82.0316 30.4892 82.2783 30.4329 82.3392 30.3112C82.3971 30.1953 82.6635 29.999 82.9312 29.8746C83.3417 29.684 83.4415 29.6901 83.5688 29.9133C83.6836 30.1147 83.7583 30.1279 83.8817 29.9689C83.9708 29.8539 84.0436 29.6641 84.0436 29.5466C84.0436 29.2407 85.1925 28.5871 85.9615 28.4557C86.3215 28.3942 86.7397 28.2348 86.8906 28.1016C87.0413 27.9684 87.2563 27.8593 87.3681 27.8593C87.4799 27.8593 87.857 27.6786 88.2062 27.4577C88.6093 27.2026 89.0997 27.0553 89.5494 27.0543C90.0918 27.0528 90.2547 26.9894 90.2447 26.7835C90.2367 26.6178 90.3786 26.4927 90.6141 26.4579C90.8245 26.4267 90.9965 26.3345 90.9965 26.2531C90.9965 26.0507 92.0386 25.5284 92.4424 25.5284C92.6226 25.5284 92.848 25.4073 92.9433 25.2594C93.132 24.9661 93.6385 24.8899 93.6385 25.1549C93.6385 25.2453 93.5604 25.3598 93.4647 25.4097C93.3578 25.4653 93.3816 25.5056 93.5263 25.5142C93.6559 25.5219 93.8736 25.2847 94.01 24.9869C94.1464 24.6891 94.3376 24.4848 94.4349 24.5331C94.5323 24.5811 94.6119 24.5504 94.6119 24.4647C94.6119 24.3789 94.8424 24.3172 95.1239 24.3274C95.4112 24.338 95.6606 24.2514 95.6918 24.1303C95.7224 24.0118 95.8285 23.9146 95.9276 23.9146C96.0266 23.9146 96.1854 23.7936 96.2806 23.6457C96.3759 23.4977 96.5713 23.3767 96.7148 23.3767C96.8584 23.3767 97.1072 23.2075 97.2676 23.0005C97.4557 22.7581 97.6763 22.6532 97.8885 22.7056C98.0696 22.7502 98.2465 22.6975 98.2815 22.5887C98.3242 22.456 98.3891 22.4712 98.4781 22.6349C98.5902 22.8413 98.6244 22.8413 98.6973 22.6349C98.7636 22.4472 98.8023 22.442 98.8643 22.6131C98.9263 22.7841 98.9917 22.7753 99.1464 22.5759C99.2573 22.433 99.4556 22.3606 99.5872 22.4151C99.7707 22.4909 99.7825 22.4734 99.6379 22.3402C99.4791 22.1938 99.4791 22.1417 99.6379 22.0095C99.7416 21.9233 99.9204 21.8444 100.035 21.8343C100.15 21.8243 100.353 21.804 100.487 21.7895C100.621 21.775 100.73 21.6419 100.73 21.494C100.73 21.3068 100.876 21.2251 101.21 21.2251C101.501 21.2251 101.738 21.1144 101.812 20.9448C101.878 20.7908 102.032 20.6459 102.152 20.6231C102.273 20.6004 102.468 20.4777 102.587 20.3508C102.706 20.2236 102.922 20.1684 103.068 20.2281C103.225 20.2921 103.405 20.2247 103.509 20.0637C103.606 19.9134 103.786 19.7901 103.911 19.7894C104.036 19.7888 104.325 19.628 104.554 19.432C104.784 19.236 105.081 19.0752 105.215 19.0746C105.349 19.0739 105.458 19.0099 105.458 18.9325C105.458 18.7919 105.784 18.7191 106.42 18.7169C106.605 18.7162 106.867 18.5866 107.003 18.4288C107.138 18.2708 107.304 18.1856 107.371 18.2393C107.438 18.2931 107.581 18.1799 107.689 17.9879C107.796 17.796 107.956 17.6389 108.045 17.6389C108.133 17.6389 108.283 17.5179 108.379 17.37C108.602 17.0232 108.935 17.0232 108.935 17.37C108.935 17.5179 108.872 17.6389 108.796 17.6389C108.719 17.6389 108.657 17.7121 108.657 17.8014C108.657 17.8907 108.808 17.8715 108.994 17.7587C109.244 17.6067 109.293 17.4948 109.185 17.3273C109.105 17.2029 109.094 17.0928 109.161 17.0826C109.228 17.0723 109.52 17.0383 109.811 17.0069C110.385 16.9452 110.742 16.6628 110.742 16.2723C110.742 16.1364 110.807 16.0252 110.886 16.0252C110.966 16.0252 111.194 15.887 111.394 15.7181C111.594 15.549 111.851 15.393 111.966 15.3713C112.081 15.3496 112.222 15.2339 112.279 15.1145C112.336 14.9949 112.484 14.947 112.607 15.0078C112.746 15.0769 112.896 14.9852 113.002 14.765C113.096 14.5705 113.277 14.4115 113.403 14.4115C113.532 14.4115 113.671 14.2149 113.72 13.9632C113.768 13.7166 113.904 13.5149 114.023 13.5149C114.215 13.5149 114.216 13.485 114.03 13.246C113.915 13.098 113.755 12.977 113.673 12.977C113.591 12.977 113.524 12.8942 113.524 12.793C113.524 12.6885 113.343 12.7296 113.105 12.8883C112.805 13.0887 112.614 13.117 112.428 12.9888C112.286 12.8906 112.127 12.8657 112.074 12.9333C112.022 13.0009 111.923 12.9399 111.855 12.7975C111.747 12.573 111.72 12.5738 111.653 12.8027C111.587 13.024 111.254 13.0521 109.594 12.977C108.505 12.9277 107.528 12.8165 107.424 12.7299C107.303 12.6286 107.192 12.6605 107.114 12.8196C107.017 13.0165 106.992 13.0186 106.99 12.8298C106.989 12.6994 106.907 12.4879 106.807 12.3597C106.659 12.1685 106.573 12.1829 106.327 12.4396C106.086 12.6914 105.91 12.7235 105.43 12.6035C105.101 12.5218 104.786 12.4513 104.728 12.447C104.671 12.4427 104.624 12.3181 104.624 12.1701C104.624 12.0222 104.559 11.9012 104.481 11.9012C104.402 11.9012 104.301 12.0222 104.257 12.1701C104.162 12.4895 103.907 12.5187 103.687 12.2354C103.503 11.9982 103.802 11.5046 104.099 11.5549C104.511 11.6249 104.643 11.5198 104.619 11.1391C104.56 10.2024 104.618 9.93707 104.857 10.0552C105.033 10.1426 105.068 10.0977 105 9.87037C104.947 9.69124 104.979 9.56913 105.08 9.5677C105.174 9.56644 105.391 9.5166 105.563 9.45724C105.793 9.37763 105.876 9.42587 105.876 9.63888C105.876 9.96934 106.058 10.0074 106.425 9.75382C106.626 9.61539 106.694 9.65269 106.751 9.93312C106.791 10.128 106.895 10.2874 106.984 10.2874C107.082 10.2874 107.111 10.1469 107.058 9.92989C106.989 9.64838 107.019 9.59674 107.202 9.68711C107.329 9.75023 107.481 9.70146 107.54 9.57899C107.599 9.45653 107.874 9.34249 108.152 9.32564C108.551 9.30143 108.657 9.3615 108.657 9.61199C108.657 10.0445 109.024 10.0142 109.113 9.57415C109.178 9.25302 109.28 9.22666 110.197 9.29372C110.884 9.3441 111.327 9.2887 111.578 9.12105C111.893 8.91126 112.004 8.91144 112.319 9.12194C112.523 9.25822 112.689 9.3077 112.689 9.23204C112.689 9.15637 112.877 9.13001 113.106 9.17341C113.336 9.2168 113.524 9.35558 113.524 9.48181C113.524 9.825 113.905 9.94729 113.999 9.63386C114.113 9.24997 114.1 9.17412 113.942 9.3C113.862 9.36401 113.841 9.28762 113.892 9.11621C113.962 8.88114 114.003 8.87038 114.099 9.06206C114.197 9.25786 114.244 9.25248 114.358 9.03229C114.473 8.80924 114.518 8.80493 114.619 9.00665C114.701 9.17054 114.77 9.18703 114.833 9.05722C114.884 8.95125 115.126 8.87145 115.372 8.88024C115.617 8.88885 115.881 8.87666 115.957 8.85317C116.246 8.76459 116.333 8.86141 116.18 9.09953C116.053 9.29731 116.089 9.34608 116.36 9.34608C116.574 9.34608 116.724 9.22254 116.767 9.00988C116.861 8.54727 117.107 8.58726 117.18 9.07712L117.24 9.48056L117.259 9.07712C117.285 8.5288 117.973 8.48559 117.973 9.03229C117.973 9.22953 118.03 9.3909 118.099 9.3909C118.169 9.3909 118.196 9.24405 118.159 9.06457C118.079 8.6692 118.423 8.26271 118.766 8.34609C118.904 8.37944 119.078 8.58708 119.153 8.80744C119.228 9.02781 119.353 9.1994 119.431 9.18865C119.788 9.13934 119.891 9.24961 119.972 9.76655C120.04 10.2066 119.993 10.3887 119.746 10.6473C119.465 10.9401 119.45 11.031 119.599 11.5383C119.745 12.0392 119.729 12.1472 119.461 12.4927C119.295 12.707 119.177 13.0448 119.198 13.2435C119.227 13.513 119.205 13.5427 119.11 13.3613C119.02 13.1915 118.953 13.1778 118.886 13.3164C118.834 13.4256 118.677 13.5149 118.536 13.5149C118.243 13.5149 118.112 13.8545 118.112 14.616C118.112 14.9096 118.061 15.1089 117.998 15.0587C117.87 14.9569 117.417 15.5725 117.417 15.8479C117.417 15.9454 117.332 16.0252 117.228 16.0252C117.102 16.0252 117.06 16.1726 117.104 16.4683C117.155 16.8077 117.062 17.0281 116.708 17.4096C115.841 18.3465 115.457 18.8995 115.545 19.084C115.665 19.3336 115.236 20.1492 114.985 20.1492C114.863 20.1492 114.815 20.2555 114.864 20.4182C114.917 20.5969 114.857 20.6891 114.686 20.6929C114.277 20.7018 113.941 21.1332 113.941 21.6498C113.941 22.0809 113.915 22.1038 113.661 21.8991C113.415 21.7009 113.338 21.7388 113.028 22.2114C112.834 22.5071 112.584 23.0115 112.472 23.3319C112.244 23.9856 112.072 24.0629 111.872 23.6023C111.676 23.1506 111.51 23.4712 111.526 24.2702C111.537 24.8002 111.494 24.9383 111.342 24.863C111.218 24.8017 111.114 24.9085 111.066 25.1465C111.023 25.3566 110.907 25.5284 110.809 25.5284C110.693 25.5284 110.657 25.3858 110.706 25.1249L110.783 24.7215L110.489 25.1463C110.088 25.7253 109.975 26.2513 110.206 26.4629C110.344 26.5892 110.314 26.6126 110.092 26.5504C109.875 26.4895 109.811 26.5359 109.864 26.7141C109.905 26.8509 109.864 26.9628 109.773 26.9628C109.682 26.9628 109.365 27.2897 109.067 27.6892C108.769 28.0887 108.446 28.4017 108.348 28.3851C107.7 28.2748 107.544 28.3957 107.544 29.008C107.544 29.5215 107.502 29.6045 107.278 29.529C107.096 29.4679 106.935 29.5893 106.772 29.9101C106.641 30.169 106.568 30.4254 106.61 30.4799C106.707 30.6047 106.277 31.1659 105.851 31.4704C105.53 31.7001 105.447 31.7386 105.18 31.7817C105.104 31.794 105.041 31.9654 105.041 32.1627C105.041 32.3667 104.948 32.5213 104.826 32.5213C104.708 32.5213 104.504 32.7628 104.374 33.0581C104.085 33.7131 103.849 33.7465 103.733 33.1489C103.685 32.9023 103.548 32.7006 103.43 32.7006C103.278 32.7006 103.241 32.806 103.303 33.0581C103.368 33.3246 103.339 33.3898 103.187 33.3147C102.854 33.1501 102.806 32.5329 103.106 32.2911C103.252 32.1731 103.372 31.9613 103.372 31.8207C103.372 31.68 103.413 31.6172 103.462 31.6811C103.563 31.81 104.336 30.569 104.342 30.2696C104.346 30.0766 105.28 29.4731 105.575 29.4731C105.664 29.4731 105.736 29.604 105.736 29.7639C105.736 30.0022 105.774 30.0146 105.945 29.8317C106.06 29.7089 106.155 29.4772 106.156 29.3167C106.158 29.0672 106.177 29.063 106.287 29.2886C106.358 29.4337 106.465 29.4898 106.524 29.4134C106.658 29.2407 106.284 28.9212 106.11 29.0596C105.993 29.153 105.743 28.8127 105.739 28.5527C105.737 28.4901 105.861 28.3971 106.014 28.3456C106.166 28.2942 106.336 28.1032 106.389 27.9212C106.542 27.407 107.027 26.9535 107.351 27.0215C107.578 27.069 107.63 27.0082 107.579 26.7539C107.542 26.573 107.455 26.4249 107.386 26.4249C107.316 26.4249 107.365 26.2183 107.493 25.9659C107.637 25.6819 107.762 25.5816 107.82 25.703C107.992 26.0624 108.362 25.6876 108.405 25.1097C108.444 24.5949 108.497 24.537 108.97 24.4864C109.452 24.4352 109.48 24.4022 109.336 24.0559C109.202 23.7328 109.214 23.6975 109.422 23.8004C109.607 23.8917 109.648 23.844 109.598 23.5982C109.518 23.2017 109.849 22.7712 110.128 22.9094C110.262 22.9758 110.382 22.8508 110.47 22.5514C110.64 21.9742 110.513 21.6665 110.23 21.9693C110.115 22.0924 109.824 22.2046 109.582 22.2188C108.87 22.2605 108.796 22.2896 108.796 22.5263C108.796 22.7425 107.907 23.1974 107.484 23.1974C107.372 23.1974 107.229 23.3145 107.167 23.4574C107.102 23.6082 106.776 23.7484 106.392 23.7909C106.027 23.8313 105.691 23.9132 105.645 23.9729C105.599 24.0324 105.453 24.007 105.322 23.9161C105.119 23.7767 105.092 23.8196 105.147 24.1913C105.187 24.457 105.148 24.6319 105.049 24.6319C104.959 24.6319 104.924 24.5512 104.972 24.4525C105.199 23.9779 104.653 24.341 104.017 25.0866C103.831 25.3055 102.838 25.6971 102.538 25.67C101.852 25.6082 101.426 25.7279 101.426 25.9822C101.426 26.1334 101.316 26.3069 101.182 26.3681C101.049 26.4294 100.845 26.5807 100.73 26.7046C100.616 26.8283 100.334 26.9558 100.105 26.9877C99.8752 27.0197 99.4781 27.1914 99.2222 27.3695C98.9664 27.5475 98.6378 27.6445 98.4922 27.585C98.3448 27.5246 98.2274 27.5613 98.2274 27.668C98.2274 27.7733 98.071 27.8593 97.8798 27.8593C97.6886 27.8593 97.5321 27.9449 97.5321 28.0492C97.5321 28.1536 97.4691 28.1889 97.3921 28.1276C97.3151 28.0663 97.0707 28.1825 96.8492 28.386C96.6276 28.5895 96.3777 28.7559 96.294 28.7559C96.2101 28.7559 96.1416 28.8366 96.1416 28.9352C96.1416 29.0338 95.9976 29.1145 95.8217 29.1145C95.6458 29.1145 95.4424 29.1864 95.3698 29.2744C95.2971 29.3623 94.7085 29.6406 94.0614 29.8929C93.1289 30.2565 92.8424 30.3069 92.6789 30.1363C92.5145 29.9649 92.4952 29.9696 92.5837 30.1593C92.7152 30.441 92.2592 31.0617 92.0018 30.9511C91.9081 30.9109 91.6204 31.046 91.3627 31.2513C91.1049 31.4568 90.7207 31.6248 90.5087 31.6248C90.2967 31.6248 90.0538 31.7444 89.9688 31.8903C89.884 32.0364 89.6893 32.1856 89.5364 32.222C89.3834 32.2584 89.1644 32.3336 89.0497 32.389C88.3461 32.7289 87.9207 32.8408 87.6622 32.7537C87.477 32.6911 87.3048 32.7664 87.1965 32.9574C87.1016 33.1248 86.8245 33.2676 86.5771 33.2767C86.331 33.2857 86.1295 33.3701 86.1295 33.4643C86.1295 33.5584 86.0424 33.5925 85.9362 33.5397C85.8298 33.4872 85.6061 33.6084 85.4389 33.8092C85.2212 34.0707 85.0232 34.1456 84.7409 34.0728C84.4781 34.005 84.3227 34.0524 84.2743 34.2152C84.2343 34.3495 83.7437 34.593 83.184 34.7563C82.6243 34.9195 82.0238 35.1727 81.8496 35.3188C81.6754 35.4649 81.4796 35.542 81.4145 35.4902C81.3496 35.4384 81.1034 35.52 80.8676 35.6717C80.4478 35.9417 79.6535 35.9372 79.1419 35.662C78.9464 35.5569 78.8986 35.6231 78.8986 35.9986C78.8986 36.2946 78.8221 36.466 78.69 36.466C78.5753 36.466 78.4814 36.5336 78.4814 36.6163C78.4814 36.6989 78.2551 36.7775 77.9786 36.7909C77.702 36.8044 77.3935 36.9032 77.293 37.0107C77.0839 37.2345 76.3754 37.4045 75.7805 37.3733C75.5569 37.3616 75.3294 37.4452 75.2749 37.5589C75.2204 37.6727 74.8401 37.8015 74.4298 37.845C73.3431 37.9605 73.1623 37.9564 72.8066 37.8077C72.554 37.7023 72.4703 37.7491 72.4138 38.0272C72.3404 38.3894 72.33 38.3921 70.5552 38.5262C69.8369 38.5804 69.4918 38.6738 69.354 38.8515C69.3009 38.9202 68.9674 38.9763 68.613 38.9763C68.2587 38.9763 67.9093 39.0523 67.8366 39.1454C67.7282 39.2841 66.8461 39.3584 65.6882 39.3259C65.5735 39.3227 65.198 39.407 64.8539 39.5131C63.9244 39.8 63.1379 39.8581 62.9436 39.6544C62.8471 39.5533 62.6639 39.5371 62.5265 39.6178C62.1984 39.81 59.5697 39.8715 59.5697 39.687C59.5697 39.6071 59.3955 39.6537 59.1826 39.7907C58.9431 39.9447 58.4523 40.0223 57.896 39.9944C56.9659 39.9474 56.5874 39.7891 56.7241 39.5038C56.7674 39.4132 56.706 39.3871 56.5872 39.4457C56.4685 39.5045 56.3714 39.6345 56.3714 39.7346C56.3714 39.8396 56.2831 39.8222 56.1628 39.6935C55.9933 39.5122 55.9542 39.5201 55.9542 39.7364C55.9542 39.9549 55.7519 39.9911 54.8201 39.9395C54.1963 39.9049 53.6562 39.8382 53.6198 39.7914C53.5835 39.7444 53.4525 39.7701 53.3287 39.8481C53.2048 39.9261 52.8825 39.9388 52.6122 39.8762ZM102.017 35.4404C101.921 35.3963 101.85 35.1047 101.859 34.7925C101.87 34.4108 101.898 34.3423 101.944 34.5833C101.981 34.7805 102.077 35.0447 102.156 35.1703C102.324 35.4372 102.264 35.5541 102.017 35.4404ZM63.6024 35.0316C63.6024 34.9329 63.536 34.8523 63.4551 34.8523C63.3742 34.8523 63.3465 34.9329 63.3938 35.0316C63.441 35.1302 63.5072 35.2109 63.541 35.2109C63.5748 35.2109 63.6024 35.1302 63.6024 35.0316ZM102.677 34.5444C102.677 34.1933 102.923 33.7764 103.13 33.7764C103.196 33.7764 103.201 33.8772 103.141 34.0006C103.081 34.1237 103.031 34.3387 103.028 34.4782C103.023 34.8671 102.677 34.9322 102.677 34.5444ZM39.0907 34.206C39.0446 34.1465 38.9246 34.1401 38.8243 34.1919C38.7133 34.2491 38.7463 34.2916 38.9083 34.3002C39.0548 34.3079 39.1369 34.2656 39.0907 34.206ZM102.33 33.9557C102.282 33.8571 102.341 33.7764 102.46 33.7764C102.58 33.7764 102.677 33.8571 102.677 33.9557C102.677 34.0543 102.618 34.135 102.546 34.135C102.474 34.135 102.377 34.0543 102.33 33.9557ZM36.7645 33.4072C36.7645 33.3144 36.7019 33.2385 36.6254 33.2385C36.5489 33.2385 36.4863 33.3644 36.4863 33.518C36.4863 33.6717 36.5489 33.7477 36.6254 33.6868C36.7019 33.6258 36.7645 33.5001 36.7645 33.4072ZM29.6726 33.3387C29.6726 33.2952 29.61 33.2098 29.5335 33.1489C29.457 33.0879 29.3945 33.1236 29.3945 33.2279C29.3945 33.3323 29.457 33.4178 29.5335 33.4178C29.61 33.4178 29.6726 33.3823 29.6726 33.3387ZM29.3475 31.5799C29.3089 31.4566 29.2774 31.5575 29.2774 31.8041C29.2774 32.0506 29.3089 32.1514 29.3475 32.0282C29.3861 31.9048 29.3861 31.7031 29.3475 31.5799ZM27.7258 30.1903C27.7258 30.0917 27.6162 30.0123 27.4824 30.0137C27.2744 30.016 27.2694 30.0419 27.4477 30.1903C27.7101 30.4091 27.7258 30.4091 27.7258 30.1903ZM90.8754 28.8866C90.6493 28.595 90.5201 28.8679 90.7391 29.1747C90.8427 29.3196 90.9496 29.3582 90.9773 29.2604C91.0051 29.1629 90.9592 28.9947 90.8754 28.8866ZM25.1532 29.1145C25.2005 29.0159 25.1728 28.9352 25.0919 28.9352C25.011 28.9352 24.9446 29.0159 24.9446 29.1145C24.9446 29.2131 24.9722 29.2938 25.006 29.2938C25.0398 29.2938 25.106 29.2131 25.1532 29.1145ZM106.988 27.7697C106.988 27.6218 106.925 27.5007 106.849 27.5007C106.772 27.5007 106.71 27.6218 106.71 27.7697C106.71 27.9176 106.772 28.0387 106.849 28.0387C106.925 28.0387 106.988 27.9176 106.988 27.7697ZM111.716 21.2251C111.716 21.1264 111.688 21.0457 111.655 21.0457C111.621 21.0457 111.555 21.1264 111.507 21.2251C111.46 21.3237 111.488 21.4044 111.569 21.4044C111.65 21.4044 111.716 21.3237 111.716 21.2251ZM111.021 12.1701C111.021 12.0222 110.958 11.9012 110.882 11.9012C110.805 11.9012 110.742 12.0222 110.742 12.1701C110.742 12.3181 110.805 12.4391 110.882 12.4391C110.958 12.4391 111.021 12.3181 111.021 12.1701ZM5.05957 11.8221C5.05957 11.7785 4.997 11.6932 4.92052 11.6322C4.84404 11.5713 4.78146 11.6069 4.78146 11.7113C4.78146 11.8156 4.84404 11.9012 4.92052 11.9012C4.997 11.9012 5.05957 11.8657 5.05957 11.8221ZM111.855 11.6322C111.855 11.4843 111.792 11.3633 111.716 11.3633C111.639 11.3633 111.577 11.2288 111.577 11.0644C111.577 10.9001 111.538 10.8157 111.491 10.8768C111.365 11.0382 111.557 11.9012 111.719 11.9012C111.794 11.9012 111.855 11.7801 111.855 11.6322ZM106.854 10.8296C106.575 10.607 106.398 10.7924 106.607 11.0887C106.718 11.2456 106.829 11.2716 106.917 11.1615C107.008 11.0488 106.986 10.9347 106.854 10.8296ZM108.086 11.1171C108.253 10.8573 108.157 10.2874 107.946 10.2874C107.878 10.2874 107.822 10.4085 107.822 10.5564C107.822 10.7043 107.721 10.8253 107.597 10.8253C107.412 10.8253 107.402 10.8739 107.544 11.0943C107.759 11.4276 107.883 11.4328 108.086 11.1171ZM117.156 10.9568C117.019 10.7811 117.003 10.8017 117.078 11.0572C117.131 11.234 117.208 11.3335 117.251 11.2783C117.294 11.2232 117.251 11.0785 117.156 10.9568ZM105.454 10.6909C105.451 10.2679 105.43 10.2426 105.307 10.513C105.229 10.6864 105.204 10.9082 105.25 11.0061C105.394 11.3061 105.458 11.2065 105.454 10.6909ZM109.908 10.2768C109.908 10.0739 109.846 9.95751 109.769 10.0185C109.693 10.0794 109.63 10.2455 109.63 10.3877C109.63 10.5299 109.693 10.646 109.769 10.646C109.846 10.646 109.908 10.4798 109.908 10.2768ZM113.106 10.0185C113.106 9.87054 113.015 9.74951 112.902 9.74951C112.778 9.74951 112.729 9.85459 112.778 10.0185C112.822 10.1664 112.914 10.2874 112.982 10.2874C113.051 10.2874 113.106 10.1664 113.106 10.0185ZM2.55378 9.11764C2.45699 8.96738 2.34922 8.88132 2.31418 8.92632C2.21782 9.05076 2.41375 9.3909 2.58173 9.3909C2.67406 9.3909 2.66349 9.28798 2.55378 9.11764ZM3.80807 7.69808C3.80807 7.65451 3.74549 7.56916 3.66901 7.5082C3.59253 7.44724 3.52995 7.48291 3.52995 7.58727C3.52995 7.69163 3.59253 7.77716 3.66901 7.77716C3.74549 7.77716 3.80807 7.74165 3.80807 7.69808Z" fill="#6AEDAB"/>
</svg>
