<svg width="73" height="72" viewBox="0 0 73 72" fill="none" xmlns="http://www.w3.org/2000/svg">
<rect x="0.5" width="72" height="72" rx="36" fill="#013A37"/>
<path d="M42.2502 39H41.0652L40.6452 38.595C41.5826 37.5059 42.2677 36.2231 42.6515 34.8384C43.0353 33.4536 43.1083 32.0012 42.8652 30.585C42.1602 26.415 38.6802 23.085 34.4802 22.575C33.0036 22.3882 31.5039 22.5416 30.0957 23.0236C28.6876 23.5056 27.4084 24.3033 26.356 25.3557C25.3035 26.4081 24.5058 27.6874 24.0238 29.0955C23.5419 30.5036 23.3884 32.0034 23.5752 33.48C24.0852 37.68 27.4152 41.16 31.5852 41.865C33.0014 42.108 34.4539 42.0351 35.8386 41.6513C37.2234 41.2675 38.5062 40.5824 39.5952 39.645L40.0002 40.065V41.25L46.3752 47.625C46.9902 48.24 47.9952 48.24 48.6102 47.625C49.2252 47.01 49.2252 46.005 48.6102 45.39L42.2502 39ZM33.2502 39C29.5152 39 26.5002 35.985 26.5002 32.25C26.5002 28.515 29.5152 25.5 33.2502 25.5C36.9852 25.5 40.0002 28.515 40.0002 32.25C40.0002 35.985 36.9852 39 33.2502 39Z" fill="url(#paint0_linear_225_851)"/>
<defs>
<linearGradient id="paint0_linear_225_851" x1="23.498" y1="33.8704" x2="45.3998" y2="24.9029" gradientUnits="userSpaceOnUse">
<stop stop-color="#3FE6DC"/>
<stop offset="0.52863" stop-color="#76D742"/>
<stop offset="1" stop-color="#DBF53C"/>
</linearGradient>
</defs>
</svg>
