<svg width="73" height="72" viewBox="0 0 73 72" fill="none" xmlns="http://www.w3.org/2000/svg">
<rect x="0.5" width="72" height="72" rx="36" fill="#013A37"/>
<path d="M45.135 34.5431L33.7431 50.3363C33.5488 50.5952 33.2575 50.7246 32.934 50.7246C32.8047 50.7246 32.6428 50.6923 32.5132 50.6275C32.0925 50.4334 31.866 49.9478 31.9954 49.4947L34.7464 39.3326H29.8594C29.5034 39.3326 29.1797 39.1385 29.018 38.8148C28.8562 38.4911 28.8562 38.135 29.0503 37.8116L39.1476 22.0507C39.4066 21.6624 39.8919 21.5006 40.3127 21.6624C40.7335 21.8243 40.9925 22.2774 40.9277 22.7304L39.3418 33.0219H44.3582C44.7142 33.0219 45.0702 33.216 45.232 33.5398C45.3937 33.8633 45.3289 34.2517 45.1347 34.543L45.135 34.5431Z" fill="url(#paint0_linear_225_916)"/>
<defs>
<linearGradient id="paint0_linear_225_916" x1="28.9004" y1="34.5443" x2="44.4915" y2="30.9425" gradientUnits="userSpaceOnUse">
<stop stop-color="#3FE6DC"/>
<stop offset="0.52863" stop-color="#76D742"/>
<stop offset="1" stop-color="#DBF53C"/>
</linearGradient>
</defs>
</svg>
