<svg width="73" height="72" viewBox="0 0 73 72" fill="none" xmlns="http://www.w3.org/2000/svg">
<rect x="0.5" width="72" height="72" rx="36" fill="#013A37"/>
<path d="M26.9497 35.1375C27.2842 35.1378 27.606 35.2659 27.8493 35.4956C28.0925 35.7252 28.2389 36.0391 28.2585 36.373C28.2781 36.707 28.1695 37.0358 27.9547 37.2924C27.74 37.5489 27.4355 37.7138 27.1033 37.7533L26.9497 37.7625H25.6372C25.3027 37.7621 24.9809 37.634 24.7377 37.4043C24.4944 37.1747 24.348 36.8608 24.3284 36.5269C24.3088 36.1929 24.4175 35.8641 24.6322 35.6075C24.8469 35.351 25.1515 35.1861 25.4837 35.1466L25.6372 35.1375H26.9497ZM37.4497 23.325C37.7712 23.325 38.0815 23.443 38.3217 23.6566C38.5619 23.8703 38.7154 24.1646 38.753 24.4839L38.7622 24.6375V25.95C38.7618 26.2845 38.6338 26.6062 38.4041 26.8495C38.1745 27.0928 37.8606 27.2391 37.5266 27.2587C37.1927 27.2783 36.8638 27.1697 36.6073 26.955C36.3508 26.7403 36.1859 26.4357 36.1464 26.1035L36.1372 25.95V24.6375C36.1372 24.2894 36.2755 23.9555 36.5216 23.7094C36.7678 23.4632 37.1016 23.325 37.4497 23.325ZM49.2622 35.1375C49.5967 35.1378 49.9185 35.2659 50.1618 35.4956C50.405 35.7252 50.5514 36.0391 50.571 36.373C50.5906 36.707 50.482 37.0358 50.2672 37.2924C50.0525 37.5489 49.748 37.7138 49.4158 37.7533L49.2622 37.7625H47.9497C47.6152 37.7621 47.2934 37.634 47.0502 37.4043C46.8069 37.1747 46.6605 36.8608 46.6409 36.5269C46.6213 36.1929 46.73 35.8641 46.9447 35.6075C47.1594 35.351 47.464 35.1861 47.7962 35.1466L47.9497 35.1375H49.2622ZM28.1218 27.122C28.3478 26.896 28.6485 26.7603 28.9674 26.7402C29.2864 26.7202 29.6018 26.8172 29.8543 27.0131L29.9777 27.122L30.8964 28.0408C31.1318 28.277 31.2685 28.5939 31.2786 28.9272C31.2888 29.2605 31.1717 29.5852 30.9512 29.8353C30.7307 30.0854 30.4232 30.2422 30.0912 30.2738C29.7593 30.3055 29.4277 30.2096 29.1639 30.0056L29.0405 29.8966L28.1218 28.9779C27.8757 28.7318 27.7375 28.398 27.7375 28.05C27.7375 27.7019 27.8757 27.3681 28.1218 27.122ZM44.9218 27.122C45.158 26.8866 45.4749 26.75 45.8082 26.7398C46.1415 26.7296 46.4662 26.8467 46.7163 27.0672C46.9664 27.2878 47.1232 27.5952 47.1549 27.9272C47.1865 28.2592 47.0906 28.5907 46.8866 28.8545L46.7777 28.9779L45.8589 29.8966C45.6227 30.132 45.3058 30.2687 44.9725 30.2789C44.6392 30.2891 44.3145 30.172 44.0644 29.9514C43.8142 29.7309 43.6574 29.4234 43.6258 29.0915C43.5942 28.7595 43.6901 28.4279 43.8941 28.1641L44.003 28.0408L44.9218 27.122ZM40.0747 44.325C40.4228 44.325 40.7567 44.4632 41.0028 44.7094C41.2489 44.9555 41.3872 45.2894 41.3872 45.6375C41.3872 46.6817 40.9724 47.6833 40.234 48.4217C39.4955 49.1601 38.494 49.575 37.4497 49.575C36.4054 49.575 35.4039 49.1601 34.6655 48.4217C33.9271 47.6833 33.5122 46.6817 33.5122 45.6375C33.5123 45.316 33.6303 45.0057 33.8439 44.7655C34.0575 44.5252 34.3519 44.3718 34.6712 44.3341L34.8247 44.325H40.0747ZM37.4497 28.575C39.1025 28.575 40.7135 29.095 42.0543 30.0614C43.3952 31.0278 44.3979 32.3917 44.9206 33.9597C45.4433 35.5277 45.4593 37.2204 44.9665 38.798C44.4737 40.3757 43.497 41.7583 42.1747 42.75C41.9938 42.8858 41.7809 42.9726 41.5565 43.002L41.3872 43.0125H33.5122C33.2282 43.0125 32.9519 42.9203 32.7247 42.75C31.4025 41.7583 30.4257 40.3757 29.9329 38.798C29.4401 37.2204 29.4562 35.5277 29.9788 33.9597C30.5015 32.3917 31.5043 31.0278 32.8451 30.0614C34.186 29.095 35.7969 28.575 37.4497 28.575Z" fill="url(#paint0_linear_225_906)"/>
<defs>
<linearGradient id="paint0_linear_225_906" x1="24.3262" y1="34.9916" x2="46.8018" y2="25.7848" gradientUnits="userSpaceOnUse">
<stop stop-color="#3FE6DC"/>
<stop offset="0.52863" stop-color="#76D742"/>
<stop offset="1" stop-color="#DBF53C"/>
</linearGradient>
</defs>
</svg>
