<svg width="180" height="54" viewBox="0 0 180 54" fill="none" xmlns="http://www.w3.org/2000/svg">
<g clip-path="url(#clip0_500_446)">
<path d="M17.8908 26.6123L35.7816 20.9045V14.891V14.7385L17.8908 9.03076L0.0583193 14.7385L0.0569939 14.891H0V38.2748L0.0561103 38.2753L0.0583193 38.486L17.8908 44.1938L35.7816 38.486V38.3331V32.4725V32.3201L17.8908 26.6123V32.6254L26.5967 35.403L17.8908 38.1803L6.01308 34.3908V18.8333L17.8908 15.0438L26.5967 17.8215L17.8908 20.5992V26.6123Z" fill="#6AEDAB"/>
<path d="M42.0743 36.8677H50.9834C52.6742 36.8677 54.0073 36.3799 55.0478 35.3395C56.0883 34.299 56.6086 32.9333 56.6086 31.21V30.7873C56.6086 29.3241 56.1859 28.0886 55.4055 27.1131C54.6251 26.1376 53.5521 25.5199 52.1865 25.2597C53.357 24.9671 54.2675 24.3493 54.9503 23.4064C55.6006 22.4959 55.9583 21.3579 55.9583 19.9923V19.6021C55.9583 17.9763 55.438 16.6432 54.43 15.6352C53.4221 14.6273 52.0889 14.107 50.4632 14.107H42.0743V36.8677ZM49 17.9763C49.7153 17.9763 50.2681 18.2039 50.7233 18.6266C51.146 19.0818 51.3736 19.6346 51.3736 20.3174V21.0328C51.3736 21.7481 51.146 22.3008 50.7233 22.7235C50.2681 23.1788 49.7153 23.3739 49 23.3739H46.8215V17.9763H49ZM49.5202 27.2432C50.2031 27.2432 50.7558 27.4708 51.211 27.8935C51.6337 28.3487 51.8613 28.9014 51.8613 29.6168V30.6247C51.8613 31.3401 51.6337 31.9254 51.211 32.3481C50.7558 32.8033 50.2031 32.9984 49.5202 32.9984H46.8215V27.2432H49.5202ZM59.6934 36.8677H64.148V13.2941H59.6934V36.8677ZM67.2377 27.5683V29.8769C67.2377 32.0879 67.888 33.8438 69.2212 35.1769C70.5543 36.5425 72.3101 37.1928 74.5212 37.1928C76.6997 37.1928 78.4555 36.5425 79.7886 35.1769C81.1218 33.8438 81.8046 32.0879 81.8046 29.8769V27.5683C81.8046 25.4223 81.1218 23.6665 79.7886 22.3008C78.4555 20.9677 76.6997 20.2849 74.5212 20.2849C72.3101 20.2849 70.5543 20.9677 69.2212 22.3008C67.888 23.634 67.2377 25.3898 67.2377 27.5683ZM71.6923 30.4947V26.983C71.6923 26.1376 71.9199 25.4548 72.4402 24.9346C72.9604 24.4143 73.6432 24.1542 74.5212 24.1542C75.3666 24.1542 76.0494 24.4143 76.5696 24.9346C77.0899 25.4548 77.35 26.1376 77.35 26.983V30.4947C77.35 31.3401 77.0899 32.0229 76.5696 32.5431C76.0494 33.0634 75.3666 33.3235 74.5212 33.3235C73.6432 33.3235 72.9604 33.0634 72.4402 32.5431C71.9199 32.0229 71.6923 31.3401 71.6923 30.4947ZM88.7755 26.918C88.7755 26.1051 89.0031 25.4548 89.5234 24.9346C90.0111 24.4143 90.6614 24.1542 91.5068 24.1542C92.2872 24.1542 92.905 24.3818 93.4252 24.837C93.9129 25.2923 94.1731 25.8775 94.2381 26.6254H98.4C98.205 24.707 97.4896 23.1788 96.2215 22.0082C94.9534 20.8702 93.3277 20.2849 91.3768 20.2849C89.2307 20.2849 87.54 20.9677 86.2393 22.2683C84.9387 23.6015 84.3209 25.3573 84.3209 27.5033V29.9744C84.3209 32.153 84.9387 33.9088 86.2393 35.2094C87.54 36.5425 89.2307 37.1928 91.3768 37.1928C93.3277 37.1928 94.9534 36.6401 96.2215 35.4695C97.4896 34.3315 98.205 32.8033 98.4 30.8524H94.2381C94.1731 31.6327 93.9129 32.218 93.4252 32.6732C92.905 33.1284 92.2872 33.3235 91.5068 33.3235C90.6614 33.3235 90.0111 33.0959 89.5234 32.5757C89.0031 32.0554 88.7755 31.4051 88.7755 30.5597V26.918ZM99.9971 20.6101V23.2763L102.956 36.8677H108.971L111.085 25.4548L113.198 36.8677H119.214L122.14 23.2763V20.6101H118.173L115.995 33.1284L113.686 20.6101H108.484L106.11 33.4536L103.964 20.6101H99.9971ZM134.183 20.4475C133.012 20.4475 131.972 20.8377 131.126 21.553C130.281 22.3008 129.663 23.3088 129.306 24.6094V20.6101H124.851V36.8677H129.306V27.2106C129.306 26.4303 129.533 25.8125 129.988 25.3248C130.444 24.8696 131.061 24.6094 131.842 24.6094H135.223V20.4475H134.183ZM141.778 43.3707H145.679L151.402 23.2763V20.6101H147.5L144.021 34.1689L140.542 20.6101H136.673V23.2763L140.542 36.8677H142.883L141.778 40.7045V43.3707ZM154.877 32.218C154.877 33.6487 155.299 34.7542 156.145 35.5996C156.99 36.445 158.128 36.8677 159.526 36.8677H162.42V33.291H160.404C160.079 33.291 159.819 33.1935 159.624 32.9984C159.429 32.8033 159.331 32.5431 159.331 32.218V24.1867H162.42V20.6101H157.836L160.047 17.0334H154.877V20.6101H152.828V24.1867H154.877V32.218ZM178.831 31.4051H174.799C174.604 32.0554 174.279 32.5431 173.791 32.8683C173.303 33.226 172.718 33.3885 172.003 33.3885C171.092 33.3885 170.377 33.1609 169.857 32.6407C169.304 32.1205 169.044 31.4376 169.044 30.5922V30.0395H178.863V27.5358C178.863 25.3898 178.213 23.634 176.912 22.3008C175.612 20.9677 173.888 20.2849 171.808 20.2849C169.662 20.2849 167.971 20.9677 166.67 22.2683C165.369 23.6015 164.752 25.3573 164.752 27.5033V29.9744C164.752 32.153 165.369 33.9088 166.67 35.2094C167.971 36.5425 169.694 37.1928 171.84 37.1928C173.726 37.1928 175.287 36.6726 176.522 35.6321C177.758 34.5916 178.506 33.1935 178.831 31.4051ZM174.831 27.1781H169.044V26.8855C169.044 26.0401 169.304 25.3898 169.824 24.8696C170.344 24.3493 171.06 24.0892 171.97 24.0892C172.815 24.0892 173.531 24.3493 174.051 24.8696C174.571 25.3898 174.831 26.0401 174.831 26.8855V27.1781Z" fill="#013A37"/>
</g>
<defs>
<clipPath id="clip0_500_446">
<rect width="180" height="53.2248" fill="white"/>
</clipPath>
</defs>
</svg>
