<svg width="116" height="117" viewBox="0 0 116 117" fill="none" xmlns="http://www.w3.org/2000/svg">
<rect y="0.5" width="116" height="116" rx="58" fill="#013A37"/>
<g clip-path="url(#clip0_725_957)">
<path d="M51.1979 40.639C51.1979 39.6612 50.5815 38.8003 49.7949 38.2157C48.562 37.291 47.7967 36.0155 47.7967 34.6019C47.7967 31.7852 50.8472 29.5 54.5992 29.5C58.3512 29.5 61.4016 31.7852 61.4016 34.6019C61.4016 36.0155 60.6364 37.291 59.4034 38.2157C58.6169 38.8003 58.0004 39.6612 58.0004 40.639C58.0004 41.9995 59.1058 43.1049 60.4663 43.1049H66.5035C69.3201 43.1049 71.6053 45.3901 71.6053 48.2068V54.244C71.6053 55.6045 72.7107 56.7099 74.0712 56.7099C75.0491 56.7099 75.91 56.0934 76.4946 55.3069C77.4193 54.0739 78.6948 53.3086 80.1084 53.3086C82.9251 53.3086 85.2103 56.3591 85.2103 60.1111C85.2103 63.8631 82.9251 66.9136 80.1084 66.9136C78.6948 66.9136 77.4193 66.1483 76.4946 64.9154C75.91 64.1288 75.0491 63.5123 74.0712 63.5123C72.7107 63.5123 71.6053 64.6177 71.6053 65.9782V78.8179C71.6053 81.6345 69.3201 83.9198 66.5035 83.9198H60.4663C59.1058 83.9198 58.0004 82.8144 58.0004 81.4539C58.0004 80.476 58.6169 79.6151 59.4034 79.0305C60.6364 78.1058 61.4016 76.8303 61.4016 75.4167C61.4016 72.6 58.3512 70.3148 54.5992 70.3148C50.8472 70.3148 47.7967 72.6 47.7967 75.4167C47.7967 76.8303 48.562 78.1058 49.7949 79.0305C50.5815 79.6151 51.1979 80.476 51.1979 81.4539C51.1979 82.8144 50.0925 83.9198 48.732 83.9198H35.8924C33.0757 83.9198 30.7905 81.6345 30.7905 78.8179V65.9782C30.7905 64.6177 31.8959 63.5123 33.2564 63.5123C34.2343 63.5123 35.0952 64.1288 35.6798 64.9154C36.6045 66.1483 37.88 66.9136 39.2936 66.9136C42.1103 66.9136 44.3955 63.8631 44.3955 60.1111C44.3955 56.3591 42.1103 53.3086 39.2936 53.3086C37.88 53.3086 36.6045 54.0739 35.6798 55.3069C35.0952 56.0934 34.2343 56.7099 33.2564 56.7099C31.8959 56.7099 30.7905 55.6045 30.7905 54.244V48.2068C30.7905 45.3901 33.0757 43.1049 35.8924 43.1049H48.732C50.0925 43.1049 51.1979 41.9995 51.1979 40.639Z" fill="url(#paint0_linear_725_957)"/>
</g>
<defs>
<linearGradient id="paint0_linear_725_957" x1="30.7905" y1="53.6866" x2="77.3892" y2="34.5959" gradientUnits="userSpaceOnUse">
<stop stop-color="#3FE6DC"/>
<stop offset="0.52863" stop-color="#76D742"/>
<stop offset="1" stop-color="#DBF53C"/>
</linearGradient>
<clipPath id="clip0_725_957">
<rect width="58" height="58" fill="white" transform="translate(29 29.5)"/>
</clipPath>
</defs>
</svg>
