<svg width="302" height="404" viewBox="0 0 302 404" fill="none" xmlns="http://www.w3.org/2000/svg">
<path d="M201.495 395.806L201.374 395.74C152.387 367.894 112.623 258.345 112.855 151.535V151.148H113.22C213.005 137.728 334.008 149.436 382.973 177.249L383.183 177.37V177.613C382.984 284.468 301.501 382.353 201.639 395.784L201.495 395.806ZM113.728 151.9C113.628 258.235 153.05 367.154 201.705 394.901C301.115 381.458 382.078 284.125 382.387 177.79C333.456 150.21 213.137 138.59 113.728 151.9Z" fill="#013A37"/>
<path d="M292.665 357.026C268.077 343.053 207.217 337.144 157.015 343.926L156.904 343.108C207.261 336.338 268.353 342.258 293.073 356.297L292.665 357.026Z" fill="#013A37"/>
<path d="M357.657 278.845C315.518 254.91 211.27 244.836 125.27 256.401L125.16 255.584C211.315 243.997 315.794 254.115 358.065 278.128L357.657 278.845Z" fill="#013A37"/>
<path d="M201.738 395.762L201.418 395C262.698 369.452 312.712 262.012 312.911 155.489H313.74C313.541 262.321 263.295 370.103 201.738 395.762Z" fill="#013A37"/>
<path d="M201.981 395.486L201.175 395.276C209.282 364.548 216.031 252.789 216.23 146.134H217.058C216.859 252.844 210.1 364.702 201.981 395.486Z" fill="#013A37"/>
<path d="M178.896 397.331C140.988 397.331 105.598 384.297 77.4213 359.61C59.4728 343.796 45.2836 324.173 35.8902 302.174C25.7835 278.978 20.6695 253.452 20.6916 226.412C5.53714 217.742 -1.4878 208.088 0.367844 198.478C4.37736 178.11 47.5763 159.985 113.22 151.148L113.684 151.082V151.557C113.485 258.102 153.006 367.331 201.783 395.044L202.887 395.652L201.672 395.806C194.123 396.821 186.514 397.331 178.896 397.331ZM112.844 152.01C47.8304 160.846 5.06218 178.685 1.18521 198.688C-0.615208 207.966 6.34346 217.366 21.3101 225.86L21.52 225.982V226.258C21.4648 253.275 26.5567 278.735 36.6413 301.931C46.0019 323.799 60.1221 343.303 77.9736 359.025C111.232 388.163 154.64 400.998 200.314 395.155C151.868 366.359 112.778 257.903 112.855 152.01H112.844Z" fill="#013A37"/>
<path d="M110.226 381.547C102.428 377.129 98.8164 372.147 99.7774 367.188C101.788 356.805 123.658 347.582 156.861 343.119L156.971 343.937C124.133 348.355 102.539 357.324 100.639 367.353C99.7443 371.937 103.224 376.598 110.679 380.84L110.226 381.547Z" fill="#013A37"/>
<path d="M45.4554 320.829C32.2008 313.318 26.0816 304.924 27.7053 296.529C31.1294 278.856 68.4632 263.183 125.16 255.562L125.27 256.379C68.9382 263.956 31.8695 279.398 28.5116 296.684C26.9653 304.67 32.9298 312.766 45.8641 320.089L45.4554 320.829Z" fill="#013A37"/>
<path d="M201.506 395.784C108.724 378.531 33.5042 277.597 33.703 170.688H34.5314C34.3326 277.178 109.298 377.791 201.65 394.967L201.506 395.784Z" fill="#013A37"/>
<path d="M201.572 395.795C90.532 393.343 0.433834 304.383 0.632653 197.473H1.46107C1.26225 303.919 91.0401 392.515 201.584 394.956L201.572 395.795Z" fill="#013A37"/>
<path d="M223.94 402.235C216.027 402.078 208.292 399.862 201.495 395.806C155.193 402.003 111.143 389.179 77.4323 359.61C59.4839 343.797 45.2946 324.173 35.9012 302.174C25.7614 278.879 20.6474 253.297 20.7026 226.17V225.463L21.3211 225.805C70.1423 253.551 190.925 265.215 290.544 251.817L291.019 251.751V252.226C290.887 324.353 272.496 379.79 243.038 396.922C237.262 400.371 230.667 402.206 223.94 402.235ZM201.661 394.945L201.783 395.022C216.142 403.196 229.927 403.616 242.651 396.237C271.8 379.316 290.014 324.353 290.224 252.756C190.947 266.011 70.8381 254.446 21.5641 226.932C21.5641 253.684 26.6893 278.901 36.6854 301.898C46.046 323.766 60.1663 343.271 78.0177 358.992C111.574 388.395 155.447 401.175 201.562 394.967L201.661 394.945Z" fill="#013A37"/>
<path d="M202.445 397.54C164.581 397.54 128.009 391.653 110.226 381.547L110.635 380.829C135.222 394.801 196.083 400.711 246.285 393.918L246.395 394.746C231.822 396.643 217.141 397.577 202.445 397.54Z" fill="#013A37"/>
<path d="M203.13 348.178C138.37 348.178 75.8418 338.094 45.4556 320.83L45.8642 320.112C88.0029 344.058 192.239 354.121 278.251 342.556L278.35 343.373C253.41 346.631 228.282 348.237 203.13 348.178Z" fill="#013A37"/>
<path d="M175.583 401.296C163.808 401.263 152.316 397.688 142.601 391.035C109.608 368.999 89.9909 315.649 90.1124 248.327H90.9408C90.8193 315.373 110.304 368.458 143.065 390.339C160.527 402.014 180.708 403.594 201.396 395L201.716 395.762C193.458 399.32 184.574 401.201 175.583 401.296Z" fill="#013A37"/>
<path d="M197.53 403.693H197.342C189.887 402.721 186.683 329.688 186.816 257.682H187.644C187.468 352.121 192.449 402.202 197.453 402.853C197.983 402.953 199.331 402.301 201.175 395.276L201.981 395.486C200.512 401.064 199.087 403.693 197.53 403.693Z" fill="#013A37"/>
<path d="M223.94 402.235C216.583 402.235 208.984 400.026 201.374 395.74L200.269 395.133L201.495 394.967C223.18 391.971 244.167 385.177 263.494 374.897C280.238 348.631 290.058 304.935 290.157 252.292V251.928H290.511C326.729 247.057 356.077 239.38 375.694 230.08C380.041 212.939 382.267 195.33 382.321 177.647V176.94L382.94 177.282C398.238 185.975 405.329 195.684 403.462 205.338C401.706 214.406 392.196 223.01 376.412 230.599C360.617 292.818 318.368 346.908 264.057 375.593C257.916 385.181 250.802 392.449 243.004 397.01C237.23 400.423 230.647 402.227 223.94 402.235ZM202.865 395.608C216.87 403.207 230.247 403.417 242.629 396.226C250.04 391.929 256.745 385.181 262.621 376.289C243.937 386.061 223.732 392.597 202.865 395.619V395.608ZM291.019 252.635C290.875 304.46 281.31 347.626 264.974 374.135C318.279 345.494 359.733 292.233 375.429 230.996C355.801 240.219 326.74 247.819 291.019 252.646V252.635ZM383.172 178.298C383.064 195.58 380.887 212.786 376.688 229.549C391.864 222.204 400.988 213.865 402.678 205.117C404.456 195.982 397.707 186.715 383.172 178.309V178.298Z" fill="#013A37"/>
<path d="M246.395 394.746L246.285 393.918C279.123 389.499 300.728 380.542 302.672 370.512C303.556 365.928 300.076 361.267 292.621 357.026L293.029 356.297C300.827 360.715 304.439 365.696 303.478 370.656C301.501 381.05 279.598 390.273 246.395 394.746Z" fill="#013A37"/>
<path d="M278.306 343.34L278.207 342.523C334.539 334.946 371.596 319.504 374.954 302.218C376.5 294.232 370.536 286.136 357.613 278.812L358.021 278.094C371.276 285.616 377.384 294.011 375.771 302.395C372.392 320.056 335.047 335.752 278.306 343.34Z" fill="#013A37"/>
<path d="M228.28 398.292C219.297 398.28 210.335 397.44 201.506 395.784L201.649 394.967C242.374 402.544 281.674 392.758 312.314 367.353C348.455 337.365 369.243 288.466 369.353 233.172H370.182C370.071 288.709 349.195 337.851 312.845 367.928C289.119 387.705 259.167 398.46 228.28 398.292Z" fill="#013A37"/>
<path d="M206.311 395.839C204.732 395.839 203.152 395.839 201.573 395.839V395.011C256.524 396.215 307.797 376.311 346.059 338.944C382.299 303.598 402.314 256.489 402.391 206.398H403.219C403.131 256.721 383.028 304.007 346.633 339.552C309.333 375.935 259.65 395.839 206.311 395.839Z" fill="#013A37"/>
<path d="M383.172 178.298L382.553 177.956C333.732 150.21 212.96 138.546 113.33 151.944L112.855 152.01V151.535C112.988 79.397 131.378 23.9596 160.848 6.83908C173.594 -0.561409 187.953 -0.163771 202.379 7.94363C248.671 1.75815 292.731 14.5709 326.442 44.1398C344.387 59.9564 358.576 79.579 367.973 101.576C378.113 124.871 383.227 150.442 383.183 177.58L383.172 178.298ZM200.346 145.56C274.926 145.56 346.931 157.102 382.354 176.885C382.354 150.121 377.218 124.904 367.222 101.919C357.861 80.0475 343.741 60.5389 325.89 44.8135C292.333 15.4104 248.483 2.64179 202.357 8.83832H202.213L202.092 8.77204C187.732 0.587324 173.948 0.178639 161.223 7.54599C132.118 24.4898 113.904 79.4522 113.728 151.06C142.449 147.331 171.384 145.494 200.346 145.56Z" fill="#013A37"/>
<path d="M358.021 83.7047C315.861 59.758 211.624 49.6956 125.635 61.2602L125.524 60.4318C211.679 48.8451 316.148 58.9627 358.43 82.9757L358.021 83.7047Z" fill="#013A37"/>
<path d="M293.239 23.0205C268.652 9.04791 207.802 3.13857 157.589 9.93155L157.479 9.11419C207.835 2.34329 268.928 8.25263 293.648 22.3025L293.239 23.0205Z" fill="#013A37"/>
<path d="M313.74 155.489H312.912C313.033 88.4432 293.549 35.3475 260.788 13.4663C243.325 1.79122 223.156 0.211715 202.457 8.81616L202.136 8.04298C223.123 -0.694013 243.535 0.951767 261.252 12.7705C294.245 34.8173 313.861 88.1892 313.74 155.489Z" fill="#013A37"/>
<path d="M217.059 146.134H216.23C216.451 51.7389 211.425 1.60336 206.422 0.92958C205.925 0.852261 204.555 1.47081 202.699 8.5068L201.893 8.29693C203.428 2.49804 204.92 -0.0976523 206.532 0.101167C213.988 1.09526 217.191 74.1613 217.059 146.134Z" fill="#013A37"/>
<path d="M21.5312 226.932L20.9126 226.589C5.60354 217.896 -1.48768 208.187 0.37901 198.534C2.14629 189.465 11.6454 180.861 27.4295 173.272C43.2245 111.042 85.4736 56.9523 139.795 28.2671C145.937 18.6796 153.05 11.4116 160.848 6.84985C173.628 -0.572729 188.031 -0.153001 202.501 8.06486L203.605 8.67236L202.39 8.83805C180.69 11.8285 159.688 18.6225 140.348 28.9077C123.603 55.1739 113.838 98.87 113.684 151.513V151.877H113.33C77.1121 156.748 47.7753 164.425 28.1585 173.725C23.8113 190.866 21.5855 208.475 21.5312 226.158V226.932ZM27.1865 174.256C12.021 181.601 2.88634 189.94 1.19638 198.688C-0.581951 207.834 6.16686 217.101 20.7027 225.507C20.8107 208.225 22.9874 191.019 27.1865 174.256ZM138.912 29.6478C85.5951 58.3661 44.1413 111.572 28.4015 172.82C48.0735 163.597 77.1342 155.997 112.855 151.17C112.999 99.3339 122.564 56.157 138.912 29.6478ZM180.001 2.33224C173.386 2.35571 166.9 4.16043 161.224 7.55676C153.812 11.8645 147.108 18.6023 141.231 27.4387C159.924 17.7019 180.127 11.1929 200.987 8.18636C193.801 4.29097 186.805 2.3396 180.001 2.33224Z" fill="#013A37"/>
<path d="M45.809 125.744C32.5544 118.222 26.4462 109.827 28.0699 101.444C31.483 83.7708 68.8278 68.0972 125.524 60.4758L125.635 61.3042C69.3028 68.8704 32.234 84.3231 28.8762 101.609C27.3298 109.595 33.2944 117.681 46.2177 125.004L45.809 125.744Z" fill="#013A37"/>
<path d="M110.845 47.5084C103.046 43.0902 99.4346 38.1086 100.396 33.1492C102.406 22.7664 124.287 13.5434 157.479 9.08105L157.589 9.89843C124.751 14.3166 103.157 23.2856 101.257 33.3039C100.362 37.8877 103.842 42.56 111.297 46.8015L110.845 47.5084Z" fill="#013A37"/>
<path d="M34.5315 170.688H33.7031C33.8025 115.14 54.6896 65.9987 91.0404 35.8665C121.868 10.2851 161.411 0.399408 202.368 8.02081L202.224 8.83818C161.5 1.26096 122.2 11.0473 91.5595 36.4519C55.4186 66.4847 34.6309 115.394 34.5315 170.688Z" fill="#013A37"/>
<path d="M1.46123 197.54H0.632812C0.732222 147.216 20.824 99.9193 57.23 64.3749C95.6573 26.8202 147.174 6.86093 202.302 8.0428V8.87121C147.383 7.6562 96.0881 27.5712 57.8264 64.9382C21.564 100.339 1.56063 147.371 1.46123 197.54Z" fill="#013A37"/>
<path d="M203.528 258.29C128.518 258.29 56.1035 246.582 20.9457 226.589L20.7358 226.468V226.258C20.9457 119.337 102.34 21.4521 202.247 8.02075H202.379L202.501 8.08703C251.51 35.9328 291.218 145.493 291.019 252.303V252.668H290.655C261.768 256.462 232.662 258.34 203.528 258.29ZM21.5311 225.982C70.4296 253.595 190.77 265.226 290.191 251.917C290.301 145.581 250.88 36.6507 202.213 8.91544C102.848 22.3026 21.8404 119.636 21.5311 225.982Z" fill="#013A37"/>
<path d="M203.495 153.026C138.735 153.026 76.2063 142.953 45.8091 125.688L46.2178 124.959C88.3232 148.939 192.604 158.98 278.604 147.404L278.715 148.232C253.774 151.487 228.646 153.088 203.495 153.026Z" fill="#013A37"/>
<path d="M203.064 63.5024C165.2 63.5024 128.628 57.6041 110.845 47.5085L111.253 46.7905C135.852 60.752 196.701 66.6724 246.914 59.8795L247.025 60.6968C232.449 62.6028 217.763 63.5401 203.064 63.5024Z" fill="#013A37"/>
<path d="M90.9627 248.349H90.1343C90.3331 141.517 140.579 33.7237 202.136 8.06494L202.456 8.83813C141.176 34.3533 91.1615 141.793 90.9627 248.349Z" fill="#013A37"/>
<path d="M187.644 257.682H186.815C187.014 150.972 193.785 39.1139 201.893 8.33008L202.699 8.53995C194.591 39.2575 187.843 151.027 187.644 257.682Z" fill="#013A37"/>
<path d="M290.191 252.767V252.292C290.39 145.736 250.869 36.5072 202.092 8.80507L200.987 8.19757L202.213 8.03189C248.604 1.80222 292.665 14.6592 326.409 44.2059C344.354 60.0226 358.543 79.6452 367.94 101.643C378.047 124.838 383.161 150.364 383.15 177.404C398.304 186.063 405.329 195.728 403.462 205.338C399.497 225.761 356.265 243.92 290.622 252.745L290.191 252.767ZM203.561 8.66148C252.006 37.3798 291.097 145.891 291.019 251.784C356.033 242.948 398.801 225.109 402.678 205.106C404.479 195.828 397.52 186.428 382.553 177.934L382.355 177.812V177.569C382.355 150.552 377.307 125.092 367.222 101.897C357.862 80.0253 343.742 60.5168 325.89 44.7913C292.665 15.6754 249.234 2.86259 203.561 8.66148Z" fill="#013A37"/>
<path d="M278.714 148.232L278.604 147.404C334.936 139.838 372.004 124.385 375.362 107.099C376.909 99.1241 370.944 91.0278 358.021 83.7046L358.429 82.9756C371.684 90.4976 377.792 98.8922 376.168 107.276C372.755 124.904 335.411 140.611 278.714 148.232Z" fill="#013A37"/>
<path d="M247.025 60.6969L246.914 59.8795C279.741 55.4613 301.346 46.4924 303.246 36.4631C304.13 31.8792 300.662 27.218 293.195 22.9765L293.603 22.2585C301.402 26.6767 305.024 31.6583 304.052 36.6177C302.086 47.0115 280.216 56.2345 247.025 60.6969Z" fill="#013A37"/>
<path d="M370.182 233.128H369.354C369.552 126.638 294.576 26.0139 202.224 8.83813L202.368 8.02075C295.095 25.2297 370.381 126.252 370.182 233.128Z" fill="#013A37"/>
<path d="M403.241 206.376H402.413C402.612 99.9194 312.834 11.3234 202.291 8.88237V8.05396C313.298 10.4619 403.44 99.4334 403.241 206.376Z" fill="#013A37"/>
</svg>
