<svg width="231" height="30" viewBox="0 0 231 30" fill="none" xmlns="http://www.w3.org/2000/svg">
<path fill-rule="evenodd" clip-rule="evenodd" d="M154.06 3.37262C153.979 3.49779 152.169 3.36191 150.039 3.0717C147.297 2.69779 146.133 2.75904 146.055 3.28035C145.974 3.82249 145.915 3.81923 145.831 3.26892C145.759 2.79645 144.948 2.48145 143.626 2.41297C141.183 2.28583 139.457 2.13024 138.947 1.99083C138.49 1.86601 128.461 1.14568 128.448 1.23676C128.443 1.27407 127.697 1.28152 126.791 1.25372C124.542 1.18468 124.612 1.14641 124.64 2.41793C124.658 3.28354 124.587 3.21648 124.336 2.13566C124.085 1.04953 123.759 0.749933 122.937 0.847763C122.348 0.91764 121.364 0.932965 120.75 0.88191C120.035 0.822107 119.592 1.09103 119.515 1.63114C119.371 2.63168 118.857 2.69293 118.845 1.71083C118.841 1.33329 118.439 0.986615 117.953 0.940181C114.982 0.655451 114.357 0.716466 114.072 1.31848C113.851 1.78634 113.788 1.75023 113.864 1.19764C113.94 0.642555 113.371 0.320219 111.958 0.117931C110.849 -0.0407838 109.832 -0.000632655 109.696 0.207129C109.56 0.41489 108.271 0.515539 106.831 0.431265C101.048 0.0911263 99.8674 0.160298 99.3226 0.871004C99.01 1.27868 98.7913 1.35385 98.8365 1.03826C98.8818 0.722032 98.6684 0.428146 98.3626 0.384361C98.0303 0.336776 97.8179 0.640698 97.8355 1.13825C97.8746 2.27076 97.6164 2.15117 97.2241 0.855793C96.9326 -0.106968 96.7555 -0.13943 95.4835 0.537486C94.7011 0.953414 93.929 1.0397 93.7581 0.729967C93.5878 0.420951 93.2874 0.264335 93.09 0.381936C92.8927 0.498905 91.9835 0.61527 91.0697 0.639968C87.5564 0.735835 85.747 0.918223 85.2684 1.22597C84.9951 1.40112 84.0959 1.39306 83.2703 1.20771C82.4446 1.02235 81.6543 1.12605 81.5144 1.43711C81.3741 1.74877 80.9588 1.82678 80.5908 1.61015C80.223 1.39419 79.1094 1.44836 78.1157 1.73012C77.1223 2.01256 75.6829 2.26341 74.9171 2.28801C74.1514 2.31262 73.1058 2.4217 72.5937 2.53038C72.0816 2.63907 70.8441 2.77038 69.8436 2.82268C66.7107 2.98465 61.7123 3.83987 61.2548 4.292C61.0923 4.45202 60.2622 4.57519 59.4103 4.56486C57.4832 4.54192 56.6815 4.79244 55.4067 5.81683C54.834 6.27699 54.4435 6.34821 54.4958 5.98266C54.6043 5.22498 52.0421 5.60678 51.7854 6.38648C51.6933 6.66631 51.45 6.71151 51.2445 6.48652C51.0055 6.22446 50.8127 6.48665 50.7084 7.2146C50.5538 8.29483 50.5342 8.29074 50.3151 7.12859C50.1645 6.33123 49.919 6.07018 49.6085 6.37876C49.3468 6.63883 48.715 6.88786 48.2045 6.93287C47.6942 6.97726 47.1968 7.27328 47.0987 7.59034C46.9942 7.9297 46.6804 7.90607 46.3369 7.53289C45.8054 6.95593 43.2518 7.53582 41.7884 8.56613C41.5123 8.76024 41.1164 8.8294 40.9087 8.72028C40.6734 8.59623 40.5736 8.82849 40.6443 9.33558C40.7269 9.93087 40.6251 9.99246 40.2656 9.5634C39.5524 8.71259 37.9 8.78256 36.7867 9.71068C36.256 10.153 35.4027 10.4548 34.8906 10.3815C34.3781 10.3081 32.7979 10.6575 31.379 11.1579C29.96 11.6576 28.4124 12.1679 27.9395 12.2912C27.4291 12.424 27.021 12.9264 26.9348 13.5285C26.8142 14.371 26.7319 14.3947 26.4508 13.6683C26.1939 13.0055 26.0034 12.9595 25.6658 13.4766C25.4203 13.8525 24.9066 14.1152 24.5244 14.0605C23.1978 13.8706 21.0094 14.981 20.8761 15.912C20.8008 16.4382 20.6297 16.6118 20.4705 16.3238C20.3193 16.0497 19.9415 16.3242 19.6308 16.9341C19.3204 17.5448 19.1149 17.7045 19.1742 17.2902C19.2335 16.876 18.9503 16.4895 18.5449 16.4314C18.1395 16.3733 17.7626 16.6408 17.7075 17.026C17.6523 17.4111 17.4223 17.5234 17.1965 17.2762C16.4594 16.4684 15.2642 17.2835 15.0447 18.7429C14.8454 20.0692 14.8362 20.0704 14.5842 18.8067C14.3298 17.5298 14.3254 17.5292 14.1469 18.7441C14.0135 19.6505 13.9331 19.743 13.8389 19.0982C13.7345 18.3856 13.4727 18.3901 12.4103 19.1241C11.695 19.6187 10.4591 20.3098 9.66414 20.6607C6.35907 22.1179 5.08532 23.2231 5.1019 24.6183C5.10688 25.0269 4.92024 25.5507 4.68722 25.7826C4.41813 26.05 4.37855 25.9482 4.5788 25.5038C5.57963 23.2784 3.2905 23.4953 1.96456 25.751C1.57586 26.4124 1.29876 26.5844 1.29378 26.1674C1.28921 25.7769 0.988267 26.1869 0.624983 27.0785C0.0598052 28.4659 0.0129165 28.787 0.299154 29.3056C0.782472 30.1816 1.8327 29.0928 2.09354 27.4456C2.28751 26.2213 2.32085 26.1944 2.3616 27.2316C2.41724 28.6357 2.7656 28.8107 3.27778 27.6926C3.52994 27.1421 3.6152 27.1246 3.545 27.638C3.47008 28.1842 3.70055 28.174 4.3824 27.6004C4.89999 27.1653 5.55579 26.8409 5.83982 26.879C6.12375 26.9177 6.41624 26.5311 6.48941 26.02C6.57038 25.4546 6.77478 25.2586 7.01259 25.5186C7.22715 25.7539 7.66495 25.7688 7.98567 25.5527C8.3062 25.3359 8.9116 25.1135 9.3308 25.0586C10.4457 24.9117 11.6765 23.7151 11.6448 22.8083C11.6288 22.3523 11.8159 22.1196 12.0895 22.2556C12.3494 22.3844 12.7176 22.0454 12.9079 21.5021C13.2088 20.6429 13.2357 20.6609 13.1139 21.6394C13.0018 22.5398 13.1731 22.7328 13.9743 22.6081C16.6387 22.1931 19.2826 20.4838 19.2657 19.1879C19.2575 18.5601 19.353 18.4711 19.5827 18.8926C20.0303 19.7131 20.6472 19.9692 21.0947 19.5195C21.2989 19.3145 21.7363 19.1512 22.0665 19.1572C22.5753 19.1655 24.8486 18.5216 28.1825 17.4242C28.6166 17.2817 29.3265 17.0529 29.7599 16.9155C30.1932 16.7788 30.6902 16.3678 30.8642 16.0016C31.0795 15.549 31.144 15.6009 31.0665 16.1648C31.0037 16.6206 31.1239 16.823 31.3338 16.6142C31.5435 16.4061 31.7264 15.6985 31.7403 15.0428C31.7676 13.7255 32.2273 13.7365 32.6722 15.0658C33.0209 16.1084 33.4409 16.1828 35.2431 15.5185C36.0194 15.2328 36.7071 14.6309 36.7715 14.1813C36.8905 13.3502 37.6014 13.3791 37.8574 14.2245C37.9346 14.4795 38.2213 14.396 38.4943 14.0401C38.8611 13.5614 38.9635 13.5838 38.8861 14.1246C38.8143 14.6255 38.9708 14.693 39.3821 14.3382C40.0807 13.736 41.6188 13.3205 43.472 13.2354C44.1913 13.2016 44.9951 12.894 45.2583 12.5502C45.5217 12.2071 46.3355 11.897 47.0669 11.8623C47.7986 11.8271 48.5008 11.7843 48.6272 11.7669C48.7536 11.7502 48.9381 11.2396 49.0365 10.6321C49.1833 9.72892 49.2275 9.70557 49.2803 10.5057C49.345 11.4825 50.6464 11.9412 51.6236 11.3311C52.3198 10.8964 54.8488 10.5473 57.1241 10.5717C58.1847 10.5828 59.25 10.3346 59.4913 10.0199C59.7325 9.70531 60.2443 9.51849 60.6285 9.60513C61.7521 9.85767 67.1169 9.12138 67.347 8.68317C67.4626 8.46221 67.8885 8.33344 68.2933 8.39592C68.698 8.45904 69.3193 8.1401 69.6737 7.68677C70.1668 7.05709 70.2911 7.05294 70.2029 7.66832C70.1252 8.2116 70.3234 8.35938 70.8146 8.12508C71.2145 7.93386 71.9584 7.86869 72.4678 7.98036C72.9772 8.09203 73.5204 7.90261 73.6745 7.56001C73.8594 7.14889 74.1072 7.17082 74.4007 7.62398C74.6459 8.00246 74.9664 8.12838 75.113 7.90346C75.2598 7.67922 75.9474 7.49371 76.6409 7.49232C78.634 7.48727 80.9121 7.38555 81.0896 7.29287C81.1791 7.24629 81.6761 7.32005 82.1945 7.45753C82.7346 7.6007 83.1805 7.40122 83.2395 6.98949C83.2961 6.59421 83.4499 6.46585 83.5813 6.70411C83.7127 6.94236 83.8634 6.8355 83.9161 6.46742C83.9688 6.09933 84.1526 5.81779 84.3242 5.84236C84.4959 5.86694 84.5138 6.15994 84.3637 6.49344C84.2137 6.82693 84.3643 7.13893 84.6981 7.18673C85.0319 7.23453 85.336 7.05864 85.3736 6.79617C85.4112 6.53307 86.3416 6.42037 87.4406 6.54548C88.5398 6.66996 90.0005 6.63579 90.6864 6.46938C91.3721 6.30359 92.2356 6.23554 92.6052 6.3188C93.0212 6.41257 93.2391 6.19593 93.1767 5.7507C93.1049 5.23311 93.2191 5.25077 93.5831 5.81277C94.1611 6.70618 96.7454 7.23564 96.8532 6.48302C96.9634 5.71333 98.2199 5.87195 98.5391 6.69603C98.7276 7.18257 98.8553 7.21118 98.917 6.78048C98.9682 6.42251 99.2542 6.31694 99.5526 6.5449C99.8508 6.77349 100.13 6.71346 100.173 6.41241C100.217 6.11073 101.174 6.03414 102.3 6.24253C103.754 6.51145 104.32 6.40526 104.25 5.87642C104.197 5.46665 104.321 5.55484 104.528 6.07102C104.734 6.58783 104.938 6.76231 104.982 6.45873C105.025 6.15583 105.948 6.02466 107.033 6.16769C108.347 6.34099 109.084 6.16839 109.242 5.65017C109.424 5.05408 109.552 5.05874 109.788 5.66828C109.958 6.10565 110.134 6.21544 110.18 5.9122C110.226 5.60963 110.326 5.78919 110.402 6.31255C110.513 7.07453 110.708 7.14123 111.382 6.64787C112.024 6.17828 112.233 6.21657 112.261 6.81042C112.284 7.3172 112.413 7.38022 112.631 6.99121C112.814 6.66253 113.565 6.46016 114.298 6.54189C115.031 6.62362 115.985 6.5789 116.418 6.4428C116.852 6.30669 117.329 6.49707 117.48 6.86651C117.659 7.30455 118.074 7.36269 118.676 7.03392C119.183 6.75738 120.157 6.7238 120.839 6.95967C121.522 7.19618 122.532 7.20208 123.085 6.97395C123.637 6.74514 124.337 6.82092 124.641 7.14261C125.114 7.64211 125.202 7.52436 125.251 6.33026C125.296 5.25039 125.347 5.14929 125.477 5.88559C125.684 7.06093 127.372 7.69234 127.527 6.65348C127.591 6.22505 127.701 6.32986 127.787 6.90251C127.87 7.44679 127.975 7.64385 128.021 7.34128C128.067 7.03804 128.244 7.1499 128.414 7.58997C128.769 8.50632 129.363 7.59605 129.195 6.39159C129.14 5.99185 129.375 6.20879 129.718 6.87363C130.284 7.97057 130.925 8.1192 136.671 8.48307C140.152 8.70339 143.297 8.94009 143.66 9.0088C144.023 9.07688 144.356 8.87865 144.4 8.56748C144.445 8.25631 144.688 8.03171 144.941 8.06789C145.194 8.10408 145.288 8.38352 145.151 8.68852C144.792 9.48591 148.425 9.56598 148.944 8.77212C149.222 8.34656 149.521 8.34809 149.798 8.77701C150.033 9.13975 150.67 9.50983 151.214 9.59933C151.758 9.6895 152.757 9.91262 153.435 10.0954C154.366 10.3475 154.7 10.1972 154.806 9.48049C154.91 8.77961 154.978 8.74475 155.066 9.34667C155.193 10.2129 156.505 10.4718 164.777 11.2658C170.263 11.7918 169.802 11.733 173.617 12.4C175.835 12.7879 176.74 12.7225 176.911 12.1617C177.041 11.7368 177.269 11.4061 177.417 11.4274C177.566 11.4486 177.603 11.8174 177.501 12.2461C177.273 13.1952 179.226 13.6188 179.685 12.7202C179.877 12.3449 179.952 12.4087 179.886 12.8911C179.821 13.3651 180.183 13.6873 180.824 13.7276C181.399 13.7627 181.9 13.5699 181.939 13.2979C181.978 13.0266 182.286 13.0042 182.623 13.2475C183.538 13.9083 189.184 14.6006 189.675 14.1126C189.945 13.8446 189.986 13.9436 189.789 14.382C189.344 15.3715 191.675 15.291 192.442 14.2901C192.95 13.6277 193.022 13.6509 192.91 14.4377C192.815 15.0961 193.079 15.3836 193.813 15.4196C194.382 15.4482 194.95 15.3165 195.073 15.1276C195.197 14.9381 195.753 15.0901 196.31 15.4654C196.866 15.8401 197.911 16.0619 198.632 15.9573C199.78 15.7913 199.975 15.5655 200.213 14.1196C200.476 12.5244 200.482 12.533 200.403 14.3722C200.325 16.2216 200.374 16.2849 202.216 16.6984C203.258 16.9321 204.359 17.2814 204.662 17.4733C204.965 17.6659 205.384 17.6109 205.592 17.3516C205.995 16.8503 206.639 17.009 207.036 17.7067C207.168 17.9393 207.692 18.0602 208.201 17.9756C208.71 17.8915 209.252 17.8834 209.407 17.9572C209.562 18.0311 211.001 18.3836 212.605 18.7398C214.209 19.0966 215.941 19.6292 216.453 19.9239C217.128 20.3123 217.582 20.1824 218.1 19.453C218.568 18.7952 218.778 18.7161 218.705 19.2253C218.633 19.7249 218.96 19.9893 219.619 19.9622C220.183 19.9397 220.811 20.3517 221.015 20.8779C221.333 21.7006 221.442 21.7129 221.784 20.9661C222.06 20.3621 222.148 20.338 222.073 20.8874C222.013 21.3229 222.239 21.7179 222.574 21.7659C223.058 21.8353 223.192 21.5562 223.223 20.4066C223.244 19.6113 223.287 19.327 223.318 19.7749C223.349 20.2233 223.504 20.6082 223.662 20.6308C223.82 20.6535 223.915 20.3043 223.872 19.8542C223.83 19.4047 223.955 19.7479 224.15 20.6182C224.454 21.9712 224.553 22.0551 224.836 21.2004C225.243 19.9679 225.995 19.9942 226.038 21.2429C226.071 22.1892 226.568 22.3366 227.288 21.6141C227.794 21.1051 228.619 21.9241 228.774 23.0893C228.928 24.2506 230.298 24.4191 230.459 23.2965C230.649 21.9683 230.117 20.9775 228.896 20.391C228.289 20.0994 227.428 19.5599 226.984 19.193C226.54 18.826 225.979 18.4945 225.736 18.4559C225.493 18.4179 224.99 18.1465 224.619 17.8525C223.556 17.0137 221.004 15.7272 219.426 15.2354C218.634 14.9883 217.414 14.5251 216.715 14.2056C216.016 13.8861 213.276 13.1664 210.625 12.6055C207.975 12.0453 205.16 11.3705 204.37 11.107C200.773 9.90529 194.231 8.73681 193.694 9.20072C193.369 9.48139 192.973 9.47436 192.813 9.18625C192.654 8.89756 191.83 8.74919 190.981 8.85684C190.133 8.96453 189.409 8.8376 189.373 8.57487C189.306 8.09607 154.34 2.9447 154.06 3.37262ZM193.236 11.1107C193.286 11.4729 193.187 11.7491 193.015 11.7246C192.843 11.7 192.743 11.3953 192.793 11.0474C192.843 10.6996 192.942 10.4233 193.014 10.4336C193.086 10.4438 193.185 10.7485 193.236 11.1107ZM207.56 15.0981C207.287 15.7689 207.014 16.3108 206.954 16.3021C206.893 16.2935 206.995 15.7272 207.18 15.0436C207.364 14.3601 207.637 13.8183 207.786 13.8396C207.935 13.861 207.834 14.4242 207.56 15.0981ZM183.086 11.5936C183.036 11.9415 182.937 12.2177 182.865 12.2075C182.794 12.1972 182.694 11.8925 182.643 11.5303C182.593 11.1681 182.692 10.8919 182.864 10.9165C183.036 10.941 183.136 11.2458 183.086 11.5936ZM139.304 6.3307C139.226 6.87271 139.055 7.12187 138.924 6.88361C138.793 6.64536 138.723 6.18301 138.77 5.8554C138.817 5.52779 138.988 5.27926 139.15 5.30248C139.312 5.3257 139.382 5.78868 139.304 6.3307ZM227.12 22.4272C226.967 22.7662 226.743 22.8624 226.621 22.6403C226.498 22.4188 226.355 22.539 226.302 22.9071C226.164 23.8741 226.643 23.7955 227.227 22.7549C227.503 22.262 227.655 21.848 227.563 21.8349C227.472 21.8219 227.272 22.0882 227.12 22.4272ZM87.5272 4.36474C87.4774 4.71259 87.3783 4.98883 87.3066 4.97857C87.235 4.96831 87.1354 4.66361 87.0849 4.3014C87.0345 3.9392 87.1339 3.663 87.3055 3.68757C87.4771 3.71214 87.577 4.01689 87.5272 4.36474ZM9.67844 23.0469C9.40209 23.4701 9.25933 23.4877 9.31603 23.0918C9.43693 22.2475 9.89289 21.5493 10.0291 21.9999C10.0871 22.1915 9.92935 22.6627 9.67844 23.0469Z" fill="url(#paint0_linear_220_388)"/>
<defs>
<linearGradient id="paint0_linear_220_388" x1="3.77981" y1="3.11793" x2="64.1395" y2="-81.7436" gradientUnits="userSpaceOnUse">
<stop stop-color="#3FE6DC"/>
<stop offset="0.52863" stop-color="#76D742"/>
<stop offset="1" stop-color="#DBF53C"/>
</linearGradient>
</defs>
</svg>
