<svg width="116" height="117" viewBox="0 0 116 117" fill="none" xmlns="http://www.w3.org/2000/svg">
<rect y="0.5" width="116" height="116" rx="58" fill="#013A37"/>
<path d="M57.9998 31.9166C47.3217 31.9166 38.6665 40.5724 38.6665 51.25C38.6665 61.9281 47.3223 70.5833 57.9998 70.5833C68.6774 70.5833 77.3332 61.9275 77.3332 51.25C77.3332 40.5719 68.6774 31.9166 57.9998 31.9166ZM66.5004 49.6757L62.9677 53.1199L63.8022 57.9816C63.9416 58.7907 63.0913 59.407 62.3668 59.0244L57.9999 56.7289L53.6326 59.0244C52.9058 59.4053 52.0577 58.7885 52.1971 57.9816L53.0316 53.1199L49.4989 49.6757C48.9116 49.1024 49.2359 48.1048 50.0468 47.9869L54.9282 47.2781L57.1119 42.8542C57.4753 42.1179 58.5237 42.1179 58.887 42.8542L61.0707 47.2781L65.9522 47.9869C66.7635 48.1048 67.0873 49.1041 66.5004 49.6757Z" fill="url(#paint0_linear_725_943)"/>
<path d="M57.999 73.5277C53.793 73.5277 49.8714 72.3359 46.5112 70.3013V85.8577C46.5112 86.6826 47.4343 87.1736 48.1216 86.7216L57.4291 80.6146C57.7824 80.3788 58.2146 80.3788 58.5678 80.6146L67.8753 86.7216C68.5626 87.1731 69.4857 86.6822 69.4857 85.8577V70.3013C66.1261 72.3355 62.2044 73.5277 57.9979 73.5277H57.999Z" fill="url(#paint1_linear_725_943)"/>
<defs>
<linearGradient id="paint0_linear_725_943" x1="38.6665" y1="49.1018" x2="71.7761" y2="35.5374" gradientUnits="userSpaceOnUse">
<stop stop-color="#3FE6DC"/>
<stop offset="0.52863" stop-color="#76D742"/>
<stop offset="1" stop-color="#DBF53C"/>
</linearGradient>
<linearGradient id="paint1_linear_725_943" x1="46.5112" y1="77.6756" x2="63.8926" y2="67.8159" gradientUnits="userSpaceOnUse">
<stop stop-color="#3FE6DC"/>
<stop offset="0.52863" stop-color="#76D742"/>
<stop offset="1" stop-color="#DBF53C"/>
</linearGradient>
</defs>
</svg>
