<svg width="34" height="34" viewBox="0 0 34 34" fill="none" xmlns="http://www.w3.org/2000/svg">
<path d="M15.333 18.6668V23.6668C15.333 24.139 15.493 24.5352 15.813 24.8552C16.133 25.1752 16.5286 25.3346 16.9997 25.3335C17.4719 25.3335 17.868 25.1735 18.188 24.8535C18.508 24.5335 18.6675 24.1379 18.6663 23.6668V18.6668H23.6663C24.1386 18.6668 24.5347 18.5068 24.8547 18.1868C25.1747 17.8668 25.3341 17.4713 25.333 17.0002C25.333 16.5279 25.173 16.1318 24.853 15.8118C24.533 15.4918 24.1375 15.3324 23.6663 15.3335H18.6663V10.3335C18.6663 9.86127 18.5063 9.46516 18.1863 9.14516C17.8663 8.82516 17.4708 8.66572 16.9997 8.66683C16.5275 8.66683 16.1313 8.82683 15.8113 9.14683C15.4913 9.46683 15.3319 9.86238 15.333 10.3335V15.3335H10.333C9.86079 15.3335 9.46467 15.4935 9.14467 15.8135C8.82467 16.1335 8.66523 16.5291 8.66634 17.0002C8.66634 17.4724 8.82634 17.8685 9.14634 18.1885C9.46634 18.5085 9.8619 18.6679 10.333 18.6668H15.333ZM16.9997 33.6668C14.6941 33.6668 12.5275 33.2291 10.4997 32.3535C8.4719 31.4779 6.70801 30.2907 5.20801 28.7918C3.70801 27.2918 2.52079 25.5279 1.64634 23.5002C0.771897 21.4724 0.334119 19.3057 0.333008 17.0002C0.333008 14.6946 0.770786 12.5279 1.64634 10.5002C2.5219 8.47239 3.70912 6.7085 5.20801 5.2085C6.70801 3.7085 8.4719 2.52127 10.4997 1.64683C12.5275 0.772385 14.6941 0.334607 16.9997 0.333496C19.3052 0.333496 21.4719 0.771274 23.4997 1.64683C25.5275 2.52239 27.2913 3.70961 28.7913 5.2085C30.2913 6.7085 31.4791 8.47239 32.3547 10.5002C33.2302 12.5279 33.6674 14.6946 33.6663 17.0002C33.6663 19.3057 33.2286 21.4724 32.353 23.5002C31.4775 25.5279 30.2902 27.2918 28.7913 28.7918C27.2913 30.2918 25.5275 31.4796 23.4997 32.3552C21.4719 33.2307 19.3052 33.6679 16.9997 33.6668ZM16.9997 30.3335C20.7219 30.3335 23.8747 29.0418 26.458 26.4585C29.0413 23.8752 30.333 20.7224 30.333 17.0002C30.333 13.2779 29.0413 10.1252 26.458 7.54183C23.8747 4.9585 20.7219 3.66683 16.9997 3.66683C13.2775 3.66683 10.1247 4.9585 7.54134 7.54183C4.95801 10.1252 3.66634 13.2779 3.66634 17.0002C3.66634 20.7224 4.95801 23.8752 7.54134 26.4585C10.1247 29.0418 13.2775 30.3335 16.9997 30.3335Z" fill="#013A37"/>
</svg>
