<svg width="154" height="131" viewBox="0 0 154 131" fill="none" xmlns="http://www.w3.org/2000/svg">
<g opacity="0.1" clip-path="url(#clip0_225_179)">
<path fill-rule="evenodd" clip-rule="evenodd" d="M0.675385 110.325C23.64 99.0128 35.1221 85.7209 35.1221 70.4492C25.3339 69.3179 17.2399 65.3115 10.84 58.4298C4.44002 51.548 1.2401 43.5823 1.2401 34.5324C1.2401 24.9168 4.3459 16.8097 10.5576 10.2108C16.7694 3.61191 24.581 0.3125 33.9927 0.3125C44.5338 0.3125 53.663 4.60173 61.3806 13.1803C69.0982 21.7589 72.957 32.1756 72.957 44.4307C72.957 81.1961 52.4398 109.948 11.4047 130.688L0.675385 110.325ZM81.7184 110.325C104.871 99.0128 116.447 85.7209 116.447 70.4492C106.471 69.3179 98.283 65.3115 91.883 58.4298C85.483 51.548 82.2831 43.5823 82.2831 34.5324C82.2831 24.9168 85.436 16.8097 91.7418 10.2108C98.0477 3.61191 105.906 0.3125 115.318 0.3125C125.859 0.3125 134.941 4.60173 142.565 13.1803C150.188 21.7589 154 32.1756 154 44.4307C154 81.1961 133.577 109.948 92.73 130.688L81.7184 110.325Z" fill="#013A37"/>
</g>
<defs>
<clipPath id="clip0_225_179">
<rect width="154" height="130.375" fill="white" transform="matrix(-1 0 0 -1 154 130.688)"/>
</clipPath>
</defs>
</svg>
