<svg width="170" height="286" viewBox="0 0 170 286" fill="none" xmlns="http://www.w3.org/2000/svg">
<path d="M167.669 35.4246C138.166 5.36659 101.623 -6.6072 86.0484 8.68011C70.4736 23.9674 81.7644 60.7269 111.268 90.7849C127.802 107.63 146.551 116.04 153.144 109.569C159.737 103.097 151.677 84.1955 135.143 67.3502C105.64 37.2921 69.0972 25.3184 53.5224 40.6057C37.9476 55.8931 49.2381 92.6528 78.7413 122.711C95.2757 139.556 114.024 147.966 120.618 141.494C127.211 135.023 119.152 116.121 102.617 99.2757C73.114 69.2177 36.4938 57.32 20.8235 72.701C5.1533 88.082 16.3663 124.918 45.8695 154.976C62.4039 171.821 81.1526 180.231 87.7459 173.759C94.3391 167.288 86.2791 148.387 69.7448 131.541C40.2416 101.483 3.69938 89.5091 -11.8755 104.796C-27.4504 120.084 -16.1589 156.843 13.3443 186.901C29.8786 203.746 48.6264 212.157 55.2196 205.685C61.8129 199.214 53.7539 180.312 37.2196 163.466C7.71633 133.408 -28.8268 121.435 -44.4017 136.722C-59.9766 152.01 -48.6852 188.769 -19.1819 218.827C-2.64758 235.672 16.1012 244.082 22.6934 237.611C29.2866 231.14 21.2277 212.237 4.69332 195.392C-24.8099 165.334 -61.3531 153.361 -76.927 168.647C-92.5019 183.935 -81.2114 220.694 -51.7082 250.752C-35.1738 267.598 -16.4251 276.007 -9.83182 269.536C-3.23958 263.065 -11.2985 244.163 -27.8329 227.318C-57.3361 197.26 -93.9558 185.362 -109.626 200.743C-125.296 216.124 -114.083 252.96 -84.58 283.018" stroke="url(#paint0_linear_220_397)" stroke-width="4" stroke-linecap="round"/>
<defs>
<linearGradient id="paint0_linear_220_397" x1="2.13833" y1="91.0413" x2="95.4354" y2="163.099" gradientUnits="userSpaceOnUse">
<stop stop-color="#3FE6DC"/>
<stop offset="0.52863" stop-color="#76D742"/>
<stop offset="1" stop-color="#DBF53C"/>
</linearGradient>
</defs>
</svg>
