<svg width="22" height="22" viewBox="0 0 22 22" fill="none" xmlns="http://www.w3.org/2000/svg">
<path d="M9.58579 11L7.46447 13.1214C7.26412 13.3217 7.16395 13.5577 7.16395 13.8292C7.16395 14.1007 7.26412 14.3362 7.46447 14.5356C7.66481 14.7359 7.90075 14.8361 8.17228 14.8361C8.44381 14.8361 8.67928 14.7359 8.87868 14.5356L11 12.4143L13.1213 14.5356C13.3217 14.7359 13.5576 14.8361 13.8291 14.8361C14.1007 14.8361 14.3361 14.7359 14.5355 14.5356C14.7359 14.3352 14.8361 14.0993 14.8361 13.8278C14.8361 13.5562 14.7359 13.3208 14.5355 13.1214L12.4142 11L14.5355 8.87873C14.7359 8.67838 14.8361 8.44244 14.8361 8.17091C14.8361 7.89938 14.7359 7.66392 14.5355 7.46451C14.3352 7.26416 14.0992 7.16399 13.8277 7.16399C13.5562 7.16399 13.3207 7.26416 13.1213 7.46451L11 9.58583L8.87868 7.46451C8.67833 7.26416 8.4424 7.16399 8.17087 7.16399C7.89934 7.16399 7.66387 7.26417 7.46447 7.46451C7.26412 7.66486 7.16395 7.9008 7.16395 8.17233C7.16395 8.44386 7.26412 8.67932 7.46447 8.87873L9.58579 11ZM3.92893 18.0711C2.95077 17.0929 2.21726 15.988 1.72842 14.7562C1.23957 13.5244 0.99491 12.2724 0.994439 11C0.994438 9.72725 1.2391 8.4752 1.72842 7.24389C2.21773 6.01259 2.95124 4.90761 3.92893 3.92898C4.9071 2.95081 6.01207 2.21731 7.24385 1.72846C8.47563 1.23962 9.72768 0.994956 11 0.994485C12.2728 0.994485 13.5248 1.23914 14.7562 1.72846C15.9875 2.21778 17.0924 2.95128 18.0711 3.92898C19.0492 4.90714 19.7827 6.01212 20.2716 7.24389C20.7604 8.47567 21.0051 9.72773 21.0056 11C21.0056 12.2728 20.7611 13.5251 20.2723 14.7569C19.7834 15.9887 19.0497 17.0934 18.0711 18.0711C17.0929 19.0493 15.9879 19.7828 14.7562 20.2716C13.5244 20.7605 12.2723 21.0051 11 21.0056C9.72721 21.0056 8.47492 20.7612 7.24314 20.2723C6.01136 19.7835 4.90662 19.0497 3.92893 18.0711ZM5.34315 16.6569C6.92235 18.2361 8.80797 19.0257 11 19.0257C13.192 19.0257 15.0776 18.2361 16.6569 16.6569C18.2361 15.0777 19.0257 13.1921 19.0257 11C19.0257 8.80801 18.2361 6.9224 16.6569 5.34319C15.0776 3.76399 13.192 2.97438 11 2.97438C8.80797 2.97438 6.92235 3.76399 5.34315 5.34319C3.76394 6.9224 2.97434 8.80801 2.97434 11C2.97434 13.1921 3.76394 15.0777 5.34315 16.6569Z" fill="#013A37"/>
</svg>
