<svg width="43" height="51" viewBox="0 0 43 51" fill="none" xmlns="http://www.w3.org/2000/svg">
<path fill-rule="evenodd" clip-rule="evenodd" d="M1.67347 21.5879C0.842398 21.8139 0.326772 22.6432 0.491749 23.4885L5.40799 48.6781C5.59085 49.615 6.53087 50.1995 7.45205 49.949L28.9681 44.0988C29.7992 43.8728 30.3148 43.0435 30.1499 42.1982L29.4909 38.8221C29.3081 37.8852 28.3681 37.3007 27.4469 37.5511L10.9556 42.0351L7.98846 26.8321L22.9356 22.768L23.7133 26.7526L18.0205 28.3005C17.1894 28.5265 16.6738 29.3557 16.8388 30.201L17.4977 33.5772C17.6806 34.5141 18.6206 35.0986 19.5417 34.8481L41.0578 28.9979C41.8889 28.7719 42.4045 27.9427 42.2396 27.0974L37.3233 1.90778C37.1405 0.970841 36.2004 0.386353 35.2793 0.636822L10.5136 7.37064C9.68248 7.59661 9.16686 8.42588 9.33184 9.27118L11.2286 18.9899L1.67347 21.5879ZM17.7279 17.2227L26.4392 14.8541C27.3604 14.6036 28.3004 15.1881 28.4832 16.1251L30.2125 24.9855L34.7428 23.7537L31.7757 8.55071L16.8285 12.6149L17.7279 17.2227Z" fill="url(#paint0_linear_262_183)"/>
<defs>
<linearGradient id="paint0_linear_262_183" x1="3.88582" y1="49.2558" x2="4.15066" y2="-1.14663" gradientUnits="userSpaceOnUse">
<stop stop-color="#3FE6DC"/>
<stop offset="0.52863" stop-color="#76D742"/>
<stop offset="1" stop-color="#DBF53C"/>
</linearGradient>
</defs>
</svg>
