<svg width="116" height="117" viewBox="0 0 116 117" fill="none" xmlns="http://www.w3.org/2000/svg">
<g clip-path="url(#clip0_725_952)">
<rect y="0.166626" width="116" height="116" rx="58" fill="#013A37"/>
<path d="M77.3357 70.2502C78.7213 70.2502 79.8893 70.7336 80.8399 71.7002C81.7904 72.6669 82.2576 73.7947 82.2415 75.0836L62.8357 82.3336L45.919 77.5002V55.7502H50.6315L68.2007 62.2511C69.4574 62.7505 70.0857 63.6527 70.0857 64.9577C70.0857 65.715 69.8118 66.3755 69.264 66.9394C68.7163 67.5033 68.0235 67.8014 67.1857 67.8336H60.419L56.1899 66.2144L55.3924 68.4861L60.419 70.2502H77.3357ZM67.669 36.9727C69.3768 34.9911 71.5518 34.0002 74.194 34.0002C76.3851 34.0002 78.2379 34.8058 79.7524 36.4169C81.2668 38.028 82.0724 39.8808 82.169 41.9752C82.169 43.6347 81.3635 45.6164 79.7524 47.9202C78.1413 50.2241 76.5543 52.1494 74.9915 53.6961C73.4288 55.2427 70.9879 57.5386 67.669 60.5836C64.3179 57.5386 61.8529 55.2427 60.274 53.6961C58.6951 52.1494 57.1082 50.2241 55.5132 47.9202C53.9182 45.6164 53.1368 43.6347 53.169 41.9752C53.169 39.7841 53.9504 37.9314 55.5132 36.4169C57.076 34.9025 58.961 34.0969 61.1682 34.0002C63.746 34.0002 65.9129 34.9911 67.669 36.9727ZM31.3804 55.7502H41.0857V82.3336H31.3804V55.7502Z" fill="url(#paint0_linear_725_952)"/>
</g>
<defs>
<linearGradient id="paint0_linear_725_952" x1="31.3804" y1="55.4817" x2="74.2705" y2="36.9913" gradientUnits="userSpaceOnUse">
<stop stop-color="#3FE6DC"/>
<stop offset="0.52863" stop-color="#76D742"/>
<stop offset="1" stop-color="#DBF53C"/>
</linearGradient>
<clipPath id="clip0_725_952">
<rect width="116" height="116" fill="white" transform="translate(0 0.166626)"/>
</clipPath>
</defs>
</svg>
