<svg width="116" height="117" viewBox="0 0 116 117" fill="none" xmlns="http://www.w3.org/2000/svg">
<rect y="0.833374" width="116" height="116" rx="58" fill="#013A37"/>
<path d="M34.9209 55.3893L45.0709 45.2393C45.6348 44.6755 46.2994 44.2727 47.0647 44.031C47.83 43.7893 48.6154 43.7491 49.4209 43.9102L52.5626 44.5748C50.3876 47.1525 48.6758 49.4886 47.4272 51.5831C46.1786 53.6775 44.9702 56.215 43.8022 59.1956L34.9209 55.3893ZM47.3063 60.8873C48.2327 57.9873 49.4918 55.2484 51.0836 52.6706C52.6754 50.0928 54.5982 47.6761 56.8522 45.4206C60.3966 41.8761 64.4445 39.2275 68.9959 37.4746C73.5473 35.7217 77.7966 35.1884 81.7438 35.8748C82.4286 39.822 81.905 44.0713 80.173 48.6227C78.4411 53.1741 75.8029 57.222 72.2584 60.7664C70.0431 62.9817 67.6265 64.9054 65.0084 66.5374C62.3904 68.1695 59.6313 69.4479 56.7313 70.3727L47.3063 60.8873ZM63.9813 53.6373C64.9077 54.5636 66.046 55.0268 67.3961 55.0268C68.7462 55.0268 69.8836 54.5636 70.8084 53.6373C71.7348 52.7109 72.198 51.5734 72.198 50.2249C72.198 48.8764 71.7348 47.7382 70.8084 46.8102C69.882 45.8838 68.7438 45.4206 67.3937 45.4206C66.0436 45.4206 64.9061 45.8838 63.9813 46.8102C63.055 47.7366 62.5918 48.8748 62.5918 50.2249C62.5918 51.575 63.055 52.7125 63.9813 53.6373ZM62.2897 82.6977L58.423 73.8164C61.4036 72.6484 63.9515 71.44 66.0669 70.1914C68.1823 68.9428 70.5281 67.231 73.1043 65.056L73.7084 68.1977C73.8695 69.0032 73.8293 69.7991 73.5876 70.5853C73.3459 71.3716 72.9432 72.0458 72.3793 72.6081L62.2897 82.6977ZM38.7876 68.6206C40.1973 67.2109 41.9091 66.4955 43.923 66.4746C45.9369 66.4536 47.6487 67.1488 49.0584 68.5602C50.4682 69.9699 51.173 71.6817 51.173 73.6956C51.173 75.7095 50.4682 77.4213 49.0584 78.831C48.0515 79.8379 46.3703 80.7039 44.0148 81.4289C41.6594 82.1539 38.4066 82.7984 34.2563 83.3622C34.8202 79.2136 35.4647 75.9713 36.1897 73.6352C36.9147 71.2991 37.7807 69.6275 38.7876 68.6206Z" fill="url(#paint0_linear_725_949)"/>
<defs>
<linearGradient id="paint0_linear_725_949" x1="34.2563" y1="56.8194" x2="75.1679" y2="40.0582" gradientUnits="userSpaceOnUse">
<stop stop-color="#3FE6DC"/>
<stop offset="0.52863" stop-color="#76D742"/>
<stop offset="1" stop-color="#DBF53C"/>
</linearGradient>
</defs>
</svg>
