<svg width="44" height="45" viewBox="0 0 44 45" fill="none" xmlns="http://www.w3.org/2000/svg">
<path d="M43.5125 31.2543L37.2557 18.2618C36.9365 17.5914 37.543 16.8572 38.2453 17.0168L41.3099 17.7191C41.7887 17.8149 42.2676 17.5276 42.3633 17.0487L43.2891 13.0584C43.3848 12.5796 43.0976 12.1007 42.6187 12.005L28.5409 8.7808C27.8066 8.62119 27.6151 7.69543 28.1897 7.21659L30.6478 5.26932C31.0308 4.95009 31.0947 4.40741 30.7754 4.02434L28.2216 0.832083C27.9024 0.449013 27.3597 0.385168 26.9767 0.704393L15.708 9.70655C15.1334 10.1854 14.2715 9.7704 14.2715 9.00426V5.84392C14.2715 5.36509 13.8884 4.95009 13.3777 4.95009H9.29156C8.81272 4.95009 8.39773 5.33316 8.39773 5.84392V20.2729C8.39773 21.0071 7.53582 21.4221 6.96122 20.9752L4.50318 19.0279C4.12011 18.7087 3.57742 18.7726 3.2582 19.1556L0.704392 22.3479C0.385166 22.731 0.449014 23.2736 0.832085 23.5929L12.1007 32.595C12.6754 33.0739 12.4838 33.9996 11.7496 34.1592L8.68503 34.8615C8.20619 34.9573 7.91889 35.4361 8.01466 35.915L8.94041 39.9053C9.03618 40.3841 9.51502 40.6714 9.99386 40.5757L24.0717 37.3515C24.8059 37.1919 25.3805 37.9261 25.0613 38.5965L23.6886 41.4376C23.4652 41.8845 23.6567 42.3953 24.1036 42.6187L27.8066 44.4064C28.2536 44.6298 28.7643 44.4383 28.9878 43.9914L35.2446 30.9989C35.5638 30.3285 36.5215 30.3285 36.8407 30.9989L38.2134 33.84C38.4369 34.2869 38.9476 34.4785 39.3945 34.255L43.0976 32.4673C43.5445 32.212 43.7041 31.7012 43.5125 31.2543ZM30.3924 27.4874L27.0086 34.5423C26.6574 35.3084 25.5401 35.1808 25.3486 34.3508L24.8059 32.0523C24.7102 31.5735 24.2313 31.2862 23.7525 31.382L16.123 33.1377C15.293 33.3292 14.7184 32.3716 15.2292 31.7331L16.6976 29.8816C17.0168 29.4985 16.953 28.9559 16.5699 28.6366L10.4408 23.7525C9.7704 23.2417 10.1535 22.1564 10.9835 22.1564H13.3457C13.8246 22.1564 14.2396 21.7733 14.2396 21.2625V13.4415C14.2396 12.6115 15.293 12.2284 15.8357 12.8988L17.336 14.7184C17.6553 15.1015 18.198 15.1653 18.581 14.8461L24.6782 9.99386C25.3486 9.4831 26.2744 10.0577 26.0828 10.8877L25.5401 13.1861C25.4444 13.665 25.7317 14.1438 26.2105 14.2396L33.84 15.9953C34.67 16.1868 34.7977 17.3041 34.0315 17.6553L31.8927 18.6768C31.4458 18.9003 31.2543 19.411 31.4777 19.8579L34.8615 26.9128C35.2127 27.679 34.4465 28.477 33.6804 28.0939L31.5416 27.0724C31.1266 26.8809 30.6158 27.0405 30.3924 27.4874Z" fill="url(#paint0_linear_232_418)"/>
<defs>
<linearGradient id="paint0_linear_232_418" x1="0.499999" y1="20.0556" x2="37.617" y2="5.16314" gradientUnits="userSpaceOnUse">
<stop stop-color="#3FE6DC"/>
<stop offset="0.52863" stop-color="#76D742"/>
<stop offset="1" stop-color="#DBF53C"/>
</linearGradient>
</defs>
</svg>
