<svg width="120" height="40" viewBox="0 0 120 40" fill="none" xmlns="http://www.w3.org/2000/svg">
<path fill-rule="evenodd" clip-rule="evenodd" d="M52.6122 0.123789C52.3418 0.186367 52.049 0.294666 51.9612 0.364595C51.8735 0.434524 51.7625 0.409601 51.7144 0.309369C51.6026 0.0762725 51.0873 0.0707135 51.0873 0.302735C51.0873 0.409242 50.9503 0.397588 50.7384 0.27315C50.4654 0.112672 50.3094 0.12325 50.0204 0.321921C49.7429 0.512522 49.6373 0.522026 49.5952 0.360651C49.5525 0.196766 49.4564 0.194256 49.1908 0.350431C48.9529 0.49011 48.8126 0.496205 48.7481 0.369257C48.6962 0.267053 48.391 0.171484 48.0697 0.15696C47.6106 0.136161 47.4397 0.215235 47.2702 0.527405C47.1517 0.74562 47.0546 0.839934 47.0546 0.737192C47.0546 0.530991 45.4457 0.416952 45.2084 0.606119C45.1279 0.670311 44.6588 0.703841 44.166 0.68089C43.4054 0.645387 43.2204 0.699179 42.9415 1.03699C42.6863 1.34611 42.5701 1.38915 42.421 1.22956C42.1447 0.933711 41.0389 1.02587 40.8469 1.36082C40.718 1.58584 40.6487 1.59553 40.478 1.41299C40.328 1.25234 40.253 1.2457 40.2158 1.38968C40.1827 1.51735 39.7319 1.59248 38.9855 1.59481C38.3376 1.59678 37.4632 1.72516 37.0426 1.88026C36.6219 2.03536 36.0713 2.14151 35.8189 2.11641C35.5665 2.09113 35.282 2.15406 35.1867 2.25591C35.0915 2.35793 34.8912 2.44418 34.7417 2.44759C34.1735 2.46068 33.3478 2.6961 33.08 2.92131C32.9268 3.05023 32.5448 3.15082 32.2313 3.14472C31.9178 3.13881 31.5423 3.21591 31.397 3.31614C31.2516 3.41655 30.8355 3.55605 30.4721 3.62634C30.1088 3.69663 29.8116 3.82555 29.8116 3.91305C29.8116 4.00037 29.7004 4.07191 29.5645 4.07191C29.4285 4.07191 29.1832 4.19294 29.0196 4.34087C28.8557 4.4888 28.6233 4.56106 28.5028 4.50135C28.3824 4.44182 28.0355 4.55998 27.7319 4.76403C27.387 4.99587 27.1472 5.06688 27.0928 4.95338C27.0398 4.84293 26.9425 4.83521 26.8443 4.93401C26.7554 5.02331 26.1604 5.35036 25.5219 5.66092C24.8833 5.97129 24.2067 6.3819 24.0181 6.57304C23.8297 6.76436 23.5855 6.87625 23.4757 6.82192C23.339 6.75432 23.276 6.84917 23.276 7.12279C23.276 7.42187 23.2322 7.47602 23.1021 7.33742C22.9812 7.2085 22.7595 7.22822 22.3721 7.40251C22.0662 7.54003 21.8002 7.65389 21.7811 7.65533C21.7621 7.65676 21.7454 7.83965 21.7443 8.06145C21.7427 8.35283 21.7092 8.39801 21.6238 8.22426C21.5251 8.02344 21.4563 8.02326 21.2088 8.22247C21.0455 8.3539 20.912 8.51241 20.912 8.57481C20.912 8.63702 20.6461 8.74138 20.321 8.80665C19.4611 8.97914 18.5481 9.46201 18.5481 9.74441C18.5481 9.87889 18.4574 9.98899 18.3467 9.98899C18.2359 9.98899 17.9776 10.1893 17.7729 10.4338C17.5681 10.6786 17.3476 10.8366 17.2828 10.7849C17.218 10.7333 17.0554 10.8557 16.9216 11.0571C16.788 11.2586 16.536 11.4234 16.3618 11.4234C16.1706 11.4234 16.045 11.5319 16.045 11.6969C16.045 11.8471 15.8886 12.0469 15.6974 12.1407C15.5062 12.2344 15.3488 12.4543 15.3477 12.6293C15.346 12.8649 15.3158 12.8871 15.2311 12.715C15.1399 12.5297 15.0278 12.5479 14.678 12.8046C14.4366 12.982 14.2387 13.2278 14.2381 13.351C14.2377 13.4743 14.1122 13.5751 13.9592 13.5751C13.8062 13.5751 13.6811 13.6396 13.6811 13.7187C13.6811 13.7976 13.3995 14.0386 13.0553 14.2543C12.7112 14.4698 12.4296 14.728 12.4296 14.8279C12.4296 14.9278 12.3357 15.0095 12.221 15.0095C12.1051 15.0095 12.0124 15.1689 12.0124 15.3681C12.0124 15.5674 11.9196 15.7268 11.8038 15.7268C11.6891 15.7268 11.5952 15.8074 11.5952 15.9061C11.5952 16.0047 11.5171 16.0855 11.4214 16.0857C11.1618 16.0864 10.2323 17.1587 10.4828 17.1687C10.5975 17.1732 10.4723 17.2786 10.2047 17.4029C9.93698 17.527 9.53678 17.8463 9.31526 18.1122C9.09374 18.3781 8.85915 18.5956 8.7938 18.5956C8.72844 18.5956 8.67504 18.7145 8.67504 18.8599C8.67504 19.0054 8.50067 19.2406 8.28735 19.3828C8.07418 19.525 7.6552 20.0113 7.35637 20.4633C7.05754 20.9153 6.74536 21.2852 6.66262 21.2852C6.47322 21.2852 5.75513 22.3272 5.75402 22.6037C5.75347 22.7168 5.56796 22.945 5.34186 23.1111C5.11561 23.2769 4.8902 23.62 4.84084 23.8731C4.79161 24.1263 4.68329 24.3334 4.60013 24.3334C4.35595 24.3334 3.66901 25.2699 3.66901 25.6029C3.66901 25.7711 3.57515 25.9552 3.46042 26.0121C3.3457 26.0687 3.25184 26.2495 3.25184 26.4135C3.25184 26.5778 3.1424 26.8433 3.00849 27.0038C2.67615 27.4024 2.4175 28.0257 2.4175 28.4275C2.4175 28.6111 2.29624 28.9414 2.14801 29.1617C1.99991 29.3821 1.91036 29.6688 1.94902 29.7988C1.99185 29.9426 1.92621 30.0249 1.78146 30.0084C1.41629 29.9672 1.39766 30.3443 1.75309 30.5851C1.92733 30.7031 1.9696 30.7637 1.84695 30.7201C1.65492 30.6516 1.16599 31.1553 1.16599 31.4215C1.16599 31.4717 1.00163 31.8486 0.800691 32.2589C0.497826 32.8775 0.463479 33.0634 0.600033 33.3453C0.718231 33.5891 0.722541 33.7511 0.615329 33.9176C0.455136 34.1663 0.558316 34.7331 0.763702 34.7331C0.831979 34.7331 0.887879 34.8063 0.887879 34.8956C0.887879 34.985 0.762729 35.0159 0.609767 34.9644C0.423292 34.9015 0.331654 34.9589 0.331654 35.1385C0.331654 35.2859 0.238625 35.5059 0.125016 35.6275C-0.0557578 35.821 -0.0471363 35.9049 0.194544 36.3011C0.495879 36.7949 0.563043 37.4227 0.314688 37.4227C0.202192 37.4227 0.200523 37.488 0.308848 37.6562C0.391448 37.7845 0.423709 38.0641 0.380462 38.2773C0.275892 38.7929 0.65343 39.279 1.03653 39.1222C1.21021 39.0511 1.29518 38.9034 1.24998 38.7514C1.20813 38.6106 1.25805 38.4985 1.36276 38.4985C1.56606 38.4985 1.71304 38.9879 1.61848 39.3502C1.58636 39.4736 1.47136 39.5744 1.36304 39.5744C1.11232 39.5744 1.10606 39.865 1.35414 39.9877C1.45759 40.0389 1.64532 39.9256 1.7713 39.7359C2.02119 39.3596 2.07765 38.8571 1.8699 38.8571C1.71234 38.8571 1.7314 38.0926 1.89256 37.9475C1.95542 37.8909 2.03551 37.6529 2.07042 37.4186C2.10546 37.1842 2.22922 36.9239 2.34533 36.8401C2.46144 36.7562 2.55656 36.4649 2.55656 36.1927C2.55656 35.8783 2.71786 35.4849 2.99834 35.115C3.31358 34.6992 3.44318 34.3555 3.45027 33.916C3.45792 33.4538 3.52119 33.2996 3.70377 33.2992C3.92557 33.2987 4.00302 33.1231 3.91236 32.8262C3.89317 32.7635 4.01067 32.6487 4.17323 32.5712C4.39961 32.4631 4.45287 32.3218 4.40045 31.9679C4.34955 31.6252 4.39002 31.5056 4.55661 31.5056C4.68037 31.5056 4.78146 31.4249 4.78146 31.3263C4.78146 31.2277 4.87532 31.147 4.99005 31.147C5.10477 31.147 5.19863 31.0606 5.19863 30.955C5.19863 30.8492 5.29653 30.6365 5.41611 30.4823C5.56991 30.284 5.59035 30.146 5.48564 30.0109C5.26218 29.7228 5.30793 29.511 5.58104 29.5702C5.72273 29.6009 5.82438 29.5107 5.82438 29.354C5.82438 29.206 5.94954 29.0375 6.1025 28.9794C6.25546 28.9215 6.36504 28.7802 6.34585 28.6656C6.3268 28.5512 6.3941 28.4574 6.49547 28.4574C6.59684 28.4574 6.82142 28.2631 6.99454 28.0255C7.28809 27.6224 7.29213 27.5876 7.05351 27.5084C6.87593 27.4492 6.91111 27.4169 7.1685 27.4024C7.42812 27.3879 7.67815 27.1541 8.00284 26.6228C8.69882 25.4835 8.93911 25.212 9.20151 25.2683C9.35836 25.302 9.45501 25.1817 9.48435 24.9162C9.51105 24.6728 9.62549 24.5127 9.77275 24.5127C9.91306 24.5127 10.1332 24.2273 10.2913 23.8403C10.4423 23.4706 10.6254 23.157 10.6982 23.1437C11.1676 23.0582 11.4975 22.7878 11.6283 22.3813C11.7113 22.1237 11.769 21.8522 11.7567 21.7783C11.7444 21.7044 11.8124 21.6315 11.9081 21.6166C12.0036 21.6015 12.1445 21.5705 12.221 21.5475C12.2975 21.5246 12.4768 21.4966 12.6197 21.4851C12.8079 21.4703 12.8593 21.3661 12.8064 21.1059C12.7486 20.8206 12.8022 20.7473 13.0684 20.7473C13.2524 20.7473 13.403 20.6557 13.403 20.5438C13.403 20.2802 14.004 19.5642 14.5061 19.2295C14.7221 19.0853 14.9358 18.8434 14.9808 18.6919C15.026 18.5404 15.1864 18.4163 15.3372 18.4163C15.488 18.4163 15.6412 18.3543 15.6775 18.2786C15.7138 18.2028 15.4828 18.1626 15.1643 18.1893C14.6468 18.2325 14.6186 18.2155 14.9002 18.0294C15.1174 17.8858 15.1901 17.7185 15.1341 17.4911C15.0348 17.0875 15.1783 17.0678 15.498 17.4409C15.7171 17.6966 15.7686 17.6806 16.1 17.2534C16.2992 16.9964 16.4622 16.8707 16.4622 16.9738C16.4622 17.2188 16.8417 17.2173 16.9051 16.9722C16.9319 16.8682 17.0779 16.7592 17.2295 16.7301C17.4018 16.697 17.5051 16.5387 17.5051 16.3077C17.5051 15.7944 17.6684 15.6344 17.919 15.9025C18.06 16.0533 18.1309 16.063 18.1309 15.9313C18.1309 15.8227 18.2873 15.683 18.4785 15.6211C18.6697 15.5593 18.8262 15.3963 18.8262 15.2591C18.8262 15.1001 18.9811 15.0095 19.2531 15.0095C19.6673 15.0095 20.6603 14.2717 21.0401 13.6818C21.1399 13.5267 21.2731 13.4408 21.336 13.4908C21.3988 13.541 21.6733 13.4204 21.9459 13.2229C22.2186 13.0255 22.4416 12.905 22.4416 12.9552C22.4416 13.141 23.3519 12.4342 23.5288 12.1109C23.6297 11.9267 23.7732 11.8247 23.8478 11.8841C23.9224 11.9436 24.0589 11.9137 24.1512 11.8177C24.2434 11.7218 24.6005 11.5866 24.9446 11.5174C25.2888 11.448 25.8037 11.1968 26.0889 10.9592C26.374 10.7214 26.7358 10.5269 26.893 10.5269C27.05 10.5269 27.4111 10.3935 27.6955 10.2303C27.9798 10.0672 28.268 9.94972 28.3358 9.96944C28.4037 9.98917 28.5989 9.83604 28.7697 9.6293C28.9944 9.35712 29.1791 9.28521 29.4383 9.36913C29.6677 9.44336 29.9104 9.38222 30.1131 9.19915C30.2872 9.0419 30.6994 8.91315 31.0289 8.91315C31.4187 8.91315 31.6545 8.82404 31.704 8.658C31.7458 8.51779 31.8722 8.35731 31.9849 8.30154C32.099 8.24506 32.1528 8.27788 32.1061 8.37524C32.0585 8.47457 32.1155 8.50416 32.2379 8.44373C32.3566 8.38492 32.4587 8.20436 32.4647 8.04227C32.4707 7.88018 32.5025 7.83051 32.5353 7.93164C32.6062 8.14985 33.7052 8.0489 33.7052 7.82405C33.7052 7.73888 33.8038 7.71808 33.9245 7.77779C34.109 7.86906 34.6201 7.71181 35.9301 7.16045C36.2168 7.03977 36.6796 6.96554 37.7217 6.87302C38.2101 6.82981 38.6481 6.71631 38.6951 6.62092C38.7765 6.45613 39.1265 6.40808 40.7276 6.34192C41.11 6.32614 41.4648 6.2381 41.5161 6.14629C41.5675 6.05449 41.8803 5.95802 42.2114 5.93202C42.5425 5.90585 42.8507 5.88021 42.896 5.87483C42.9415 5.86945 43.1547 5.67006 43.3696 5.43176C43.697 5.06903 43.791 5.03783 43.9476 5.23973C44.0503 5.37223 44.1344 5.56248 44.1344 5.66235C44.1344 5.91858 46.0823 5.69355 46.4157 5.39895C46.6084 5.22843 46.7541 5.2157 46.9517 5.35197C47.1075 5.45956 47.4387 5.48448 47.7298 5.41061C48.0086 5.33996 49.7697 5.25676 51.6435 5.22592C53.5173 5.1949 55.1918 5.16388 55.3646 5.15689C55.5376 5.14972 55.8192 4.96324 55.9904 4.74251L56.3019 4.34087L56.3485 4.76529C56.39 5.14416 56.4479 5.17859 56.8872 5.08678C57.1578 5.03012 57.4967 4.84687 57.6402 4.6794C57.8871 4.39125 57.901 4.3943 57.901 4.73785C57.901 5.03299 57.9987 5.10597 58.4225 5.1282C59.6469 5.19239 60.3184 5.13465 60.4905 4.95033C60.627 4.8042 60.7296 4.82464 60.8885 5.02958C61.1541 5.37206 63.7466 5.41885 63.9131 5.08409C63.9785 4.95266 64.016 4.99157 64.0174 5.19257C64.0197 5.52895 64.4197 5.59457 64.9232 5.34121C65.1033 5.25067 65.2503 5.28617 65.3404 5.4418C65.417 5.57395 65.8551 5.72798 66.3139 5.7841C66.7728 5.84022 67.3355 5.91499 67.5643 5.95031C67.7932 5.98564 68.0188 5.93454 68.0656 5.83681C68.1186 5.72636 68.2242 5.74895 68.3449 5.89652C68.5719 6.17445 69.5818 6.30247 69.5818 6.05324C69.5818 5.95982 69.8119 6.00733 70.0934 6.15885C70.3747 6.31036 70.8363 6.40593 71.1193 6.37114C71.4913 6.32542 71.6151 6.37079 71.5662 6.53467C71.5063 6.73621 71.7875 6.85634 72.1332 6.77691C72.1981 6.76203 72.6362 6.88378 73.1066 7.04748C73.5771 7.21119 74.2749 7.36629 74.6573 7.39211C75.0397 7.41793 75.4778 7.49216 75.6307 7.55743C75.8511 7.6512 75.9646 7.54201 76.1776 7.03063C76.3947 6.50993 76.4699 6.43946 76.5676 6.66467C76.6342 6.81815 76.6503 7.02364 76.6034 7.12154C76.5566 7.21944 76.5922 7.29941 76.6824 7.29941C76.8063 7.29941 76.8076 7.36037 76.6877 7.54649C76.562 7.74175 76.5948 7.81634 76.8446 7.90259C77.335 8.07203 77.394 8.04209 77.3023 7.66985C77.2302 7.37669 77.2827 7.32541 77.6405 7.3385C77.989 7.35123 78.0642 7.42869 78.0642 7.77492C78.0642 8.39568 78.5458 8.94417 78.9702 8.80683C79.163 8.74443 79.5532 8.81741 79.8529 8.97215C80.2527 9.17835 80.4303 9.19735 80.5473 9.04638C80.6644 8.8954 80.7776 8.94435 80.9895 9.2377C81.2062 9.5375 81.3893 9.61352 81.7542 9.55507C82.0316 9.51078 82.2783 9.56708 82.3392 9.68883C82.3971 9.80466 82.6635 10.001 82.9312 10.1254C83.3417 10.316 83.4415 10.3099 83.5688 10.0867C83.6836 9.88535 83.7583 9.87208 83.8817 10.0311C83.9708 10.1461 84.0436 10.3359 84.0436 10.4534C84.0436 10.7593 85.1925 11.4129 85.9615 11.5443C86.3215 11.6058 86.7397 11.7652 86.8906 11.8984C87.0413 12.0316 87.2563 12.1407 87.3681 12.1407C87.4799 12.1407 87.857 12.3214 88.2062 12.5423C88.6093 12.7974 89.0997 12.9447 89.5494 12.9457C90.0918 12.9472 90.2547 13.0106 90.2447 13.2165C90.2367 13.3822 90.3786 13.5073 90.6141 13.5421C90.8245 13.5733 90.9965 13.6655 90.9965 13.7469C90.9965 13.9493 92.0386 14.4716 92.4424 14.4716C92.6226 14.4716 92.848 14.5927 92.9433 14.7406C93.132 15.0339 93.6385 15.1101 93.6385 14.8451C93.6385 14.7547 93.5604 14.6402 93.4647 14.5903C93.3578 14.5347 93.3816 14.4944 93.5263 14.4858C93.6559 14.4781 93.8736 14.7153 94.01 15.0131C94.1464 15.3109 94.3376 15.5152 94.4349 15.4669C94.5323 15.4189 94.6119 15.4496 94.6119 15.5353C94.6119 15.6211 94.8424 15.6828 95.1239 15.6726C95.4112 15.662 95.6606 15.7486 95.6918 15.8697C95.7224 15.9882 95.8285 16.0854 95.9276 16.0854C96.0266 16.0854 96.1854 16.2064 96.2806 16.3543C96.3759 16.5023 96.5713 16.6233 96.7148 16.6233C96.8584 16.6233 97.1072 16.7925 97.2676 16.9995C97.4557 17.2419 97.6763 17.3468 97.8885 17.2944C98.0696 17.2498 98.2465 17.3025 98.2815 17.4113C98.3242 17.544 98.3891 17.5288 98.4781 17.3651C98.5902 17.1587 98.6244 17.1587 98.6973 17.3651C98.7636 17.5528 98.8023 17.558 98.8643 17.3869C98.9263 17.2159 98.9917 17.2247 99.1464 17.4241C99.2573 17.567 99.4556 17.6394 99.5872 17.5849C99.7707 17.5091 99.7825 17.5266 99.6379 17.6598C99.4791 17.8062 99.4791 17.8583 99.6379 17.9905C99.7416 18.0767 99.9204 18.1556 100.035 18.1657C100.15 18.1757 100.353 18.196 100.487 18.2105C100.621 18.225 100.73 18.3581 100.73 18.506C100.73 18.6932 100.876 18.7749 101.21 18.7749C101.501 18.7749 101.738 18.8856 101.812 19.0552C101.878 19.2092 102.032 19.3541 102.152 19.3769C102.273 19.3996 102.468 19.5223 102.587 19.6492C102.706 19.7764 102.922 19.8316 103.068 19.7719C103.225 19.7079 103.405 19.7753 103.509 19.9363C103.606 20.0866 103.786 20.2099 103.911 20.2106C104.036 20.2112 104.325 20.372 104.554 20.568C104.784 20.764 105.081 20.9248 105.215 20.9254C105.349 20.9261 105.458 20.9901 105.458 21.0675C105.458 21.2081 105.784 21.2809 106.42 21.2831C106.605 21.2838 106.867 21.4134 107.003 21.5712C107.138 21.7292 107.304 21.8144 107.371 21.7607C107.438 21.7069 107.581 21.8201 107.689 22.0121C107.796 22.204 107.956 22.3611 108.045 22.3611C108.133 22.3611 108.283 22.4821 108.379 22.63C108.602 22.9768 108.935 22.9768 108.935 22.63C108.935 22.4821 108.872 22.3611 108.796 22.3611C108.719 22.3611 108.657 22.2879 108.657 22.1986C108.657 22.1093 108.808 22.1285 108.994 22.2413C109.244 22.3933 109.293 22.5052 109.185 22.6727C109.105 22.7971 109.094 22.9072 109.161 22.9174C109.228 22.9277 109.52 22.9617 109.811 22.9931C110.385 23.0548 110.742 23.3372 110.742 23.7277C110.742 23.8636 110.807 23.9748 110.886 23.9748C110.966 23.9748 111.194 24.113 111.394 24.2819C111.594 24.451 111.851 24.607 111.966 24.6287C112.081 24.6504 112.222 24.7661 112.279 24.8855C112.336 25.0051 112.484 25.053 112.607 24.9922C112.746 24.9231 112.896 25.0148 113.002 25.235C113.096 25.4295 113.277 25.5885 113.403 25.5885C113.532 25.5885 113.671 25.7851 113.72 26.0368C113.768 26.2834 113.904 26.4851 114.023 26.4851C114.215 26.4851 114.216 26.515 114.03 26.754C113.915 26.902 113.755 27.023 113.673 27.023C113.591 27.023 113.524 27.1058 113.524 27.207C113.524 27.3115 113.343 27.2704 113.105 27.1117C112.805 26.9113 112.614 26.883 112.428 27.0112C112.286 27.1094 112.127 27.1343 112.074 27.0667C112.022 26.9991 111.923 27.0601 111.855 27.2025C111.747 27.427 111.72 27.4262 111.653 27.1973C111.587 26.976 111.254 26.9479 109.594 27.023C108.505 27.0723 107.528 27.1835 107.424 27.2701C107.303 27.3714 107.192 27.3395 107.114 27.1804C107.017 26.9835 106.992 26.9814 106.99 27.1702C106.989 27.3006 106.907 27.5121 106.807 27.6403C106.659 27.8315 106.573 27.8171 106.327 27.5604C106.086 27.3086 105.91 27.2765 105.43 27.3965C105.101 27.4782 104.786 27.5487 104.728 27.553C104.671 27.5573 104.624 27.6819 104.624 27.8299C104.624 27.9778 104.559 28.0988 104.481 28.0988C104.402 28.0988 104.301 27.9778 104.257 27.8299C104.162 27.5105 103.907 27.4813 103.687 27.7646C103.503 28.0018 103.802 28.4954 104.099 28.4451C104.511 28.3751 104.643 28.4802 104.619 28.8609C104.56 29.7976 104.618 30.0629 104.857 29.9448C105.033 29.8574 105.068 29.9023 105 30.1296C104.947 30.3088 104.979 30.4309 105.08 30.4323C105.174 30.4336 105.391 30.4834 105.563 30.5428C105.793 30.6224 105.876 30.5741 105.876 30.3611C105.876 30.0307 106.058 29.9926 106.425 30.2462C106.626 30.3846 106.694 30.3473 106.751 30.0669C106.791 29.872 106.895 29.7126 106.984 29.7126C107.082 29.7126 107.111 29.8531 107.058 30.0701C106.989 30.3516 107.019 30.4033 107.202 30.3129C107.329 30.2498 107.481 30.2985 107.54 30.421C107.599 30.5435 107.874 30.6575 108.152 30.6744C108.551 30.6986 108.657 30.6385 108.657 30.388C108.657 29.9555 109.024 29.9858 109.113 30.4258C109.178 30.747 109.28 30.7733 110.197 30.7063C110.884 30.6559 111.327 30.7113 111.578 30.879C111.893 31.0887 112.004 31.0886 112.319 30.8781C112.523 30.7418 112.689 30.6923 112.689 30.768C112.689 30.8436 112.877 30.87 113.106 30.8266C113.336 30.7832 113.524 30.6444 113.524 30.5182C113.524 30.175 113.905 30.0527 113.999 30.3661C114.113 30.75 114.1 30.8259 113.942 30.7C113.862 30.636 113.841 30.7124 113.892 30.8838C113.962 31.1189 114.003 31.1296 114.099 30.9379C114.197 30.7421 114.244 30.7475 114.358 30.9677C114.473 31.1908 114.518 31.1951 114.619 30.9933C114.701 30.8295 114.77 30.813 114.833 30.9428C114.884 31.0488 115.126 31.1285 115.372 31.1198C115.617 31.1112 115.881 31.1233 115.957 31.1468C116.246 31.2354 116.333 31.1386 116.18 30.9005C116.053 30.7027 116.089 30.6539 116.36 30.6539C116.574 30.6539 116.724 30.7775 116.767 30.9901C116.861 31.4527 117.107 31.4127 117.18 30.9229L117.24 30.5194L117.259 30.9229C117.285 31.4712 117.973 31.5144 117.973 30.9677C117.973 30.7705 118.03 30.6091 118.099 30.6091C118.169 30.6091 118.196 30.7559 118.159 30.9354C118.079 31.3308 118.423 31.7373 118.766 31.6539C118.904 31.6206 119.078 31.4129 119.153 31.1926C119.228 30.9722 119.353 30.8006 119.431 30.8114C119.788 30.8607 119.891 30.7504 119.972 30.2335C120.04 29.7934 119.993 29.6113 119.746 29.3527C119.465 29.0599 119.45 28.969 119.599 28.4617C119.745 27.9608 119.729 27.8528 119.461 27.5073C119.295 27.293 119.177 26.9552 119.198 26.7565C119.227 26.487 119.205 26.4573 119.11 26.6387C119.02 26.8085 118.953 26.8222 118.886 26.6836C118.834 26.5744 118.677 26.4851 118.536 26.4851C118.243 26.4851 118.112 26.1455 118.112 25.384C118.112 25.0904 118.061 24.8911 117.998 24.9413C117.87 25.0431 117.417 24.4275 117.417 24.1521C117.417 24.0546 117.332 23.9748 117.228 23.9748C117.102 23.9748 117.06 23.8274 117.104 23.5317C117.155 23.1923 117.062 22.9719 116.708 22.5904C115.841 21.6535 115.457 21.1005 115.545 20.916C115.665 20.6664 115.236 19.8508 114.985 19.8508C114.863 19.8508 114.815 19.7445 114.864 19.5818C114.917 19.4031 114.857 19.3109 114.686 19.3071C114.277 19.2982 113.941 18.8668 113.941 18.3502C113.941 17.9191 113.915 17.8962 113.661 18.1009C113.415 18.2991 113.338 18.2612 113.028 17.7886C112.834 17.4929 112.584 16.9885 112.472 16.6681C112.244 16.0144 112.072 15.9371 111.872 16.3977C111.676 16.8494 111.51 16.5288 111.526 15.7298C111.537 15.1998 111.494 15.0617 111.342 15.137C111.218 15.1983 111.114 15.0915 111.066 14.8535C111.023 14.6434 110.907 14.4716 110.809 14.4716C110.693 14.4716 110.657 14.6142 110.706 14.8751L110.783 15.2785L110.489 14.8537C110.088 14.2747 109.975 13.7487 110.206 13.5371C110.344 13.4108 110.314 13.3874 110.092 13.4496C109.875 13.5105 109.811 13.4641 109.864 13.2859C109.905 13.1491 109.864 13.0372 109.773 13.0372C109.682 13.0372 109.365 12.7103 109.067 12.3108C108.769 11.9113 108.446 11.5983 108.348 11.6149C107.7 11.7252 107.544 11.6043 107.544 10.992C107.544 10.4785 107.502 10.3955 107.278 10.471C107.096 10.5321 106.935 10.4107 106.772 10.0899C106.641 9.83102 106.568 9.57461 106.61 9.5201C106.707 9.39531 106.277 8.83408 105.851 8.52962C105.53 8.29993 105.447 8.26138 105.18 8.21835C105.104 8.20597 105.041 8.03456 105.041 7.83732C105.041 7.63327 104.948 7.47871 104.826 7.47871C104.708 7.47871 104.504 7.23719 104.374 6.94187C104.085 6.28687 103.849 6.25352 103.733 6.85114C103.685 7.09769 103.548 7.29941 103.43 7.29941C103.278 7.29941 103.241 7.19397 103.303 6.94187C103.368 6.67542 103.339 6.61016 103.187 6.68529C102.854 6.84989 102.806 7.46706 103.106 7.70894C103.252 7.82692 103.372 8.03868 103.372 8.17926C103.372 8.32001 103.413 8.38277 103.462 8.31894C103.563 8.19002 104.336 9.43099 104.342 9.73043C104.346 9.92336 105.28 10.5269 105.575 10.5269C105.664 10.5269 105.736 10.396 105.736 10.2361C105.736 9.99777 105.774 9.9854 105.945 10.1683C106.06 10.2911 106.155 10.5228 106.156 10.6833C106.158 10.9328 106.177 10.937 106.287 10.7114C106.358 10.5663 106.465 10.5102 106.524 10.5866C106.658 10.7593 106.284 11.0788 106.11 10.9404C105.993 10.847 105.743 11.1873 105.739 11.4473C105.737 11.5099 105.861 11.6029 106.014 11.6544C106.166 11.7058 106.336 11.8968 106.389 12.0788C106.542 12.593 107.027 13.0465 107.351 12.9785C107.578 12.931 107.63 12.9918 107.579 13.2461C107.542 13.427 107.455 13.5751 107.386 13.5751C107.316 13.5751 107.365 13.7817 107.493 14.0341C107.637 14.3181 107.762 14.4184 107.82 14.297C107.992 13.9376 108.362 14.3124 108.405 14.8903C108.444 15.4051 108.497 15.463 108.97 15.5136C109.452 15.5648 109.48 15.5978 109.336 15.9441C109.202 16.2672 109.214 16.3025 109.422 16.1996C109.607 16.1083 109.648 16.156 109.598 16.4018C109.518 16.7983 109.849 17.2288 110.128 17.0906C110.262 17.0242 110.382 17.1492 110.47 17.4486C110.64 18.0258 110.513 18.3335 110.23 18.0307C110.115 17.9076 109.824 17.7954 109.582 17.7812C108.87 17.7395 108.796 17.7104 108.796 17.4737C108.796 17.2575 107.907 16.8026 107.484 16.8026C107.372 16.8026 107.229 16.6855 107.167 16.5426C107.102 16.3918 106.776 16.2516 106.392 16.2091C106.027 16.1687 105.691 16.0868 105.645 16.0271C105.599 15.9676 105.453 15.993 105.322 16.0839C105.119 16.2233 105.092 16.1804 105.147 15.8087C105.187 15.543 105.148 15.3681 105.049 15.3681C104.959 15.3681 104.924 15.4488 104.972 15.5475C105.199 16.0221 104.653 15.659 104.017 14.9134C103.831 14.6945 102.838 14.3029 102.538 14.33C101.852 14.3918 101.426 14.2721 101.426 14.0178C101.426 13.8666 101.316 13.6931 101.182 13.6319C101.049 13.5706 100.845 13.4193 100.73 13.2954C100.616 13.1717 100.334 13.0442 100.105 13.0123C99.8752 12.9803 99.4781 12.8086 99.2222 12.6305C98.9664 12.4525 98.6378 12.3555 98.4922 12.415C98.3448 12.4754 98.2274 12.4387 98.2274 12.332C98.2274 12.2267 98.071 12.1407 97.8798 12.1407C97.6886 12.1407 97.5321 12.0551 97.5321 11.9508C97.5321 11.8464 97.4691 11.8111 97.3921 11.8724C97.3151 11.9337 97.0707 11.8175 96.8492 11.614C96.6276 11.4105 96.3777 11.2441 96.294 11.2441C96.2101 11.2441 96.1416 11.1634 96.1416 11.0648C96.1416 10.9662 95.9976 10.8855 95.8217 10.8855C95.6458 10.8855 95.4424 10.8136 95.3698 10.7256C95.2971 10.6377 94.7085 10.3594 94.0614 10.1071C93.1289 9.74352 92.8424 9.69313 92.6789 9.86365C92.5145 10.0351 92.4952 10.0304 92.5837 9.8407C92.7152 9.55901 92.2592 8.93826 92.0018 9.04889C91.9081 9.08905 91.6204 8.95404 91.3627 8.74873C91.1049 8.54325 90.7207 8.37524 90.5087 8.37524C90.2967 8.37524 90.0538 8.25564 89.9688 8.10969C89.884 7.96355 89.6893 7.81437 89.5364 7.77797C89.3834 7.74157 89.1644 7.66644 89.0497 7.61104C88.3461 7.27108 87.9207 7.15919 87.6622 7.24633C87.477 7.30891 87.3048 7.2336 87.1965 7.04264C87.1016 6.87517 86.8245 6.73244 86.5771 6.7233C86.331 6.71433 86.1295 6.62988 86.1295 6.53575C86.1295 6.44161 86.0424 6.40754 85.9362 6.46026C85.8298 6.51279 85.6061 6.39158 85.4389 6.19076C85.2212 5.92934 85.0232 5.85439 84.7409 5.92718C84.4781 5.99496 84.3227 5.94762 84.2743 5.78482C84.2343 5.65052 83.7437 5.40702 83.184 5.24367C82.6243 5.0805 82.0238 4.82733 81.8496 4.68119C81.6754 4.53506 81.4796 4.45796 81.4145 4.50978C81.3496 4.56159 81.1034 4.48001 80.8676 4.32832C80.4478 4.05828 79.6535 4.06277 79.1419 4.338C78.9464 4.44307 78.8986 4.37691 78.8986 4.00145C78.8986 3.70541 78.8221 3.534 78.69 3.534C78.5753 3.534 78.4814 3.4664 78.4814 3.38374C78.4814 3.30108 78.2551 3.22254 77.9786 3.2091C77.702 3.19565 77.3935 3.09685 77.293 2.98927C77.0839 2.76549 76.3754 2.59551 75.7805 2.62671C75.5569 2.63837 75.3294 2.55481 75.2749 2.44113C75.2204 2.32727 74.8401 2.19853 74.4298 2.15496C73.3431 2.03949 73.1623 2.04361 72.8066 2.19225C72.554 2.29769 72.4703 2.25089 72.4138 1.97278C72.3404 1.61059 72.33 1.6079 70.5552 1.47378C69.8369 1.41963 69.4918 1.32621 69.354 1.14852C69.3009 1.07984 68.9674 1.02372 68.613 1.02372C68.2587 1.02372 67.9093 0.947696 67.8366 0.854637C67.7282 0.715855 66.8461 0.641623 65.6882 0.674077C65.5735 0.677305 65.198 0.59303 64.8539 0.486881C63.9244 0.199993 63.1379 0.141899 62.9436 0.34559C62.8471 0.446718 62.6639 0.462854 62.5265 0.382167C62.1984 0.189952 59.5697 0.128451 59.5697 0.312956C59.5697 0.392926 59.3955 0.346307 59.1826 0.209317C58.9431 0.055294 58.4523 -0.0223455 57.896 0.00562613C56.9659 0.0526041 56.5874 0.210931 56.7241 0.496205C56.7674 0.586755 56.706 0.612934 56.5872 0.554301C56.4685 0.495489 56.3714 0.365493 56.3714 0.26544C56.3714 0.160368 56.2831 0.177759 56.1628 0.306501C55.9933 0.487778 55.9542 0.479889 55.9542 0.263647C55.9542 0.0450738 55.7519 0.00885359 54.8201 0.0604935C54.1963 0.0950994 53.6562 0.161802 53.6198 0.2086C53.5835 0.255578 53.4525 0.229937 53.3287 0.15194C53.2048 0.0739418 52.8825 0.0612115 52.6122 0.123789ZM102.017 4.55962C101.921 4.60373 101.85 4.89528 101.859 5.20745C101.87 5.58919 101.898 5.65769 101.944 5.4167C101.981 5.21947 102.077 4.95535 102.156 4.82966C102.324 4.56285 102.264 4.44594 102.017 4.55962ZM63.6024 4.96844C63.6024 5.06706 63.536 5.14774 63.4551 5.14774C63.3742 5.14774 63.3465 5.06706 63.3938 4.96844C63.441 4.86982 63.5072 4.78913 63.541 4.78913C63.5748 4.78913 63.6024 4.86982 63.6024 4.96844ZM102.677 5.45561C102.677 5.80669 102.923 6.22358 103.13 6.22358C103.196 6.22358 103.201 6.12281 103.141 5.99944C103.081 5.87626 103.031 5.66127 103.028 5.52177C103.023 5.13286 102.677 5.06777 102.677 5.45561ZM39.0907 5.79396C39.0446 5.85349 38.9246 5.85994 38.8243 5.80812C38.7133 5.75093 38.7463 5.70843 38.9083 5.69983C39.0548 5.69212 39.1369 5.73443 39.0907 5.79396ZM102.33 6.04427C102.282 6.14289 102.341 6.22358 102.46 6.22358C102.58 6.22358 102.677 6.14289 102.677 6.04427C102.677 5.94565 102.618 5.86496 102.546 5.86496C102.474 5.86496 102.377 5.94565 102.33 6.04427ZM36.7645 6.59276C36.7645 6.68564 36.7019 6.76149 36.6254 6.76149C36.5489 6.76149 36.4863 6.63562 36.4863 6.48195C36.4863 6.32829 36.5489 6.25226 36.6254 6.31323C36.7019 6.37419 36.7645 6.49988 36.7645 6.59276ZM29.6726 6.66126C29.6726 6.70483 29.61 6.79018 29.5335 6.85114C29.457 6.91211 29.3945 6.87643 29.3945 6.77207C29.3945 6.66771 29.457 6.58219 29.5335 6.58219C29.61 6.58219 29.6726 6.61769 29.6726 6.66126ZM29.3475 8.42006C29.3089 8.54343 29.2774 8.44248 29.2774 8.19593C29.2774 7.94939 29.3089 7.84862 29.3475 7.9718C29.3861 8.09516 29.3861 8.29688 29.3475 8.42006ZM27.7258 9.80968C27.7258 9.9083 27.6162 9.98773 27.4824 9.9863C27.2744 9.98397 27.2694 9.95815 27.4477 9.80968C27.7101 9.59093 27.7258 9.59093 27.7258 9.80968ZM90.8754 11.1134C90.6493 11.405 90.5201 11.1321 90.7391 10.8253C90.8427 10.6804 90.9496 10.6418 90.9773 10.7396C91.0051 10.8371 90.9592 11.0053 90.8754 11.1134ZM25.1532 10.8855C25.2005 10.9841 25.1728 11.0648 25.0919 11.0648C25.011 11.0648 24.9446 10.9841 24.9446 10.8855C24.9446 10.7869 24.9722 10.7062 25.006 10.7062C25.0398 10.7062 25.106 10.7869 25.1532 10.8855ZM106.988 12.2303C106.988 12.3782 106.925 12.4993 106.849 12.4993C106.772 12.4993 106.71 12.3782 106.71 12.2303C106.71 12.0824 106.772 11.9613 106.849 11.9613C106.925 11.9613 106.988 12.0824 106.988 12.2303ZM111.716 18.7749C111.716 18.8736 111.688 18.9543 111.655 18.9543C111.621 18.9543 111.555 18.8736 111.507 18.7749C111.46 18.6763 111.488 18.5956 111.569 18.5956C111.65 18.5956 111.716 18.6763 111.716 18.7749ZM111.021 27.8299C111.021 27.9778 110.958 28.0988 110.882 28.0988C110.805 28.0988 110.742 27.9778 110.742 27.8299C110.742 27.6819 110.805 27.5609 110.882 27.5609C110.958 27.5609 111.021 27.6819 111.021 27.8299ZM5.05957 28.1779C5.05957 28.2215 4.997 28.3068 4.92052 28.3678C4.84404 28.4287 4.78146 28.3931 4.78146 28.2887C4.78146 28.1844 4.84404 28.0988 4.92052 28.0988C4.997 28.0988 5.05957 28.1343 5.05957 28.1779ZM111.855 28.3678C111.855 28.5157 111.792 28.6367 111.716 28.6367C111.639 28.6367 111.577 28.7712 111.577 28.9356C111.577 29.0999 111.538 29.1843 111.491 29.1232C111.365 28.9618 111.557 28.0988 111.719 28.0988C111.794 28.0988 111.855 28.2199 111.855 28.3678ZM106.854 29.1704C106.575 29.393 106.398 29.2076 106.607 28.9113C106.718 28.7544 106.829 28.7284 106.917 28.8385C107.008 28.9512 106.986 29.0653 106.854 29.1704ZM108.086 28.8829C108.253 29.1427 108.157 29.7126 107.946 29.7126C107.878 29.7126 107.822 29.5915 107.822 29.4436C107.822 29.2957 107.721 29.1747 107.597 29.1747C107.412 29.1747 107.402 29.1261 107.544 28.9057C107.759 28.5724 107.883 28.5672 108.086 28.8829ZM117.156 29.0432C117.019 29.2189 117.003 29.1983 117.078 28.9428C117.131 28.766 117.208 28.6665 117.251 28.7217C117.294 28.7768 117.251 28.9215 117.156 29.0432ZM105.454 29.3091C105.451 29.7321 105.43 29.7574 105.307 29.487C105.229 29.3136 105.204 29.0918 105.25 28.9939C105.394 28.6939 105.458 28.7935 105.454 29.3091ZM109.908 29.7232C109.908 29.9261 109.846 30.0425 109.769 29.9815C109.693 29.9206 109.63 29.7545 109.63 29.6123C109.63 29.4701 109.693 29.354 109.769 29.354C109.846 29.354 109.908 29.5202 109.908 29.7232ZM113.106 29.9815C113.106 30.1295 113.015 30.2505 112.902 30.2505C112.778 30.2505 112.729 30.1454 112.778 29.9815C112.822 29.8336 112.914 29.7126 112.982 29.7126C113.051 29.7126 113.106 29.8336 113.106 29.9815ZM2.55378 30.8824C2.45699 31.0326 2.34922 31.1187 2.31418 31.0737C2.21782 30.9492 2.41375 30.6091 2.58173 30.6091C2.67406 30.6091 2.66349 30.712 2.55378 30.8824ZM3.80807 32.3019C3.80807 32.3455 3.74549 32.4308 3.66901 32.4918C3.59253 32.5528 3.52995 32.5171 3.52995 32.4127C3.52995 32.3084 3.59253 32.2228 3.66901 32.2228C3.74549 32.2228 3.80807 32.2583 3.80807 32.3019Z" fill="#6AEDAB"/>
</svg>
