<svg width="46" height="41" viewBox="0 0 46 41" fill="none" xmlns="http://www.w3.org/2000/svg">
<path d="M38.2079 40.6514H17.4416C14.8902 40.6514 12.8232 38.5845 12.8232 36.0331C12.8232 33.4817 14.8902 31.4148 17.4416 31.4148H38.2079C40.7593 31.4148 42.8262 33.4817 42.8262 36.0331C42.8262 38.5845 40.7593 40.6514 38.2079 40.6514Z" fill="url(#paint0_linear_232_414)"/>
<path opacity="0.3" d="M44.2515 22.5623C43.835 24.089 42.6169 25.3636 40.9853 25.8223L20.9333 31.0977C18.4831 31.7348 15.9367 30.2702 15.2996 27.82C14.6625 25.3698 16.1271 22.8235 18.5773 22.1863L38.6293 16.9109C41.0796 16.2738 43.6259 17.7385 44.263 20.1887C44.4725 21.0158 44.4555 21.8146 44.2515 22.5623Z" fill="#6AEDAB"/>
<path d="M4.71085 26.9093C4.00816 26.5822 3.358 26.0657 2.89108 25.3852C1.43177 23.3164 1.92863 20.4128 4.02669 18.9671L21.004 7.06396C23.0727 5.60465 25.9764 6.10153 27.4221 8.19958C28.8814 10.2684 28.3845 13.172 26.2865 14.6177L9.30918 26.5208C7.93454 27.4839 6.17476 27.5909 4.71085 26.9093Z" fill="url(#paint1_linear_232_414)"/>
<defs>
<linearGradient id="paint0_linear_232_414" x1="12.8232" y1="35.52" x2="23.6512" y2="21.1107" gradientUnits="userSpaceOnUse">
<stop stop-color="#3FE6DC"/>
<stop offset="0.52863" stop-color="#76D742"/>
<stop offset="1" stop-color="#DBF53C"/>
</linearGradient>
<linearGradient id="paint1_linear_232_414" x1="6.91322" y1="11.2819" x2="25.5012" y2="14.0616" gradientUnits="userSpaceOnUse">
<stop stop-color="#3FE6DC"/>
<stop offset="0.52863" stop-color="#76D742"/>
<stop offset="1" stop-color="#DBF53C"/>
</linearGradient>
</defs>
</svg>
